<svg width="28" height="44" viewBox="0 0 28 44" fill="none" xmlns="http://www.w3.org/2000/svg">
<path d="M14 27.5067C21.3748 27.5067 27.3533 21.5282 27.3533 14.1534C27.3533 6.77854 21.3748 0.800049 14 0.800049C6.62516 0.800049 0.646667 6.77854 0.646667 14.1534C0.646667 21.5282 6.62516 27.5067 14 27.5067Z" fill="#FCA700"/>
<path d="M27.7933 39.1867L20.8867 20.6201H7.11333L0.206665 39.1867L11.0133 43.2067L14 35.1734L16.9867 43.2067L27.7933 39.1867Z" fill="#1868DB"/>
<path d="M22.36 24.5667C20.0667 26.4067 17.16 27.5067 14 27.5067C10.84 27.5067 7.94 26.4067 5.64667 24.5734L7.11333 20.6201H20.9L22.3667 24.5667H22.36Z" fill="#09326C"/>
</svg>
