<svg width="38" height="38" viewBox="0 0 38 38" fill="none" xmlns="http://www.w3.org/2000/svg">
<path fill-rule="evenodd" clip-rule="evenodd" d="M9.38678 18.6669L13.6134 14.4402L9.38678 10.2135L12.9134 6.68688H21.3734L27.7201 0.34021H37.5868V10.2069L31.2401 16.5535V25.0135L27.7134 28.5402L23.4868 24.3135L19.2601 28.5402L15.3868 24.6669L20.0268 20.0269L17.9134 17.9135L13.2734 22.5535L9.39345 18.6735L9.38678 18.6669ZM32.6468 8.80021C31.6734 9.77354 30.0934 9.77354 29.1201 8.80021C28.1468 7.82688 28.1468 6.24688 29.1201 5.27354C30.0934 4.30021 31.6734 4.30021 32.6468 5.27354C33.6201 6.24688 33.6201 7.82688 32.6468 8.80021Z" fill="#1868DB"/>
<path fill-rule="evenodd" clip-rule="evenodd" d="M20.6268 30.3401C16.3801 34.5868 10.4135 37.4335 0.506788 37.2201C0.286788 27.3135 3.13345 21.3535 7.38679 17.1001C11.2801 13.2068 17.3401 12.3668 23.4468 14.2735C25.3535 20.3801 24.5201 26.4401 20.6201 30.3335L20.6268 30.3401Z" fill="#FCA700"/>
<path fill-rule="evenodd" clip-rule="evenodd" d="M23.8734 24.6868L23.4934 24.3068L19.26 28.5335L15.3867 24.6601L20.0267 20.0201L17.9134 17.9068L13.2734 22.5468L9.39337 18.6668L13.62 14.4335L13.04 13.8535C16.1934 12.9735 19.8134 13.1401 23.4534 14.2735C24.5867 17.9135 24.7534 21.5335 23.8734 24.6868Z" fill="#09326C"/>
</svg>
