<svg width="29" height="44" viewBox="0 0 29 44" fill="none" xmlns="http://www.w3.org/2000/svg">
<path d="M8.47995 15.9867C9.55995 16.28 10.7466 16.4133 11.9866 16.4133C13.2266 16.4133 14.2999 16.28 15.3533 15.9933C17.6066 15.3867 19.4399 14.0867 20.3666 11.94C20.7799 10.9733 21.0199 9.84666 21.0199 8.52666C21.0199 7.20666 20.7799 6.04666 20.3599 5.06666C19.4333 2.91999 17.5999 1.61999 15.3533 1.01332C14.3066 0.726656 13.1666 0.593323 11.9866 0.593323C10.7466 0.593323 9.56661 0.733323 8.47995 1.02666C6.20661 1.63999 4.38661 2.93332 3.46661 5.06666C3.04661 6.03999 2.80661 7.18666 2.80661 8.52666C2.80661 9.86666 3.03994 10.9733 3.45994 11.94C4.37994 14.0733 6.19994 15.3667 8.47995 15.98V15.9867Z" fill="#FCA700"/>
<path d="M23.8533 18.92H14.8733V8.96665C14.8733 7.33332 13.5466 6.00665 11.9133 6.00665C10.28 6.00665 8.95329 7.33332 8.95329 8.96665V18.92V26.7067L5.59329 23.3467C4.43996 22.1933 2.56663 22.1933 1.40663 23.3467C0.253293 24.5 0.253293 26.3733 1.40663 27.5333L10.6266 36.7533V43.3867H28.4333V23.5067C28.4333 20.9733 26.38 18.92 23.8466 18.92H23.8533Z" fill="#1868DB"/>
<path d="M14.8733 8.95999V16.1067C13.9599 16.3133 12.9866 16.4133 11.9799 16.4133C10.9733 16.4133 9.90661 16.3133 8.95328 16.0933V8.95999C8.95328 7.32665 10.2799 6.00665 11.9133 6.00665C13.5466 6.00665 14.8733 7.32665 14.8733 8.95999Z" fill="#AE2A19"/>
</svg>
