<svg width="1440" height="862" viewBox="0 0 1440 862" fill="none" xmlns="http://www.w3.org/2000/svg" xmlns:bx="https://boxy-svg.com">
  <mask id="mask0_2008_28428" style="mask-type:alpha" maskUnits="userSpaceOnUse" x="0" y="0" width="575" height="862">
    <rect width="575" height="862" fill="url(#paint0_linear_2008_28428)"></rect>
  </mask>
  <g mask="url(#mask0_2008_28428)" transform="matrix(1, 0, 0, 1, 4.764412, -339.250244)" id="object-0">
    <path opacity="0.2" d="M427.344 152.45L-242 152.45" stroke="url(#paint1_linear_2008_28428)"></path>
    <path opacity="0.2" d="M427.345 247.142L-242 247.142" stroke="url(#paint2_linear_2008_28428)"></path>
    <path opacity="0.2" d="M427.345 341.835L-242 341.835" stroke="url(#paint3_linear_2008_28428)"></path>
    <path opacity="0.2" d="M427.345 436.527L-242 436.527" stroke="url(#paint4_linear_2008_28428)"></path>
    <path opacity="0.2" d="M427.345 531.218L-242 531.218" stroke="url(#paint5_linear_2008_28428)"></path>
    <path opacity="0.2" d="M427.345 625.91L-242 625.91" stroke="url(#paint6_linear_2008_28428)"></path>
    <path opacity="0.2" d="M427.345 720.603L-242 720.603" stroke="url(#paint7_linear_2008_28428)"></path>
    <path opacity="0.2" d="M427.345 815.294L-242 815.294" stroke="url(#paint8_linear_2008_28428)"></path>
    <path opacity="0.2" d="M328.952 1959L328.952 0" stroke="#A5ADBA"></path>
    <path opacity="0.2" d="M234.955 1959L234.955 0" stroke="#A5ADBA"></path>
    <path opacity="0.2" d="M140.958 1959L140.958 0" stroke="#A5ADBA"></path>
    <path opacity="0.2" d="M46.7148 1886L46.7148 0" stroke="#A5ADBA"></path>
  </g>
  <mask id="mask1_2008_28428" style="mask-type:alpha" maskUnits="userSpaceOnUse" x="0" y="0" width="218" height="490">
    <rect width="218" height="490" fill="#D9D9D9"></rect>
  </mask>
  <g mask="url(#mask1_2008_28428)" transform="matrix(0, 1, -1, 0, 1260.473755, 16.177944)" style="transform-origin: 98.4998px 83.75px;">
    <g filter="url(#filter0_d_2008_28428)">
      <path d="M43.256 405.611C48.6192 375.011 68.603 371.351 93.9501 366.73C120 358.5 157.454 355.073 185.534 308.267C199.574 284.81 208.387 262.313 212.452 239.461C216.073 219.061 215.834 198.767 211.735 177.55C204.049 138.135 183.553 100.925 163.774 64.887C145.225 31.1593 125.993 -3.74128 116.53 -41.3073C111.406 -61.4942 109.527 -80.7215 110.62 -100.126C111.918 -121.913 116.974 -143.379 126.163 -165.627C142.219 -204.508 147.787 -243.176 142.765 -280.493C141.809 -287.388 140.545 -294.212 138.871 -301L137.129 -301C138.803 -294.105 140.135 -287.21 141.091 -280.209C146.113 -243.176 140.545 -204.864 124.66 -166.267C113.353 -138.865 108.673 -113.454 108.673 -89.5355C108.673 -31.747 135.797 17.5829 162.271 65.7399C182.938 103.306 202.443 138.704 210.061 177.905C214.195 198.874 214.4 218.954 210.779 239.105C206.782 261.78 193.061 293.321 183.5 306.5C165 332 158.5 348 93.6768 365.024C80.5933 367.406 69.2863 369.502 60.1996 374.976C50.1223 381.053 44.2125 390.756 41.6505 405.292C34.0669 448.366 22.1107 473.955 3.93736 485.861C-0.366856 488.704 -5.04674 490.801 -10 492.187L-10 494C-4.70514 492.543 0.17976 490.41 4.82557 487.318C23.3747 475.164 35.6382 449.219 43.256 405.611Z" style="paint-order: stroke; fill: rgba(96, 178, 251, 0.18);"></path>
      <path d="M28.0259 366.133L28.026 366.132C30.7433 347.41 34.8329 337.293 41.129 330.891C47.4371 324.477 56.0183 321.721 67.9854 317.892L67.986 317.892L68.2309 317.813C89.0784 311.113 120.665 300.961 166.299 261.658C181.754 248.364 190.961 234.84 195.351 220.994C199.741 207.146 199.298 193.02 195.527 178.547C187.997 149.643 167.162 119.257 144.883 86.7646L144.865 86.7385L144.453 87.0213L144.865 86.7385C99.5903 20.7291 48.5629 -53.8555 85.3349 -144.867C99.5148 -179.898 106.501 -215.268 106.18 -250.023L106.18 -250.023C105.931 -275.877 101.654 -301.513 93.3845 -326.159L93.2701 -326.5L92.9105 -326.5L91.0608 -326.5L90.365 -326.5L90.5869 -325.841C98.8582 -301.257 103.153 -275.836 103.366 -250.014L103.366 -250.013C103.721 -215.622 96.6934 -180.675 82.7006 -145.973C66.0041 -104.735 65.7231 -63.0534 81.6977 -18.7234L81.6978 -18.7229C95.583 19.6838 119.133 54.1571 141.887 87.467L142.475 88.3266L142.475 88.3271C164.547 120.551 185.293 150.843 192.701 179.174L192.701 179.174C196.806 194.792 196.596 208.959 191.939 222.172C187.281 235.388 178.158 247.691 164.366 259.547C118.912 298.624 87.645 308.615 66.9797 315.218L66.9694 315.222L66.9661 315.223C55.0464 319.031 45.944 321.94 39.1503 328.791C32.3437 335.654 27.9127 346.403 25.0801 365.732C21.7803 388.262 13.7164 402.175 1.26672 407.372C-1.87891 408.664 -5.3123 409.422 -9.03865 409.711L-9.5 409.746L-9.5 410.209L-9.5 412L-9.5 412.533L-8.96825 412.499C-4.90347 412.24 -1.14836 411.427 2.25485 409.976C16.0886 404.282 24.6023 389.437 28.0259 366.133Z" stroke="#B3F5FF" style="paint-order: stroke; fill: rgba(0, 90, 255, 0.043);"></path>
      <path d="M118.789 190.753C130.047 173.863 129.674 151.157 117.521 123.381C107.903 101.309 90.9027 75.9559 67.0432 47.9931C42.5872 19.4338 15.8571 -6.10555 -1.70198 -22.063L-1.70198 -19.6396C15.8571 -3.71939 41.8789 21.2234 65.7384 49.1117C89.5233 76.9626 106.411 102.129 115.955 124.015C127.81 151.195 128.295 173.267 117.372 189.634C92.0211 227.626 49.2231 247.834 11.4579 265.618C7.02156 267.744 2.6598 269.757 -1.62745 271.807L-1.62745 273.821C2.88349 271.621 7.50624 269.459 12.2409 267.259C50.1551 249.474 93.2141 229.155 118.789 190.753Z" style="paint-order: stroke; fill: rgba(96, 178, 251, 0.18);"></path>
      <mask id="path-18-inside-1_2008_28428" fill="white">
        <path d="M54.3679 142.172C59.96 134.268 59.8481 124.052 53.9951 111.823C49.3723 102.204 41.2452 91.3167 29.7255 79.4605C18.7278 68.1635 6.76083 57.9851 -1.70184 51.3113L-1.70184 53.6974C21.934 72.6749 70.5103 116.148 52.8767 141.053C41.4316 157.16 18.7651 166.593 -1.70184 174.72L-1.70184 176.659C19.1379 168.419 42.5127 158.875 54.3679 142.172Z"></path>
      </mask>
      <path d="M54.3679 142.172C59.96 134.268 59.8481 124.052 53.9951 111.823C49.3723 102.204 41.2452 91.3167 29.7255 79.4605C18.7278 68.1635 6.76083 57.9851 -1.70184 51.3113L-1.70184 53.6974C21.934 72.6749 70.5103 116.148 52.8767 141.053C41.4316 157.16 18.7651 166.593 -1.70184 174.72L-1.70184 176.659C19.1379 168.419 42.5127 158.875 54.3679 142.172Z" style="paint-order: stroke; fill: rgba(96, 178, 251, 0.18);"></path>
      <path d="M54.3679 142.172L55.9989 143.329L56.0006 143.327L54.3679 142.172ZM53.9951 111.823L55.7991 110.959L55.7977 110.957L53.9951 111.823ZM29.7255 79.4605L31.1599 78.0668L31.1586 78.0654L29.7255 79.4605ZM-1.70184 51.3113L-0.463375 49.7409L-3.70184 47.187L-3.70184 51.3113L-1.70184 51.3113ZM-1.70184 53.6974L-3.70184 53.6974L-3.70184 54.6565L-2.95399 55.257L-1.70184 53.6974ZM52.8767 141.053L54.507 142.212L54.509 142.209L52.8767 141.053ZM-1.70184 174.72L-2.44 172.862L-3.70184 173.363L-3.70184 174.72L-1.70184 174.72ZM-1.70184 176.659L-3.70184 176.659L-3.70184 179.601L-0.966467 178.519L-1.70184 176.659ZM56.0006 143.327C62.1696 134.607 61.8258 123.551 55.7991 110.959L52.1911 112.686C57.8704 124.552 57.7503 133.928 52.7352 141.017L56.0006 143.327ZM55.7977 110.957C51.0464 101.07 42.7606 90.0064 31.1599 78.0668L28.2911 80.8542C39.7297 92.627 47.6983 103.337 52.1925 112.689L55.7977 110.957ZM31.1586 78.0654C20.0829 66.6884 8.04579 56.4513 -0.463375 49.7409L-2.94029 52.8817C5.47586 59.5188 17.3726 69.6386 28.2924 80.8556L31.1586 78.0654ZM-3.70184 51.3113L-3.70184 53.6974L0.298164 53.6974L0.298164 51.3113L-3.70184 51.3113ZM-2.95399 55.257C8.83385 64.7215 26.7428 80.22 39.4929 96.3906C45.8746 104.484 50.8629 112.622 53.2016 120.158C55.5279 127.655 55.18 134.339 51.2444 139.898L54.509 142.209C59.3902 135.315 59.5829 127.225 57.0219 118.973C54.4734 110.76 49.1467 102.174 42.634 93.914C29.5954 77.3775 11.3983 61.6508 -0.44968 52.1379L-2.95399 55.257ZM51.2464 139.895C45.768 147.604 37.5285 153.814 27.9961 159.132C18.4696 164.448 7.80082 168.795 -2.44 172.862L-0.963674 176.579C9.26246 172.518 20.1604 168.085 29.9451 162.625C39.724 157.169 48.5403 150.609 54.507 142.212L51.2464 139.895ZM-3.70184 174.72L-3.70184 176.659L0.298159 176.659L0.298159 174.72L-3.70184 174.72ZM-0.966467 178.519C9.44175 174.404 20.6117 169.914 30.6718 164.339C40.7275 158.765 49.8257 152.027 55.9989 143.329L52.737 141.014C47.0549 149.02 38.5382 155.405 28.7327 160.84C18.9317 166.272 7.99434 170.675 -2.43722 174.799L-0.966467 178.519Z" mask="url(#path-18-inside-1_2008_28428)" style="paint-order: stroke; fill: rgba(96, 178, 251, 0.18);"></path>
      <path d="M18.1314 131.511C19.6599 129.945 20.2563 127.932 20.0326 125.621C19.1752 117.791 7.91645 107.091 -1.9629 99L-1.9629 101.386C7.39453 109.104 17.423 118.947 18.2059 125.844C18.3923 127.597 17.945 129.051 16.7893 130.281C12.8375 134.494 5.60511 139.155 -2.00013 143.405L-2.00013 145.53C6.0152 141.056 13.8814 136.06 18.1314 131.511Z" fill-opacity="0.5" style="paint-order: stroke; fill: rgba(96, 178, 251, 0.18);"></path>
      <path d="M23.1941 133.745L23.1927 133.747C17.2635 140.254 6.30289 147.407 -4.9 153.827L-4.9 150.998C5.76006 144.885 15.9043 138.18 21.4558 132.11C23.0998 130.315 23.7351 128.192 23.4707 125.644L23.4707 125.643C23.1937 123.141 22.1004 120.379 20.4168 117.474C18.7328 114.568 16.4549 111.512 13.8024 108.423C8.50709 102.254 1.71263 95.9404 -4.84773 90.3895L-4.84773 87.2147C2.03907 93.0068 9.38357 99.7137 15.1691 106.372C21.0045 113.089 25.238 119.738 25.8366 125.342C26.1483 128.646 25.3169 131.515 23.1941 133.745Z" stroke="#79E2F2" stroke-width="0.2" style="paint-order: stroke; fill: rgba(96, 178, 251, 0.18);"></path>
      <path d="M9.93657 334.117C13.9704 303.354 40.8626 285.295 75.0007 262.531C84.4877 256.161 94.3855 249.538 104.619 242.119C130.279 223.48 145.667 202.562 150.411 180.087C155.789 154.536 147.498 126.452 125.797 96.6299C101.968 63.8768 63.6836 16.4663 28.0888 -24.1765C18.1163 -35.5768 4.81966 -50.4514 -8.9626 -65.0003L-8.9626 -62.3945C1.86897 -50.8133 13.821 -37.6758 26.6695 -23.0184C62.1896 17.5882 100.474 64.9264 124.228 97.6071C164.604 153.161 157.62 201.295 103.387 240.671C93.2277 248.054 83.3299 254.641 73.8429 261.047C39.3686 284.137 12.2149 302.377 8.06904 333.864C5.15573 356.23 -0.596195 369.042 -9 372.118L-9 374C0.486965 371.068 6.79915 357.678 9.93657 334.117Z" fill-opacity="0.7" style="paint-order: stroke; fill: rgba(96, 178, 251, 0.18);"></path>
      <path d="M81.8348 154.622C86.5505 142.748 85.9917 130.527 80.1931 118.345C65.8364 88.121 48.8598 60.7111 29.6826 36.8865C17.8758 22.237 7.08211 11.1728 -1.99999 3L-1.99999 5.50582C18.33 24.126 50.6413 60.0943 78.726 119.155C84.2451 130.836 84.804 142.478 80.3328 153.812C71.2856 176.635 43.3756 194.484 21.4737 205.432C13.1601 209.634 5.02117 213.181 -2 215.995L-2 218C5.16089 215.109 13.5444 211.523 22.1375 207.206C54.3091 191.091 74.4294 173.358 81.8348 154.622Z" style="paint-order: stroke; fill: rgba(96, 178, 251, 0.18);"></path>
      <path d="M7.18333 188.769C18.8971 184.209 32.2246 178.208 43.837 170.967C55.4431 163.73 65.3669 155.235 70.2337 145.673L70.234 145.673C75.0562 136.152 74.4472 126.367 68.5071 116.576L68.5067 116.575C38.5123 67.4484 4.00958 37.4964 -17.75 21.9573L-17.75 20.4809C-8.13438 27.2503 3.25252 36.3691 15.6938 48.392C36.1777 68.212 54.3119 91.0156 69.6481 116.161L69.6483 116.162C75.8054 126.236 76.3919 136.319 71.3938 146.12L71.3936 146.121L7.09262 188.536M7.18333 188.769L7.09262 188.536M7.18333 188.769C7.18362 188.769 7.18391 188.769 7.1842 188.769L7.09262 188.536M7.18333 188.769C-1.64101 192.243 -10.2805 195.179 -17.75 197.515M7.09262 188.536C-1.79435 192.035 -10.4946 194.988 -18 197.331M-17.75 197.515L-17.75 197.331L-18 197.331M-17.75 197.515C-17.8086 197.533 -17.8671 197.551 -17.9255 197.569L-18 197.331M-17.75 197.515L-18 197.331M-18 198.738L-18 199C-17.9168 198.974 -17.8335 198.947 -17.75 198.921L-17.75 198.659C-17.8335 198.685 -17.9168 198.712 -18 198.738Z" stroke="#B3F5FF" stroke-width="0.5" style="paint-order: stroke; fill: rgba(96, 178, 251, 0.18);"></path>
      <path d="M124.942 108.325L135.287 100.468L136.919 113.355L124.942 108.325Z" style="paint-order: stroke; fill: rgba(96, 178, 251, 0.18);"></path>
      <g filter="url(#filter1_d_2008_28428)"></g>
    </g>
  </g>
  <defs>
    <filter id="filter0_d_2008_28428" x="-22" y="-337" width="241.1" height="839" filterUnits="userSpaceOnUse" color-interpolation-filters="sRGB">
      <feFlood flood-opacity="0" result="BackgroundImageFix"></feFlood>
      <feColorMatrix in="SourceAlpha" type="matrix" values="0 0 0 0 0 0 0 0 0 0 0 0 0 0 0 0 0 0 127 0" result="hardAlpha"></feColorMatrix>
      <feOffset dy="4"></feOffset>
      <feGaussianBlur stdDeviation="2"></feGaussianBlur>
      <feColorMatrix type="matrix" values="0 0 0 0 0.756863 0 0 0 0 0.780392 0 0 0 0 0.815686 0 0 0 0.2 0"></feColorMatrix>
      <feBlend mode="normal" in2="BackgroundImageFix" result="effect1_dropShadow_2008_28428"></feBlend>
      <feBlend mode="normal" in="SourceGraphic" in2="effect1_dropShadow_2008_28428" result="shape"></feBlend>
    </filter>
    <filter id="filter1_d_2008_28428" x="60" y="151" width="58.1001" height="57.7627" filterUnits="userSpaceOnUse" color-interpolation-filters="sRGB">
      <feFlood flood-opacity="0" result="BackgroundImageFix"></feFlood>
      <feColorMatrix in="SourceAlpha" type="matrix" values="0 0 0 0 0 0 0 0 0 0 0 0 0 0 0 0 0 0 127 0" result="hardAlpha"></feColorMatrix>
      <feOffset dy="4"></feOffset>
      <feGaussianBlur stdDeviation="2"></feGaussianBlur>
      <feColorMatrix type="matrix" values="0 0 0 0 0.419608 0 0 0 0 0.466667 0 0 0 0 0.54902 0 0 0 0.15 0"></feColorMatrix>
      <feBlend mode="normal" in2="BackgroundImageFix" result="effect1_dropShadow_2008_28428"></feBlend>
      <feBlend mode="normal" in="SourceGraphic" in2="effect1_dropShadow_2008_28428" result="shape"></feBlend>
    </filter>
    <linearGradient id="paint0_linear_2008_28428" x1="287.5" y1="0" x2="287.5" y2="862" gradientUnits="userSpaceOnUse">
      <stop offset="0.7077" stop-color="#FF0000"></stop>
      <stop offset="0.9948" stop-color="#FF0000" stop-opacity="0"></stop>
    </linearGradient>
    <linearGradient id="paint1_linear_2008_28428" x1="427.344" y1="152.95" x2="-242" y2="152.95" gradientUnits="userSpaceOnUse">
      <stop offset="0.7344" stop-color="#A5ADBA"></stop>
      <stop offset="1" stop-color="#A5ADBA" stop-opacity="0.2"></stop>
    </linearGradient>
    <linearGradient id="paint2_linear_2008_28428" x1="427.345" y1="247.642" x2="-242" y2="247.642" gradientUnits="userSpaceOnUse">
      <stop offset="0.7344" stop-color="#A5ADBA"></stop>
      <stop offset="1" stop-color="#A5ADBA" stop-opacity="0.2"></stop>
    </linearGradient>
    <linearGradient id="paint3_linear_2008_28428" x1="427.345" y1="342.335" x2="-242" y2="342.335" gradientUnits="userSpaceOnUse">
      <stop offset="0.7344" stop-color="#A5ADBA"></stop>
      <stop offset="1" stop-color="#A5ADBA" stop-opacity="0.2"></stop>
    </linearGradient>
    <linearGradient id="paint4_linear_2008_28428" x1="427.345" y1="437.027" x2="-242" y2="437.027" gradientUnits="userSpaceOnUse">
      <stop offset="0.7344" stop-color="#A5ADBA"></stop>
      <stop offset="1" stop-color="#A5ADBA" stop-opacity="0.2"></stop>
    </linearGradient>
    <linearGradient id="paint5_linear_2008_28428" x1="427.345" y1="531.718" x2="-242" y2="531.718" gradientUnits="userSpaceOnUse">
      <stop offset="0.7344" stop-color="#A5ADBA"></stop>
      <stop offset="1" stop-color="#A5ADBA" stop-opacity="0.2"></stop>
    </linearGradient>
    <linearGradient id="paint6_linear_2008_28428" x1="427.345" y1="626.41" x2="-242" y2="626.41" gradientUnits="userSpaceOnUse">
      <stop offset="0.7344" stop-color="#A5ADBA"></stop>
      <stop offset="1" stop-color="#A5ADBA" stop-opacity="0.2"></stop>
    </linearGradient>
    <linearGradient id="paint7_linear_2008_28428" x1="427.345" y1="721.103" x2="-242" y2="721.103" gradientUnits="userSpaceOnUse">
      <stop offset="0.7344" stop-color="#A5ADBA"></stop>
      <stop offset="1" stop-color="#A5ADBA" stop-opacity="0.2"></stop>
    </linearGradient>
    <linearGradient id="paint8_linear_2008_28428" x1="427.345" y1="815.794" x2="-242" y2="815.794" gradientUnits="userSpaceOnUse">
      <stop offset="0.7344" stop-color="#A5ADBA"></stop>
      <stop offset="1" stop-color="#A5ADBA" stop-opacity="0.2"></stop>
    </linearGradient>
    <bx:export>
      <bx:file format="svg"></bx:file>
      <bx:file format="svg" href="#object-0" path="Untitled 2.svg"></bx:file>
    </bx:export>
  </defs>
</svg>