<svg width="90" height="102" viewBox="0 0 70 82" fill="none" xmlns="http://www.w3.org/2000/svg">
<g clip-path="url(#clip0_2008_21745)">
<!--<rect width="70" height="80.2431" transform="translate(0 0.951416)" fill="white" fill-opacity="0.01"/>-->
<!--<path d="M69.9709 17.5319L0.0751953 17.4099L-0.0100531 66.2536L69.8857 66.3756L69.9709 17.5319Z" fill="url(#paint0_linear_2008_21745)"/>-->
<!--<path opacity="0.1" d="M0 58.8682V66.264H7.46528V44.8057C6.80861 47.4121 5.84102 49.9302 4.58333 52.3057C3.3291 54.672 1.78987 56.8759 0 58.8682H0Z" fill="#253858"/>-->
<!--<path d="M62.5977 24.3591L7.49365 24.2629L7.44833 50.2316L62.5524 50.3278L62.5977 24.3591Z" fill="#0049B0"/>-->
<path d="M52.743 6.81934H16.9097V59.2291H52.743V6.81934Z" fill="#505F79"/>
<path d="M55.1738 9.25H14.7224V61.6597H55.1738V9.25Z" fill="#253858"/>
<path d="M57.0833 12.375H12.6736V64.7847H57.0833V12.375Z" fill="url(#paint1_linear_2008_21745)"/>
<path d="M34.3054 17.4446H22.7429V18.139H34.3054V17.4446Z" fill="#3384FF"/>
<path d="M20.7289 17.4446H17.8123V18.139H20.7289V17.4446Z" fill="#3384FF"/>
<path d="M34.3054 20.7083H22.7429V21.4027H34.3054V20.7083Z" fill="#57D9A3"/>
<path d="M20.7289 20.7083H17.8123V21.4027H20.7289V20.7083Z" fill="#3384FF"/>
<path d="M44.4443 23.9722H22.7429V24.6666H44.4443V23.9722Z" fill="#3384FF"/>
<path d="M20.7289 23.9722H17.8123V24.6666H20.7289V23.9722Z" fill="#3384FF"/>
<path d="M51.9441 27.2361H44.4094V27.9305H51.9441V27.2361Z" fill="#57D9A3"/>
<path d="M42.1179 27.2361H22.7429V27.9305H42.1179V27.2361Z" fill="#FAFBFC"/>
<path d="M20.7289 27.2361H17.8123V27.9305H20.7289V27.2361Z" fill="#3384FF"/>
<path d="M44.4443 30.5H22.7429V31.1944H44.4443V30.5Z" fill="#3384FF"/>
<path d="M20.7289 30.5H17.8123V31.1944H20.7289V30.5Z" fill="#3384FF"/>
<path d="M51.979 33.7639H22.7429V34.4584H51.979V33.7639Z" fill="#3384FF"/>
<path d="M20.7289 33.7639H17.8123V34.4584H20.7289V33.7639Z" fill="#3384FF"/>
<path d="M34.3054 37.0278H22.7429V37.7223H34.3054V37.0278Z" fill="#57D9A3"/>
<path d="M20.7289 37.0278H17.8123V37.7223H20.7289V37.0278Z" fill="#3384FF"/>
<path d="M43.9582 40.2917H36.9443V40.9862H43.9582V40.2917Z" fill="#3384FF"/>
<path d="M34.3054 40.2917H22.7429V40.9862H34.3054V40.2917Z" fill="#57D9A3"/>
<path d="M20.7289 40.2917H17.8123V40.9862H20.7289V40.2917Z" fill="#3384FF"/>
<path d="M56.6319 70.7431H13.2638L3.64575 0.951416H66.2846L56.6319 70.7431Z" fill="url(#paint2_linear_2008_21745)"/>
<path d="M62.5623 44.8799L7.45825 44.7837L7.39492 81.0718L62.499 81.168L62.5623 44.8799Z" fill="#3384FF"/>
<path d="M44.3916 70.994L30.3638 70.9695C29.8269 70.9685 29.3908 71.4031 29.3899 71.94L29.3883 72.8497C29.3874 73.3867 29.8219 73.8227 30.3588 73.8236L44.3866 73.8481C44.9235 73.8491 45.3596 73.4145 45.3605 72.8776L45.3621 71.9679C45.363 71.4309 44.9285 70.9949 44.3916 70.994Z" fill="#FAFBFC"/>
<path d="M25.3125 73.7986C26.0988 73.7986 26.7361 73.1613 26.7361 72.375C26.7361 71.5888 26.0988 70.9514 25.3125 70.9514C24.5263 70.9514 23.8889 71.5888 23.8889 72.375C23.8889 73.1613 24.5263 73.7986 25.3125 73.7986Z" fill="#FAFBFC"/>
<path d="M45.4165 63.2777H24.5137C24.4677 63.2819 24.4214 63.2746 24.379 63.2564C24.3366 63.2382 24.2993 63.2097 24.2707 63.1735C24.2081 63.1075 24.1712 63.0213 24.1665 62.9304V51.5416C24.1665 51.4495 24.2031 51.3612 24.2682 51.296C24.3333 51.2309 24.4216 51.1943 24.5137 51.1943H45.4165C45.5086 51.1943 45.5969 51.2309 45.662 51.296C45.7271 51.3612 45.7637 51.4495 45.7637 51.5416V62.8957C45.7641 62.9913 45.7287 63.0835 45.6644 63.1542C45.6001 63.2249 45.5117 63.269 45.4165 63.2777V63.2777ZM24.8609 62.5485H45.0693V51.9235H24.8957L24.8609 62.5485Z" fill="#0057D8"/>
<path d="M37.8124 60.1182C37.7615 60.1202 37.7107 60.112 37.663 60.0942C37.6153 60.0763 37.5716 60.049 37.5346 60.014C37.4829 59.9416 37.458 59.8534 37.4644 59.7647C37.4707 59.6759 37.5078 59.5922 37.5693 59.5279L39.7221 57.5487L37.7429 55.4307C37.6815 55.3557 37.651 55.2601 37.6574 55.1634C37.6639 55.0667 37.7069 54.976 37.7777 54.9098C37.85 54.8581 37.9382 54.8333 38.027 54.8396C38.1157 54.8459 38.1995 54.8831 38.2638 54.9446L40.4513 57.3404C40.5138 57.4064 40.5508 57.4926 40.5554 57.5835C40.5569 57.6291 40.5483 57.6745 40.5303 57.7165C40.5123 57.7585 40.4853 57.7961 40.4513 57.8265L38.0554 60.0487C37.986 60.1016 37.8992 60.1264 37.8124 60.1182V60.1182Z" fill="#0057D8"/>
<path d="M31.9793 60.0834C31.8884 60.0788 31.8023 60.0418 31.7362 59.9793L29.5487 57.5834C29.4851 57.5185 29.4495 57.4313 29.4495 57.3404C29.4495 57.2495 29.4851 57.1622 29.5487 57.0973L31.9446 54.8751C32.0136 54.8106 32.1055 54.7763 32.1999 54.7795C32.2943 54.7828 32.3836 54.8234 32.448 54.8925C32.5125 54.9615 32.5469 55.0534 32.5436 55.1478C32.5404 55.2422 32.4997 55.3315 32.4307 55.3959L30.2779 57.3751L32.2571 59.4932C32.3088 59.5655 32.3336 59.6537 32.3273 59.7425C32.321 59.8312 32.2838 59.915 32.2223 59.9793C32.1919 60.0133 32.1544 60.0403 32.1124 60.0583C32.0704 60.0763 32.0249 60.0849 31.9793 60.0834Z" fill="#0057D8"/>
<path d="M34.0278 60.9513H33.9583C33.9116 60.9396 33.8677 60.9182 33.8297 60.8885C33.7916 60.8589 33.7602 60.8217 33.7373 60.7792C33.7144 60.7367 33.7007 60.69 33.6969 60.6419C33.6931 60.5938 33.6994 60.5455 33.7153 60.4999L35.4514 54.2499C35.4588 54.2044 35.4762 54.1611 35.5023 54.1231C35.5284 54.0851 35.5626 54.0533 35.6024 54.0301C35.6422 54.0069 35.6867 53.9928 35.7326 53.9887C35.7785 53.9847 35.8248 53.9909 35.8681 54.0069C35.9136 54.0143 35.9569 54.0317 35.9949 54.0578C36.0329 54.0839 36.0646 54.1181 36.0879 54.1579C36.1111 54.1977 36.1252 54.2422 36.1293 54.2881C36.1333 54.334 36.1271 54.3803 36.1111 54.4235L34.375 60.7083C34.3521 60.7814 34.3056 60.845 34.2428 60.8889C34.18 60.9329 34.1044 60.9548 34.0278 60.9513V60.9513Z" fill="#0057D8"/>
</g>
<defs>
<!--<linearGradient id="paint0_linear_2008_21745" x1="5.31573" y1="71.573" x2="64.6768" y2="12.2118" gradientUnits="userSpaceOnUse">-->
<!--<stop offset="0.21" stop-color="#0065FF"/>-->
<!--<stop offset="1" stop-color="#4C9AFF"/>-->
<!--</linearGradient>-->
<linearGradient id="paint1_linear_2008_21745" x1="10.6736" y1="62.7951" x2="59.0833" y2="14.3889" gradientUnits="userSpaceOnUse">
<stop stop-color="#091E42"/>
<stop offset="0.46" stop-color="#091E42" stop-opacity="0.96"/>
<stop offset="0.75" stop-color="#091E42" stop-opacity="0.83"/>
<stop offset="0.99" stop-color="#091E42" stop-opacity="0.61"/>
<stop offset="1" stop-color="#091E42" stop-opacity="0.6"/>
</linearGradient>
<!--<linearGradient id="paint2_linear_2008_21745" x1="34.9652" y1="70.7327" x2="34.9652" y2="0.951416" gradientUnits="userSpaceOnUse">-->
<!--<stop stop-color="#E6FCFF" stop-opacity="0.2"/>-->
<!--<stop offset="0.15" stop-color="#D9F9FE" stop-opacity="0.2"/>-->
<!--<stop offset="0.25" stop-color="#AEEFF9" stop-opacity="0.2"/>-->
<!--<stop offset="0.33" stop-color="#66DEF0" stop-opacity="0.2"/>-->
<!--<stop offset="0.4" stop-color="#00C7E5" stop-opacity="0.2"/>-->
<!--<stop offset="0.63" stop-color="#00C7E5" stop-opacity="0.19"/>-->
<!--<stop offset="0.78" stop-color="#00C7E5" stop-opacity="0.15"/>-->
<!--<stop offset="0.89" stop-color="#00C7E5" stop-opacity="0.09"/>-->
<!--<stop offset="1" stop-color="#00C7E5" stop-opacity="0"/>-->
<!--</linearGradient>-->
<clipPath id="clip0_2008_21745">
<rect width="70" height="80.2431" fill="white" transform="translate(0 0.951416)"/>
</clipPath>
</defs>
</svg>
