<svg xmlns="http://www.w3.org/2000/svg" viewBox="0 0 400 400"><circle fill="#091e42" cx="200" cy="200" r="200"/><path fill="#ffffff" d="M284.89,190.57l-37.74,37.72a52.72,52.72,0,0,1-83.55-10.76L181.14,200a12.66,12.66,0,0,1,2.84-1.89,26.34,26.34,0,0,0,6.59,11.32,26.69,26.69,0,0,0,37.72,0L266,171.71A26.68,26.68,0,0,0,228.29,134L214.88,147.4a67.09,67.09,0,0,0-34-3.7l28.59-28.59a53.36,53.36,0,0,1,75.46,75.46Zm-99.76,62L171.7,266A26.68,26.68,0,0,1,134,228.29l37.73-37.72a26.7,26.7,0,0,1,37.73,0A26.34,26.34,0,0,1,216,201.88a13.08,13.08,0,0,0,2.84-1.88l17.53-17.53a52.53,52.53,0,0,0-8.1-10.76,53.34,53.34,0,0,0-75.45,0l-37.73,37.72a53.36,53.36,0,0,0,75.46,75.46l28.59-28.59A66.94,66.94,0,0,1,185.13,252.6Z"/></svg>