<svg xmlns="http://www.w3.org/2000/svg" viewBox="0 0 400 400"><circle class="cls-1" cx="200" cy="200" r="200" fill="#091e42"/><path fill="#ffffff" d="M117.85,149.39a8.34,8.34,0,0,0-2.71-7L95,118.13v-3.62h62.44l48.26,105.85,42.43-105.85h59.53v3.62l-17.2,16.48a5.05,5.05,0,0,0-1.91,4.83V260.56a5.05,5.05,0,0,0,1.91,4.83l16.8,16.48v3.62H222.82v-3.62L240.22,265c1.71-1.71,1.71-2.21,1.71-4.83V162.25L193.56,285.09H187L130.72,162.25v82.33a11.35,11.35,0,0,0,3.12,9.45l22.62,27.44v3.62H92.31v-3.62L114.93,254a10.94,10.94,0,0,0,2.92-9.45Z"/></svg>