<svg width="32" height="32" viewBox="0 0 32 32" fill="none" xmlns="http://www.w3.org/2000/svg">
<circle cx="16" cy="16" r="16" fill="#E5E7EB"/>
<path fill-rule="evenodd" clip-rule="evenodd" d="M19.9814 13.1127C19.9814 14.0806 19.562 15.009 18.8153 15.6934C18.0687 16.3779 17.056 16.7624 16.0001 16.7624C14.9441 16.7624 13.9315 16.3779 13.1848 15.6934C12.4382 15.009 12.0187 14.0806 12.0187 13.1127C12.0187 12.1447 12.4382 11.2163 13.1848 10.5319C13.9315 9.84742 14.9441 9.46289 16.0001 9.46289C17.056 9.46289 18.0687 9.84742 18.8153 10.5319C19.562 11.2163 19.9814 12.1447 19.9814 13.1127ZM16.0001 20.4122C14.0942 20.4119 12.2283 20.9131 10.6241 21.8564C9.01986 22.7997 7.74481 24.1454 6.95044 25.7336C8.07055 26.9282 9.45923 27.8865 11.0213 28.5429C12.5833 29.1994 14.2817 29.5384 16.0001 29.5366C17.7184 29.5384 19.4168 29.1994 20.9789 28.5429C22.5409 27.8865 23.9296 26.9282 25.0497 25.7336C24.2553 24.1454 22.9803 22.7997 21.3761 21.8564C19.7719 20.9131 17.9059 20.4119 16.0001 20.4122Z" fill="#9CA3AF"/>
</svg>
