<svg width="79" height="81" viewBox="0 0 79 81" fill="none" xmlns="http://www.w3.org/2000/svg">
<g clip-path="url(#clip0_2008_21717)">
<rect width="78.0495" height="80.2" fill="white" fill-opacity="0.01"/>
<path d="M8.43316 19.3542C8.36072 19.3612 8.28771 19.3494 8.22121 19.3198C8.1547 19.2903 8.09699 19.244 8.05366 19.1855L1.72874 9.14998C1.69759 9.10313 1.67613 9.05053 1.66562 8.99525C1.65511 8.93998 1.65577 8.88317 1.66756 8.82816C1.67935 8.77315 1.70203 8.72105 1.73426 8.67494C1.76649 8.62882 1.80763 8.58963 1.85524 8.55966C1.95254 8.50681 2.06553 8.49051 2.1738 8.51371C2.28207 8.53691 2.37846 8.59808 2.44557 8.68616L8.77049 18.7217C8.80164 18.7685 8.8231 18.8212 8.83361 18.8764C8.84411 18.9317 8.84345 18.9885 8.83167 19.0435C8.81988 19.0985 8.7972 19.1506 8.76497 19.1967C8.73274 19.2429 8.6916 19.2821 8.64399 19.312L8.43316 19.3542Z" fill="#4C9AFF"/>
<path d="M39.2145 41.1963H20.2819C19.9911 41.1963 19.7123 41.0808 19.5067 40.8752C19.3011 40.6696 19.1855 40.3907 19.1855 40.1C19.1855 39.8092 19.3011 39.5304 19.5067 39.3248C19.7123 39.1192 19.9911 39.0037 20.2819 39.0037H39.2145C39.5052 39.0037 39.7841 39.1192 39.9897 39.3248C40.1953 39.5304 40.3108 39.8092 40.3108 40.1C40.3108 40.3907 40.1953 40.6696 39.9897 40.8752C39.7841 41.0808 39.5052 41.1963 39.2145 41.1963Z" fill="#57D9A3"/>
<path d="M39.2145 49.0392H22.8962C22.637 48.9887 22.4035 48.8495 22.2356 48.6457C22.0676 48.4418 21.9758 48.1859 21.9758 47.9218C21.9758 47.6577 22.0676 47.4019 22.2356 47.198C22.4035 46.9942 22.637 46.855 22.8962 46.8044H39.2145C39.4737 46.855 39.7073 46.9942 39.8752 47.198C40.0431 47.4019 40.1349 47.6577 40.1349 47.9218C40.1349 48.1859 40.0431 48.4418 39.8752 48.6457C39.7073 48.8495 39.4737 48.9887 39.2145 49.0392Z" fill="#57D9A3"/>
<path d="M39.2144 33.3954H23.3599C23.0691 33.3954 22.7903 33.2799 22.5847 33.0743C22.3791 32.8687 22.2636 32.5899 22.2636 32.2991C22.2576 32.1535 22.2819 32.0083 22.3349 31.8726C22.3879 31.7369 22.4684 31.6137 22.5714 31.5107C22.6745 31.4076 22.7977 31.3271 22.9334 31.2741C23.0691 31.2211 23.2143 31.1968 23.3599 31.2028H39.2144C39.3599 31.1968 39.5051 31.2211 39.6408 31.2741C39.7765 31.3271 39.8998 31.4076 40.0028 31.5107C40.1058 31.6137 40.1864 31.7369 40.2394 31.8726C40.2923 32.0083 40.3166 32.1535 40.3107 32.2991C40.3107 32.4431 40.2823 32.5856 40.2272 32.7186C40.1721 32.8517 40.0914 32.9725 39.9896 33.0743C39.8878 33.1761 39.7669 33.2569 39.6339 33.312C39.5009 33.3671 39.3583 33.3954 39.2144 33.3954Z" fill="#57D9A3"/>
<path d="M39.2146 60.1711C44.5305 60.1711 49.6293 62.28 53.3921 66.0349C57.155 69.7899 59.2745 74.8842 59.2857 80.2001" stroke="#0052CC" stroke-width="11.0138" stroke-miterlimit="10"/>
<path d="M39.2145 65.6528C32.441 65.6416 25.948 62.9459 21.1584 58.1563C16.3687 53.3666 13.673 46.8737 13.6619 40.1001H24.6672C24.6784 43.9549 26.2146 47.6486 28.9403 50.3743C31.6661 53.1001 35.3598 54.6363 39.2145 54.6474V65.6528Z" fill="#0052CC"/>
<path d="M59.2857 40.1001C59.2857 45.4233 57.1711 50.5284 53.407 54.2925C49.6429 58.0566 44.5378 60.1712 39.2146 60.1712" stroke="#57D9A3" stroke-width="11.0138" stroke-miterlimit="10"/>
<path d="M39.2145 20.0711C33.8986 20.0599 28.8043 17.9404 25.0493 14.1775C21.2944 10.4147 19.1855 5.31588 19.1855 0" stroke="#57D9A3" stroke-width="11.0138" stroke-miterlimit="10"/>
<path d="M19.1855 80.2001C19.1855 74.8881 21.2957 69.7936 25.0519 66.0375C28.808 62.2813 33.9025 60.1711 39.2145 60.1711" stroke="#57D9A3" stroke-width="11.0138" stroke-miterlimit="10"/>
<path d="M39.2146 20.0711C41.8484 20.0655 44.4574 20.5795 46.8923 21.5836C49.3272 22.5876 51.5401 24.0621 53.4044 25.9225C55.2688 27.7829 56.7479 29.9927 57.757 32.4255C58.7662 34.8583 59.2857 37.4662 59.2857 40.1" stroke="#57D9A3" stroke-width="11.0138" stroke-miterlimit="10"/>
<path d="M58.1892 41.1963H39.2145C38.9237 41.1963 38.6449 41.0808 38.4393 40.8752C38.2337 40.6696 38.1182 40.3907 38.1182 40.1C38.1182 39.8092 38.2337 39.5304 38.4393 39.3248C38.6449 39.1192 38.9237 39.0037 39.2145 39.0037H58.1892C58.48 39.0037 58.7589 39.1192 58.9645 39.3248C59.1701 39.5304 59.2856 39.8092 59.2856 40.1C59.2856 40.3907 59.1701 40.6696 58.9645 40.8752C58.7589 41.0808 58.48 41.1963 58.1892 41.1963Z" fill="#0065FF"/>
<path d="M55.5328 33.3955H39.2145C38.9237 33.3955 38.6449 33.28 38.4393 33.0744C38.2337 32.8688 38.1182 32.59 38.1182 32.2992C38.1182 32.1552 38.1465 32.0127 38.2016 31.8797C38.2567 31.7466 38.3375 31.6258 38.4393 31.524C38.5411 31.4222 38.6619 31.3414 38.7949 31.2863C38.928 31.2312 39.0705 31.2029 39.2145 31.2029H55.5328C55.8235 31.2029 56.1024 31.3184 56.308 31.524C56.5136 31.7296 56.6291 32.0084 56.6291 32.2992C56.6291 32.4432 56.6007 32.5857 56.5456 32.7187C56.4905 32.8518 56.4098 32.9726 56.308 33.0744C56.2062 33.1762 56.0853 33.257 55.9523 33.3121C55.8193 33.3672 55.6767 33.3955 55.5328 33.3955Z" fill="#2684FF"/>
<path d="M55.0691 49.0391H39.2146C38.9554 48.9885 38.7218 48.8494 38.5539 48.6455C38.386 48.4417 38.2942 48.1858 38.2942 47.9217C38.2942 47.6576 38.386 47.4017 38.5539 47.1979C38.7218 46.994 38.9554 46.8549 39.2146 46.8043H55.0691C55.2339 46.7721 55.4039 46.7768 55.5668 46.8181C55.7296 46.8593 55.8813 46.9361 56.011 47.0429C56.1406 47.1497 56.2451 47.2839 56.3168 47.4359C56.3885 47.5878 56.4256 47.7537 56.4256 47.9217C56.4256 48.0897 56.3885 48.2556 56.3168 48.4075C56.2451 48.5595 56.1406 48.6936 56.011 48.8004C55.8813 48.9073 55.7296 48.984 55.5668 49.0253C55.4039 49.0666 55.2339 49.0713 55.0691 49.0391V49.0391Z" fill="#2684FF"/>
<path d="M55.5328 10.0357H39.2145C38.9237 10.0357 38.6449 9.92015 38.4393 9.71455C38.2337 9.50895 38.1182 9.2301 38.1182 8.93934C38.1182 8.64858 38.2337 8.36972 38.4393 8.16412C38.6449 7.95852 38.9237 7.84302 39.2145 7.84302H55.5328C55.8235 7.84302 56.1024 7.95852 56.308 8.16412C56.5136 8.36972 56.6291 8.64858 56.6291 8.93934C56.6291 9.2301 56.5136 9.50895 56.308 9.71455C56.1024 9.92015 55.8235 10.0357 55.5328 10.0357Z" fill="#57D9A3"/>
<path d="M39.2146 2.19264H20.282C20.1365 2.19859 19.9912 2.1743 19.8555 2.12131C19.7198 2.06832 19.5966 1.98778 19.4936 1.88476C19.3906 1.78175 19.31 1.6585 19.257 1.5228C19.204 1.3871 19.1797 1.24188 19.1857 1.09632C19.1857 0.805558 19.3012 0.526704 19.5068 0.321105C19.7124 0.115505 19.9913 0 20.282 0L39.2146 0C39.5054 0 39.7842 0.115505 39.9898 0.321105C40.1954 0.526704 40.3109 0.805558 40.3109 1.09632C40.3169 1.24188 40.2926 1.3871 40.2396 1.5228C40.1866 1.6585 40.1061 1.78175 40.0031 1.88476C39.9 1.98778 39.7768 2.06832 39.6411 2.12131C39.5054 2.1743 39.3602 2.19859 39.2146 2.19264Z" fill="#0065FF"/>
<path d="M39.2144 10.0356H23.3599C23.0691 10.0356 22.7903 9.92005 22.5847 9.71445C22.3791 9.50885 22.2636 9.23 22.2636 8.93924C22.2576 8.79368 22.2819 8.64846 22.3349 8.51276C22.3879 8.37706 22.4684 8.25381 22.5714 8.1508C22.6745 8.04778 22.7977 7.96724 22.9334 7.91425C23.0691 7.86126 23.2143 7.83697 23.3599 7.84292H39.2144C39.3599 7.83697 39.5051 7.86126 39.6408 7.91425C39.7765 7.96724 39.8998 8.04778 40.0028 8.1508C40.1058 8.25381 40.1864 8.37706 40.2394 8.51276C40.2923 8.64846 40.3166 8.79368 40.3107 8.93924C40.3107 9.23 40.1952 9.50885 39.9896 9.71445C39.784 9.92005 39.5051 10.0356 39.2144 10.0356V10.0356Z" fill="#0065FF"/>
<path d="M58.1892 80.2H39.2145C38.9237 80.2 38.6449 80.0845 38.4393 79.8789C38.2337 79.6733 38.1182 79.3944 38.1182 79.1036C38.1182 78.8129 38.2337 78.534 38.4393 78.3284C38.6449 78.1228 38.9237 78.0073 39.2145 78.0073H58.1892C58.48 78.0073 58.7589 78.1228 58.9645 78.3284C59.1701 78.534 59.2856 78.8129 59.2856 79.1036C59.2856 79.3944 59.1701 79.6733 58.9645 79.8789C58.7589 80.0845 58.48 80.2 58.1892 80.2V80.2Z" fill="#0052CC"/>
<path d="M55.5328 72.3992H39.2145C38.9237 72.3992 38.6449 72.2837 38.4393 72.0781C38.2337 71.8725 38.1182 71.5936 38.1182 71.3029C38.1182 71.0121 38.2337 70.7332 38.4393 70.5276C38.6449 70.322 38.9237 70.2065 39.2145 70.2065H55.5328C55.8235 70.2065 56.1024 70.322 56.308 70.5276C56.5136 70.7332 56.6291 71.0121 56.6291 71.3029C56.6291 71.5936 56.5136 71.8725 56.308 72.0781C56.1024 72.2837 55.8235 72.3992 55.5328 72.3992V72.3992Z" fill="#0052CC"/>
<path d="M39.2144 72.3993H23.3599C23.0691 72.3993 22.7903 72.2838 22.5847 72.0782C22.3791 71.8726 22.2636 71.5938 22.2636 71.303C22.2576 71.1575 22.2819 71.0122 22.3349 70.8765C22.3879 70.7408 22.4684 70.6176 22.5714 70.5146C22.6745 70.4116 22.7977 70.331 22.9334 70.278C23.0691 70.225 23.2143 70.2007 23.3599 70.2067H39.2144C39.3599 70.2007 39.5051 70.225 39.6408 70.278C39.7765 70.331 39.8998 70.4116 40.0028 70.5146C40.1058 70.6176 40.1864 70.7408 40.2394 70.8765C40.2923 71.0122 40.3166 71.1575 40.3107 71.303C40.3107 71.5938 40.1952 71.8726 39.9896 72.0782C39.784 72.2838 39.5051 72.3993 39.2144 72.3993V72.3993Z" fill="#57D9A3"/>
<path d="M53.7619 0C53.7507 3.85477 52.2145 7.54847 49.4888 10.2742C46.763 13 43.0693 14.5362 39.2145 14.5473C32.441 14.5585 25.948 17.2542 21.1584 22.0438C16.3687 26.8335 13.673 33.3264 13.6619 40.1H24.6672C24.6784 36.2452 26.2146 32.5515 28.9403 29.8258C31.6661 27.1 35.3598 25.5638 39.2145 25.5527C45.9881 25.5415 52.4811 22.8458 57.2707 18.0562C62.0603 13.2665 64.7561 6.77357 64.7672 0L53.7619 0Z" fill="url(#paint0_linear_2008_21717)"/>
<path d="M3.0782 29.938H2.86737C2.81761 29.916 2.77315 29.8836 2.73701 29.843C2.70087 29.8023 2.67389 29.7544 2.65789 29.7024C2.6419 29.6504 2.63727 29.5956 2.64431 29.5417C2.65135 29.4877 2.6699 29.4359 2.6987 29.3898L8.0538 18.7639C8.09983 18.6644 8.18281 18.5868 8.28514 18.5474C8.38747 18.508 8.50111 18.5101 8.60196 18.5531C8.70458 18.6073 8.78316 18.698 8.82219 18.8073C8.86122 18.9165 8.85787 19.0365 8.81279 19.1434L3.45769 29.7271C3.41404 29.7882 3.35734 29.8388 3.2917 29.8753C3.22607 29.9118 3.15313 29.9332 3.0782 29.938V29.938Z" fill="#4C9AFF"/>
<path d="M8.43318 21.9687C10.1099 21.9687 11.4691 20.6094 11.4691 18.9327C11.4691 17.256 10.1099 15.8967 8.43318 15.8967C6.75646 15.8967 5.39722 17.256 5.39722 18.9327C5.39722 20.6094 6.75646 21.9687 8.43318 21.9687Z" fill="white" stroke="#4C9AFF" stroke-width="2.81248" stroke-miterlimit="10" stroke-linecap="round"/>
<path d="M2.06614 11.0053C3.20724 11.0053 4.13228 10.0803 4.13228 8.93919C4.13228 7.79809 3.20724 6.87305 2.06614 6.87305C0.925043 6.87305 0 7.79809 0 8.93919C0 10.0803 0.925043 11.0053 2.06614 11.0053Z" fill="#4C9AFF"/>
<path d="M2.95164 31.7934C4.09274 31.7934 5.01778 30.8684 5.01778 29.7273C5.01778 28.5862 4.09274 27.6611 2.95164 27.6611C1.81054 27.6611 0.885498 28.5862 0.885498 29.7273C0.885498 30.8684 1.81054 31.7934 2.95164 31.7934Z" fill="#4C9AFF"/>
<path d="M68.1825 58.9903L67.9717 58.906C67.8862 58.8468 67.8231 58.7605 67.7925 58.6611C67.7619 58.5617 67.7656 58.4549 67.803 58.3578L73.2003 47.7741C73.2666 47.6852 73.3603 47.6205 73.467 47.59C73.5736 47.5595 73.6873 47.565 73.7906 47.6055C73.8417 47.6319 73.8868 47.6684 73.9233 47.7129C73.9597 47.7574 73.9866 47.8089 74.0024 47.8642C74.0182 47.9195 74.0226 47.9774 74.0151 48.0344C74.0077 48.0915 73.9887 48.1464 73.9593 48.1958L68.562 58.7373C68.5297 58.8114 68.4767 58.8747 68.4094 58.9196C68.3421 58.9644 68.2634 58.989 68.1825 58.9903Z" fill="#4C9AFF"/>
<path d="M73.5799 51.0211C75.2566 51.0211 76.6159 49.6619 76.6159 47.9852C76.6159 46.3085 75.2566 44.9492 73.5799 44.9492C71.9032 44.9492 70.5439 46.3085 70.5439 47.9852C70.5439 49.6619 71.9032 51.0211 73.5799 51.0211Z" fill="white" stroke="#4C9AFF" stroke-width="2.81248" stroke-miterlimit="10" stroke-linecap="round"/>
<path d="M68.0984 60.8034C69.2395 60.8034 70.1645 59.8784 70.1645 58.7373C70.1645 57.5962 69.2395 56.6711 68.0984 56.6711C66.9573 56.6711 66.0322 57.5962 66.0322 58.7373C66.0322 59.8784 66.9573 60.8034 68.0984 60.8034Z" fill="#4C9AFF"/>
</g>
<defs>
<linearGradient id="paint0_linear_2008_21717" x1="39.223" y1="40.1042" x2="39.223" y2="0" gradientUnits="userSpaceOnUse">
<stop stop-color="#0052CC"/>
<stop offset="0.97" stop-color="#2684FF"/>
</linearGradient>
<clipPath id="clip0_2008_21717">
<rect width="78.0495" height="80.2" fill="white"/>
</clipPath>
</defs>
</svg>
