<?xml version="1.0" encoding="UTF-8" standalone="no"?>
<svg width="40px" height="40px" viewBox="0 0 40 40" version="1.1" xmlns="http://www.w3.org/2000/svg" xmlns:xlink="http://www.w3.org/1999/xlink">
    <!-- Generator: Sketch 39.1 (31720) - http://www.bohemiancoding.com/sketch -->
    <title>Email-play-icon-01</title>
    <desc>Created with Sketch.</desc>
    <defs></defs>
    <g id="v4" stroke="none" stroke-width="1" fill="none" fill-rule="evenodd">
        <g id="Leadership-Team-HM-Copy-4" transform="translate(-602.000000, -6138.000000)" fill="#4AC6C6">
            <g id="LinkedIn-round-adg3-blue-01" transform="translate(438.000000, 6138.000000)">
                <g id="Layer_1">
                    <g id="Group">
                        <g id="Group-21">
                            <g id="Email-play-icon-01" transform="translate(164.000000, 0.000000)">
                                <g id="Layer_1">
                                    <path d="M19.7,0.6 C8.8,0.6 0,9.4 0,20.3 C0,31.2 8.8,40 19.7,40 C30.6,40 39.4,31.2 39.4,20.3 C39.4,9.4 30.6,0.6 19.7,0.6 L19.7,0.6 Z M31.3,10.7 L31.9,10.7 L19.6,20.7 L7.3,10.7 L31.3,10.7 L31.3,10.7 Z M18.3,24.9 L18.3,27.3 L9,27.3 C8,27.3 7.2,26.5 7.2,25.5 C7.2,25.5 7.1,12.1 7.2,11.9 L19.6,21.7 L32,11.8 C32.1,12 32,24.8 32,24.8 L28,21.1 C27.8,20.9 27.5,20.8 27.2,21 C26.9,21.1 26.8,21.4 26.8,21.7 L26.8,24.2 L19.1,24.2 C18.6,24.2 18.3,24.5 18.3,24.9 L18.3,24.9 Z M27.9,34 C27.7,34.2 27.3,34 27.3,33.7 L27.3,31.2 C27.3,31 27.1,30.8 26.9,30.8 L19.4,30.8 C19.2,30.8 19,30.6 19,30.4 L19,25.2 C19,25 19.2,24.8 19.4,24.8 L26.9,24.8 C27.1,24.8 27.3,24.6 27.3,24.4 L27.3,21.9 C27.3,21.6 27.7,21.4 27.9,21.6 L34.1,27.4 C34.3,27.5 34.3,27.8 34.1,28 L27.9,34 L27.9,34 Z" id="Shape"></path>
                                </g>
                            </g>
                        </g>
                    </g>
                </g>
            </g>
        </g>
    </g>
</svg>
