<svg width="149" height="154" viewBox="0 0 149 154" fill="none" xmlns="http://www.w3.org/2000/svg">
    <path d="M75 154C116.421 154 150 120.421 150 79C150 37.5786 116.421 4 75 4C33.5786 4 0 37.5786 0 79C0 120.421 33.5786 154 75 154Z" fill="url(#paint0_linear_116_2)"/>
    <path d="M119 30H33C30.2386 30 28 32.2386 28 35V140C28 142.761 30.2386 145 33 145H119C121.761 145 124 142.761 124 140V35C124 32.2386 121.761 30 119 30Z" fill="white"/>
    <path d="M116.208 71H95.792C95.0232 71 93.5 72.3431 93.5 74C93.5 75.6569 95.0232 77 95.792 77H116.208C116.977 77 118.5 75.6569 118.5 74C118.5 72.3431 116.977 71 116.208 71Z" fill="#DFEAFB"/>
    <path d="M82.3438 71H37.6562C34.8085 71 34 72.343 34 74C34 75.657 34.8085 77 37.6562 77H82.3438C85.1915 77 86 75.657 86 74C86 72.343 85.1915 71 82.3438 71Z" fill="#B4DAFF"/>
    <path d="M74.48 108H37.52C36.1282 108 35 109.343 35 111C35 112.657 36.1282 114 37.52 114H74.48C75.8718 114 77 112.657 77 111C77 109.343 75.8718 108 74.48 108Z" fill="#DFEAFB"/>
    <path d="M116.219 108H100.781C99.7975 108 98.5 109.343 98.5 111C98.5 112.657 99.7975 114 100.781 114H116.219C117.203 114 118.5 112.657 118.5 111C118.5 109.343 117.203 108 116.219 108Z" fill="#B4DAFF"/>
    <path d="M73.48 96H36.52C35.1282 96 34 97.343 34 99C34 100.657 35.1282 102 36.52 102H73.48C74.8718 102 76 100.657 76 99C76 97.343 74.8718 96 73.48 96Z" fill="#DFEAFB"/>
    <path d="M116.219 96H100.781C99.7975 96 98.5 97.343 98.5 99C98.5 100.657 99.7975 102 100.781 102H116.219C117.203 102 118.5 100.657 118.5 99C118.5 97.343 117.203 96 116.219 96Z" fill="#B4DAFF"/>
    <path d="M99 134H55C53.3431 134 52 135.343 52 137C52 138.657 53.3431 140 55 140H99C100.657 140 102 138.657 102 137C102 135.343 100.657 134 99 134Z" fill="#DFEAFB"/>
    <path d="M128.792 0H39.2083C34.5 0.5 34 3.63772 34 8.125V56.875C34 61.3623 34 65 39.2083 65H128.792C134 65 134 62.5 134 56.875V8.125C134 3.63772 134 0 128.792 0Z" fill="#1485FD"/>
    <path d="M90 21H46C44.3431 21 43 22.3431 43 24C43 25.6569 44.3431 27 46 27H90C91.6569 27 93 25.6569 93 24C93 22.3431 91.6569 21 90 21Z" fill="white"/>
    <path d="M72 10H46C44.3431 10 43 11.3431 43 13C43 14.6569 44.3431 16 46 16H72C73.6569 16 75 14.6569 75 13C75 11.3431 73.6569 10 72 10Z" fill="#B4DAFF"/>
    <defs>
        <linearGradient id="paint0_linear_116_2" x1="75" y1="4" x2="75" y2="154" gradientUnits="userSpaceOnUse">
            <stop stop-color="#E3ECFA"/>
            <stop offset="1" stop-color="#DAE7FF"/>
        </linearGradient>
    </defs>
</svg>