<svg width="84" height="81" viewBox="0 0 84 81" fill="none" xmlns="http://www.w3.org/2000/svg">
<g clip-path="url(#clip0_2008_21690)">
<rect width="83.8593" height="80.3" fill="white" fill-opacity="0.01"/>
<path d="M41.8906 57.6142H42.4382V57.4578C43.1489 55.5703 43.5069 53.5684 43.4943 51.5516C43.4911 49.7057 43.2008 47.8715 42.6338 46.1148H41.8515C40.7881 46.1075 39.7276 46.0028 38.6833 45.8019V45.8019L38.214 45.6846H37.9402L37.5099 45.5673L37.1579 45.489L36.7668 45.3717L36.3756 45.2543L36.0236 45.137L35.6325 44.9806L35.2804 44.8241L34.8893 44.6676L34.5764 44.5112L34.1853 44.3156L33.8724 44.1592L33.4812 43.9636L33.2074 43.8071L32.7381 43.5334L32.5425 43.416H32.5034L31.5647 42.7511L31.4082 42.6337C31.0953 42.4328 30.8066 42.1966 30.5477 41.9297L30.3913 41.8124L29.5699 41.0301L29.4525 40.9128L28.6703 40.0523H28.6311C27.2807 38.4419 26.2337 36.5998 25.5412 34.6155C21.61 35.367 18.059 37.4534 15.489 40.5216C17.7913 45.677 21.5417 50.0525 26.2843 53.1162L27.0666 53.6246L27.2231 53.7029L27.888 54.094L28.0836 54.2113L28.7094 54.5242L28.9441 54.6416L29.609 54.9936H29.7654C30.3377 55.2743 30.9253 55.5224 31.5255 55.7368L31.7211 55.815L32.386 56.0888L32.699 56.167L33.2857 56.3626L33.5986 56.4799L34.6937 56.7928H34.9284L35.9454 57.0275H36.1409L37.3143 57.2231H37.549L38.7224 57.3795H38.7615C38.7178 57.2459 38.6656 57.1153 38.6051 56.9884C38.6656 57.1153 38.7178 57.2459 38.7615 57.3795V57.3795C39.7869 57.5043 40.8186 57.5696 41.8515 57.5751L41.8906 57.6142Z" fill="#0065FF"/>
<path d="M18.0704 24.7588L19.0482 24.4068C21.1777 23.6191 23.3991 23.1065 25.6584 22.8814V22.8814C26.87 19.5484 29.0772 16.6686 31.9809 14.6325C34.8845 12.5965 38.3441 11.5026 41.8905 11.4994H41.9296C45.47 11.5053 48.9237 12.5956 51.8257 14.6235C54.7278 16.6515 56.939 19.5197 58.1617 22.8423V22.8423L58.3964 23.5463C58.4042 23.6295 58.431 23.7098 58.4746 23.781L58.592 24.2895C58.6232 24.3792 58.6493 24.4706 58.6702 24.5633L58.7875 24.9935C58.7875 25.1109 58.8266 25.1891 58.8266 25.3064L58.944 25.7367C58.9376 25.8425 58.9509 25.9486 58.9831 26.0496C59.0222 26.206 59.0222 26.3234 59.0613 26.4798C59.0552 26.5985 59.0684 26.7174 59.1004 26.8319C59.094 26.9635 59.1072 27.0953 59.1396 27.223V27.575C59.1719 27.716 59.1851 27.8607 59.1787 28.0053V28.3573C59.1787 28.5137 59.2178 28.6311 59.2178 28.7484C59.2178 28.944 59.1787 29.1396 59.1787 29.296V29.4525C59.1862 29.7008 59.1731 29.9494 59.1396 30.1956C59.1456 30.2632 59.1321 30.3311 59.1004 30.3912C59.1069 30.5616 59.0938 30.7322 59.0613 30.8997C59.0613 31.017 59.0222 31.0952 59.0222 31.1735C59.0222 31.2517 58.9831 31.4473 58.9831 31.6037H58.944C58.8976 31.9202 58.8323 32.2337 58.7484 32.5424C58.7393 32.6083 58.7262 32.6736 58.7093 32.738C58.6311 33.09 58.5137 33.4029 58.4355 33.7158H58.3964C58.3567 33.8889 58.3044 34.0589 58.2399 34.2243V34.2243C57.578 36.2932 56.5294 38.2178 55.15 39.8958C55.5411 40.7954 55.8931 41.695 56.206 42.6337L56.3234 43.0248C57.0025 45.2774 57.4224 47.6002 57.575 49.9479C57.575 50.4564 57.6141 50.9649 57.6141 51.5125C57.6141 52.0601 57.575 52.4903 57.575 52.9597C62.2962 49.8931 66.0206 45.5162 68.2921 40.3651V40.3651C68.4486 39.9349 68.6441 39.5437 68.8006 39.1135L68.8788 38.9179C69.0092 38.605 69.1265 38.253 69.2308 37.8619L69.3482 37.549C69.4655 37.1187 69.622 36.6885 69.7002 36.2582C69.75 36.1754 69.777 36.081 69.7784 35.9844C69.8567 35.6715 69.974 35.3195 70.0522 34.9675C70.0591 34.8084 70.0854 34.6508 70.1305 34.4981C70.1696 34.2243 70.2478 33.9114 70.2869 33.5985C70.332 33.4458 70.3583 33.2882 70.3651 33.1291C70.4364 32.7802 70.4886 32.4277 70.5216 32.0731C70.5176 31.9673 70.5308 31.8617 70.5607 31.7602C70.5998 31.3299 70.6389 30.8605 70.6389 30.3912C70.6711 30.2902 70.6844 30.1841 70.678 30.0783C70.678 29.648 70.7172 29.2178 70.7172 28.7875C70.7172 28.3573 70.678 27.8097 70.678 27.3012C70.2878 19.9369 67.0899 13.0021 61.7424 7.92377C56.3948 2.84541 49.3043 0.0096804 41.9296 0L41.8905 0C34.5094 0.0102127 27.4134 2.85136 22.0649 7.93796C16.7163 13.0246 13.5227 19.969 13.1421 27.3403V27.3403C13.9454 26.806 14.7815 26.3226 15.6454 25.8931C16.4276 25.4629 17.249 25.1109 18.0704 24.7588Z" fill="#2684FF"/>
<path d="M44.3939 45.9193H42.6729C43.2399 47.6759 43.5302 49.5101 43.5334 51.356C43.546 53.3728 43.188 55.3747 42.4773 57.2622V57.4186H43.6507L45.0588 57.3013H45.0979C45.137 57.1448 45.2152 56.9884 45.2544 56.8319C45.2935 56.6755 45.2935 56.6755 45.3326 56.5972L45.6846 55.3847C45.6789 55.3045 45.6923 55.2241 45.7237 55.15C45.7179 55.0949 45.7317 55.0395 45.7628 54.9936C45.8411 54.6024 45.9193 54.2113 45.9584 53.8593C45.9975 53.5073 45.9975 53.4682 46.0366 53.3117C46.1146 52.6758 46.1538 52.0358 46.154 51.3951C46.1577 49.4496 45.8269 47.518 45.1761 45.6846V45.6846L44.3939 45.9193Z" fill="#0747A6"/>
<path d="M55.8149 34.2245H55.7758C56.362 32.4724 56.6528 30.6351 56.6363 28.7877C56.6388 26.7624 56.2948 24.7517 55.6193 22.8424L55.5411 22.7251H55.0717C50.5579 22.7341 46.1089 23.8001 42.0811 25.8378C38.0534 27.8754 34.5588 30.8281 31.8774 34.4591C30.6125 36.1693 29.5494 38.0199 28.7092 39.9741L29.4915 40.8346L29.6088 40.952L30.4302 41.7343L30.5867 41.8516C30.8456 42.1185 31.1343 42.3547 31.4472 42.5556L31.6036 42.673L32.5423 43.3379L32.777 43.4944L33.2464 43.7682L33.5202 43.9246L33.9113 44.1202L34.2242 44.2766L34.6154 44.4722L34.9283 44.6287L35.3194 44.7851L35.6714 44.9416L36.0626 45.098L36.4146 45.2154L36.8057 45.3327L37.1969 45.45L37.5489 45.5283L37.9791 45.6456H38.2529L38.7223 45.7629C39.4642 43.741 40.5492 41.8621 41.9296 40.2088C44.5338 37.1909 48.0969 35.1608 52.0209 34.4591C53.0289 34.287 54.0491 34.1954 55.0717 34.1854L55.8149 34.2245Z" fill="#C1C7D0"/>
<path d="M56.2453 22.7251H55.5413L55.6195 22.8424C56.295 24.7517 56.639 26.7624 56.6364 28.7877C56.653 30.6351 56.3622 32.4724 55.7759 34.2245H55.8151L56.9102 34.3027H57.1449L58.2401 34.4591C58.3183 34.2636 58.3574 34.068 58.4357 33.8724C58.5139 33.6769 58.6312 33.2466 58.7095 32.8946C58.7264 32.8302 58.7394 32.7649 58.7486 32.699C58.8324 32.3903 58.8977 32.0768 58.9441 31.7603C58.9832 31.5647 58.9832 31.4083 59.0224 31.2127C59.0615 31.0172 59.0615 31.0563 59.0615 30.9389C59.0939 30.7715 59.107 30.6009 59.1006 30.4305C59.1322 30.3704 59.1458 30.3025 59.1397 30.2349C59.1732 29.9887 59.1863 29.7401 59.1788 29.4917V29.3353C59.1788 29.1397 59.2179 28.9441 59.2179 28.7486C59.2179 28.553 59.1788 28.4748 59.1788 28.3183V27.9663C59.1852 27.8218 59.1721 27.6771 59.1397 27.5361V27.184C59.1074 27.0563 59.0942 26.9245 59.1006 26.7929C59.0685 26.6785 59.0553 26.5596 59.0615 26.4409C59.0224 26.2844 59.0224 26.1671 58.9832 26.0106C58.951 25.9096 58.9378 25.8035 58.9441 25.6977L58.8268 25.2675C58.8268 25.1501 58.7877 25.0719 58.7877 24.9546L58.6703 24.5243C58.6495 24.4316 58.6234 24.3402 58.5921 24.2505L58.4748 23.742C58.4311 23.6708 58.4044 23.5905 58.3965 23.5074L58.1619 22.8033L56.7147 22.7251H56.2453Z" fill="#A9B0BB"/>
<path d="M70.6782 27.3013C70.6782 27.8097 70.7173 28.3182 70.7173 28.7876C70.7173 29.2569 70.6782 29.6481 70.6782 30.0783C70.6845 30.1841 70.6713 30.2902 70.6391 30.3912C70.6391 30.8606 70.6 31.33 70.5608 31.7602C70.531 31.8617 70.5178 31.9674 70.5217 32.0731C70.4888 32.4277 70.4365 32.7803 70.3653 33.1292C70.3584 33.2882 70.3321 33.4459 70.2871 33.5985C70.2479 33.9114 70.1697 34.2244 70.1306 34.4982C70.0855 34.6508 70.0592 34.8085 70.0524 34.9675C69.9741 35.3195 69.8568 35.6716 69.7786 35.9845C69.7771 36.081 69.7501 36.1755 69.7003 36.2583C69.6221 36.6885 69.4657 37.1188 69.3483 37.549L69.231 37.8619C69.1006 38.253 68.9833 38.6051 68.879 38.918L68.8007 39.1135C68.6443 39.5438 68.4487 39.9349 68.2923 40.3652C70.417 42.8839 71.7777 45.9575 72.214 49.2237C72.6502 52.49 72.1439 55.8129 70.7547 58.801C69.3654 61.7891 67.1511 64.3179 64.3726 66.0896C61.5941 67.8612 58.3672 68.8018 55.0719 68.8007C54.0484 68.8102 53.0265 68.7185 52.0211 68.5269C49.0427 67.994 46.257 66.6871 43.9433 64.7374C41.6297 62.7876 39.8697 60.2636 38.8398 57.4187H38.7616L37.5882 57.2622H37.3535L36.1801 57.0666H35.9845L34.9676 56.832H34.7329L33.6377 56.519L33.3248 56.4017L32.7381 56.2061L32.4252 56.1279L31.7603 55.8541L31.5647 55.7759C30.9644 55.5616 30.3768 55.3135 29.8046 55.0327H29.6481L28.9832 54.6807L28.7485 54.5634L28.1227 54.2505L27.9271 54.1331L27.2622 53.742L27.1058 53.6638L26.3235 53.1553C26.5933 58.7677 28.5267 64.173 31.8776 68.6833C34.4034 72.0354 37.6316 74.7946 41.3361 76.7676C45.0405 78.7407 49.1316 79.8798 53.3227 80.1053C57.5137 80.3307 61.7034 79.6369 65.5981 78.0727C69.4929 76.5084 72.9984 74.1113 75.8692 71.0496C78.74 67.9878 80.9065 64.3353 82.2171 60.348C83.5276 56.3607 83.9504 52.1351 83.4559 47.9672C82.9613 43.7994 81.5614 39.79 79.3541 36.2201C77.1469 32.6503 74.1858 29.6062 70.6782 27.3013Z" fill="#C1C7D0"/>
<path d="M57.5751 52.9597C57.5751 52.4903 57.6142 51.9818 57.6142 51.5125C57.6142 51.0431 57.5751 50.4564 57.5751 49.9479C57.4225 47.6001 57.0025 45.2774 56.3235 43.0248L56.2061 42.6337C55.8932 41.695 55.5412 40.7954 55.15 39.8958C54.2927 37.9828 53.2444 36.1613 52.021 34.459C48.0917 35.171 44.5279 37.2154 41.9297 40.2478C43.346 41.8757 44.435 43.7615 45.137 45.8019V45.8019C45.7878 47.6353 46.1185 49.567 46.1148 51.5125C46.1147 52.1531 46.0755 52.7932 45.9975 53.429C45.9584 53.5855 45.9584 53.781 45.9193 53.9766C45.8802 54.1722 45.8019 54.7198 45.7237 55.1109C45.6926 55.1568 45.6787 55.2122 45.6846 55.2674C45.6532 55.3414 45.6398 55.4218 45.6455 55.502L45.2935 56.7146C45.2543 56.7928 45.2543 56.871 45.2152 56.9492C45.1761 57.0275 45.0979 57.2622 45.0588 57.4186C44.3417 59.3643 43.2819 61.1659 41.9297 62.738C44.5174 65.7831 48.0861 67.8303 52.021 68.5268C55.3501 63.9901 57.2807 58.5792 57.5751 52.9597V52.9597Z" fill="#57D9A3"/>
<path d="M29.2177 69.6221L28.631 68.8007H28.7875C24.4559 68.8373 20.2685 67.2465 17.0538 64.3432C13.8391 61.4398 11.8315 57.4355 11.4282 53.1226C11.025 48.8097 12.2555 44.5026 14.8762 41.0536C17.4969 37.6046 21.3169 35.2652 25.5802 34.4982V34.4982C26.637 34.2933 27.7109 34.1886 28.7875 34.1853H28.1616L28.2399 34.0679C30.8791 30.4599 34.3202 27.5142 38.292 25.4629L39.7001 24.798C36.2337 23.3937 32.5275 22.6763 28.7875 22.6859C27.7416 22.6913 26.6968 22.7566 25.6584 22.8815C23.399 23.1065 21.1777 23.6192 19.0482 24.4069L18.0704 24.7589C17.249 25.1109 16.4276 25.4629 15.6453 25.8932C14.7814 26.3227 13.9454 26.8061 13.1421 27.3404V27.3404C7.92462 30.715 3.93909 35.6871 1.78094 41.5139C-0.377216 47.3408 -0.592131 53.7095 1.1683 59.6685C2.92873 65.6276 6.57 70.8571 11.5481 74.5757C16.5262 78.2943 22.5738 80.3025 28.7875 80.3001C32.419 80.3138 36.0187 79.6231 39.3872 78.2662H39.2699C35.2939 76.2037 31.8524 73.2443 29.2177 69.6221V69.6221Z" fill="#57D9A3"/>
<path d="M31.8775 68.5269C30.8586 68.7166 29.8239 68.8082 28.7876 68.8006H28.6311L29.2178 69.622C31.857 73.23 35.2982 76.1757 39.27 78.227H39.4655L40.5998 77.7576L40.7954 77.6794L41.9297 77.1318C37.9579 75.0806 34.5167 72.1348 31.8775 68.5269V68.5269Z" fill="#36B37E"/>
<path d="M41.9296 25.8932L40.9517 25.3847L40.6779 25.2674L39.7392 24.8763C39.7392 24.8659 39.7351 24.8559 39.7278 24.8486C39.7204 24.8413 39.7105 24.8372 39.7001 24.8372L38.292 25.5021C34.3202 27.5534 30.8791 30.4991 28.2398 34.1071L28.1616 34.2244H28.7874C29.8229 34.2363 30.856 34.3278 31.8774 34.4982C34.5135 30.8873 37.9553 27.9409 41.9296 25.8932V25.8932Z" fill="#36B37E"/>
</g>
<defs>
<clipPath id="clip0_2008_21690">
<rect width="83.8593" height="80.3" fill="white"/>
</clipPath>
</defs>
</svg>
