<svg width="278" height="497" viewBox="0 0 278 497" fill="none" xmlns="http://www.w3.org/2000/svg">
<mask id="mask0_1879_15543" style="mask-type:alpha" maskUnits="userSpaceOnUse" x="-2" y="0" width="281" height="497">
<path d="M-1 6C-1 2.6863 1.68629 0 5 0L272 0C275.314 0 278 2.68629 278 6L278 497L-1.00015 497L-1 6Z" fill="white"/>
</mask>
<g mask="url(#mask0_1879_15543)">
<mask id="mask1_1879_15543" style="mask-type:alpha" maskUnits="userSpaceOnUse" x="-1" y="0" width="302" height="497">
<rect x="-0.00012207" width="301" height="497" fill="url(#paint0_linear_1879_15543)"/>
</mask>
<g mask="url(#mask1_1879_15543)">
<path opacity="0.2" d="M376.344 10.2943L-293 10.2943" stroke="url(#paint1_linear_1879_15543)"/>
<path opacity="0.2" d="M376.344 104.986L-293 104.986" stroke="url(#paint2_linear_1879_15543)"/>
<path opacity="0.2" d="M376.344 199.679L-293 199.679" stroke="url(#paint3_linear_1879_15543)"/>
<path opacity="0.2" d="M376.344 294.371L-293 294.371" stroke="url(#paint4_linear_1879_15543)"/>
<path opacity="0.2" d="M376.344 389.063L-293 389.063" stroke="url(#paint5_linear_1879_15543)"/>
<path opacity="0.2" d="M376.344 483.755L-293 483.754" stroke="url(#paint6_linear_1879_15543)"/>
<path opacity="0.2" d="M277.951 1154L277.951 -805" stroke="#A5ADBA"/>
<path opacity="0.2" d="M183.954 1154L183.954 -805" stroke="#A5ADBA"/>
<path opacity="0.2" d="M89.9567 1154L89.9568 -805" stroke="#A5ADBA"/>
<g filter="url(#filter0_d_1879_15543)">
<path d="M-22.3109 -17.782C-43.0252 10.9838 -72.7184 29.7576 -98.9453 46.2677C-128.639 64.9635 -154.323 81.2004 -158.457 106.531C-158.875 108.873 -159 111.293 -159 113.713C-159 133.268 -146.931 156.491 -121.539 185.959C-102.453 208.051 -85.1637 226.434 -69.8368 242.671C-37.4708 276.901 -14.1255 301.686 -6.56643 329.047C1.20142 356.993 -6.98406 387.671 -34.7145 434.899C-57.3916 473.461 -72.969 519.479 -77.4794 561.047C-79.6093 580.406 -79.1916 597.97 -76.1847 611.904C-73.0525 626.619 -67.4146 636.923 -59.3127 642.465C-48.2038 650.037 -27.573 651.872 7.75816 617.446C50.0637 576.269 55.1587 529.432 60.5461 479.823C64.0959 446.998 67.8128 413.002 82.5968 378.694C99.3018 339.858 128.285 306.214 171.134 275.691C202.79 253.171 217.782 226.864 214.441 199.581C212.186 181.002 201.704 162.736 183.37 145.289C164.827 127.803 139.31 111.996 107.446 98.4911C83.8079 88.4211 71.6968 77.3754 70.4439 64.4561C67.7711 36.51 118.053 4.19238 166.665 -26.9933C190.971 -42.6057 216.028 -58.6864 234.028 -74.0256C243.508 -81.9879 250.357 -89.2477 254.951 -96L252.445 -96C237.327 -74.533 201.077 -51.2706 165.663 -28.5155C141.273 -12.8641 116.007 3.37272 97.6313 18.9851C78.0029 35.6513 68.3975 49.9366 68.3975 62.4655C68.3975 63.2462 68.4811 63.9878 68.5228 64.7684C69.8175 78.3902 82.2627 90.0214 106.652 100.365C138.308 113.791 163.658 129.404 181.992 146.772C200.033 163.907 210.307 181.783 212.52 199.932C215.736 226.474 200.994 252.234 169.964 274.325C126.782 305.004 97.6313 339 80.801 378.07C65.8917 412.651 62.2166 446.764 58.5833 479.706C53.1959 528.963 48.1426 575.488 6.33822 616.236C-28.0742 649.725 -47.6609 648.203 -58.1015 641.06C-73.3031 630.639 -79.7763 600.819 -75.4748 561.359C-70.9644 520.064 -55.4705 474.281 -32.9186 435.913C-4.93768 388.257 3.24778 357.188 -4.64535 328.656C-12.3297 300.827 -35.842 275.965 -68.3751 241.5C-83.702 225.264 -100.992 206.919 -119.994 184.867C-148.183 152.159 -159.752 127.374 -156.411 106.883C-152.443 82.3713 -127.135 66.4077 -97.776 47.868C-71.4238 31.2408 -41.6052 12.4279 -20.5986 -16.6892C-3.22538 -40.8103 5.50301 -63.7995 5.50301 -85.2275C5.50301 -88.8573 5.21065 -92.4092 4.75126 -96L2.70488 -96C6.08766 -71.8789 -2.22307 -45.6501 -22.3109 -17.782Z" fill="#B3F5FF"/>
<path d="M-120.596 115.268C-121.055 116.984 -121.264 118.779 -121.264 120.612C-121.264 139.494 -97.5366 162.588 -70.3901 188.999C-52.0422 206.866 -31.2757 227.113 -15.3882 248.491C2.75122 272.991 11.675 295.305 12.0086 316.8C12.4256 345.318 14.2604 369.076 17.2627 385.577C20.3902 402.547 24.6853 411.481 30.0645 412.105C36.9867 412.924 44.0756 400.519 51.7484 374.264C63.9247 332.639 84.983 313.718 111.671 289.648C129.018 274.005 148.742 256.294 169.008 229.025C174.387 221.847 176.097 213.498 174.095 204.409C167.965 176.086 126.766 139.26 51.6233 94.9036C30.5233 82.42 6.67103 74.5006 -17.3897 71.7308C-44.1192 68.7269 -67.9715 71.4187 -86.4861 79.3771C-104.667 87.2574 -116.51 99.663 -120.596 115.268ZM-17.7233 73.7204C6.08721 76.3732 29.6892 84.2925 50.4974 96.5421C125.182 140.664 166.047 177.101 172.01 204.838C172.469 207.139 172.761 209.402 172.761 211.587C172.761 217.555 170.926 223.056 167.257 228.01C147.074 255.162 127.475 272.796 110.211 288.4C83.3567 312.587 62.1316 331.742 49.7468 373.835C46.4942 385.109 37.9875 411.169 30.2313 410.272C27.771 409.96 23.1007 406.332 19.2226 385.265C16.2202 368.92 14.3854 345.24 13.9684 316.8C13.6348 294.915 4.50264 272.21 -13.8452 247.399C-29.8162 225.826 -50.6244 205.54 -69.0556 187.673C-95.8686 161.574 -119.304 138.752 -119.304 120.69C-119.304 119.052 -119.095 117.374 -118.678 115.775C-114.717 100.755 -103.291 88.8178 -85.6938 81.2106C-67.5545 73.4083 -44.0358 70.7946 -17.7233 73.7204Z" fill="#79E2F2"/>
<path d="M-20.6572 476.63C-25.9094 496.696 -33.5793 530.712 -38.2063 560.52C-40.7073 576.963 -41.9995 589.821 -41.9995 599.172C-41.9995 610.082 -40.2488 616.2 -36.7473 617.719C-32.9957 619.317 -27.9936 615.732 -21.2408 606.848C-20.0736 605.64 3.43625 580.937 22.6527 550.662C34.1992 532.504 41.9525 515.906 45.704 501.372C50.456 483.02 48.747 467.902 40.827 456.251C26.1959 434.977 15.1495 425.703 5.93731 427.145C-4.27531 428.743 -11.9452 443.081 -20.6572 476.63ZM39.0762 457.264C43.8282 464.239 46.2876 472.577 46.2876 482.241C46.2876 488.007 45.4122 494.242 43.7032 500.904C40.035 515.282 32.3651 531.647 20.9436 549.649C1.43542 580.352 -22.5747 605.329 -22.7831 605.562L-22.8665 605.64C-30.7448 616.044 -34.413 616.511 -35.9136 615.888C-47.0016 611.173 -32.9957 532.193 -18.6564 477.058C-12.7372 454.303 -5.109 430.808 6.35416 429.015C14.3992 427.769 25.1537 437.003 39.0762 457.264Z" fill="#B3F5FF"/>
<path d="M-14.8781 513.635C-16.8269 521.259 -19.7294 534.171 -21.5123 545.49C-22.5074 552.257 -22.922 556.963 -22.922 560.269C-22.922 565.87 -21.761 567.309 -20.5586 567.815C-18.3196 568.748 -15.8318 566.026 -13.9244 563.498C-13.261 562.798 -4.47075 553.463 2.70244 542.106C12.861 526.12 15.1415 513.83 9.54393 505.701C3.7805 497.261 -0.448755 493.76 -4.2634 494.422C-9.11464 495.238 -12.0171 502.667 -14.8781 513.635ZM7.76103 506.79C9.58543 509.435 10.4147 512.546 10.4147 515.93C10.4147 535.066 -15.2927 561.981 -15.5415 562.292L-15.6244 562.37C-18.7342 566.415 -19.7293 566.065 -19.7293 566.065C-22.5074 564.859 -20.1854 542.417 -12.8464 514.063C-10.6903 505.623 -7.91223 496.95 -3.93172 496.288C-1.19513 495.861 2.7854 499.439 7.76103 506.79Z" fill="#B3F5FF"/>
<path d="M98.1131 237.205C109.224 230.558 115.913 222.317 117.901 212.652L117.901 212.651C120.294 200.928 115.493 187.354 103.988 172.309L103.987 172.308C84.6157 147.141 50.1544 125.338 16.7198 111.871C-0.00370821 105.136 -16.4942 100.476 -30.7423 98.5254C-44.9673 96.5781 -57.0452 97.3189 -64.8753 101.483L-64.877 101.484C-69.8075 104.131 -74.5 108.776 -74.5 117.337C-74.5 121.514 -73.3611 126.609 -70.6337 132.765L-70.633 132.766C-47.1145 185.387 -11.4056 209.575 23.0311 232.901L23.215 233.026L23.2175 233.028L26.0029 234.938L26.0051 234.94C36.4794 242.044 48.8382 246.048 61.7162 246.464C74.6719 246.879 87.2336 243.744 98.1131 237.205ZM98.1131 237.205C98.1129 237.205 98.1128 237.205 98.1126 237.205L97.8559 236.776L98.1135 237.205C98.1134 237.205 98.1132 237.205 98.1131 237.205ZM15.3858 114.501L15.3861 114.501C51.8946 129.142 84.109 151.447 101.482 174.042C110.812 186.191 115.477 197.072 115.477 206.626C115.477 208.503 115.282 210.343 114.891 212.145L114.89 212.15C113.095 220.895 106.921 228.556 96.4838 234.81C86.1736 240.984 74.2017 244.036 61.83 243.589L61.8286 243.589C49.5354 243.18 37.7191 239.346 27.7223 232.538L24.9357 230.626L24.9329 230.624C-9.35467 207.452 -44.6516 183.556 -67.888 131.571L-67.8886 131.569C-70.9961 124.674 -72.1198 118.939 -71.3659 114.352C-70.6173 109.798 -68.0081 106.314 -63.491 103.904C-56.683 100.341 -45.5529 99.5264 -31.7739 101.356C-18.0185 103.182 -1.71015 107.631 15.3858 114.501Z" stroke="#79E2F2" stroke-opacity="0.4"/>
<path d="M-26.3528 142.647C-26.3528 145.249 -25.6039 148.472 -23.8564 152.394C-9.21122 184.819 6.68217 200.081 27.485 214.06C40.5908 222.875 57.6908 223.38 71.1295 215.458C77.9112 211.458 81.9053 206.449 83.0703 200.702C84.4849 193.673 81.6557 185.557 74.6659 176.509C64.0981 162.84 45.3755 149.326 24.7391 140.356C4.85153 131.735 -12.6645 129.095 -20.944 133.444C-23.7316 134.92 -26.3528 137.638 -26.3528 142.647ZM23.8238 142.142C44.169 150.996 62.5587 164.316 72.9601 177.674C78.5353 184.897 81.3645 191.343 81.3645 197.129C81.3645 198.255 81.2397 199.343 81.0316 200.43C79.9499 205.672 76.2053 210.177 69.9645 213.905C57.2747 221.438 41.0485 220.934 28.65 212.585C8.09678 198.76 -7.5886 183.771 -22.0258 151.734C-25.7703 143.424 -25.063 137.871 -19.9871 135.191C-12.3316 131.114 4.89315 133.832 23.8238 142.142Z" fill="#B3F5FF" fill-opacity="0.3"/>
<path d="M-13 154.532C-13 155.687 -12.6747 157.116 -11.8288 158.821C-5.25743 172.074 1.96457 178.288 11.3988 184.007C17.5798 187.746 25.7127 188.021 31.9588 184.612C35.277 182.797 37.1638 180.652 37.8145 178.068C38.5302 175.043 37.1638 171.414 33.9107 167.564C23.8259 155.796 -1.22355 145.788 -10.0071 149.967C-11.3084 150.572 -13 151.892 -13 154.532ZM31.3081 169.104C33.6504 171.799 34.8216 174.218 34.8216 176.363C34.8216 176.748 34.8216 177.188 34.6915 177.518C34.236 179.332 32.8046 180.927 30.3322 182.247C25.1271 185.051 18.3606 184.831 13.2206 181.697C4.17676 176.253 -2.58985 170.314 -8.83593 157.666C-10.2023 154.862 -10.1372 152.992 -8.38052 152.222C-2.1995 149.308 21.0281 157.171 31.3081 169.104Z" fill="#B3F5FF"/>
<path d="M9.26253 -26.0322C-1.32119 -2.02099 -11.4866 20.9378 -11.4866 36.4516C-11.4866 40.6613 -10.7336 44.2864 -9.10213 47.2488C-6.80132 51.4586 -2.61802 54.1092 3.19676 55.2396C16.8343 57.9681 30.0116 44.4423 49.9241 23.9002C69.6274 3.55306 96.5678 -24.2781 136.978 -48.8741C164.337 -65.5572 181.949 -81.2658 189.771 -95.8831L187.512 -95.8831C179.648 -81.8505 162.496 -66.6486 135.891 -50.5112C95.2291 -25.7204 68.2051 2.18878 48.4181 22.5749C28.9658 42.6103 16.1649 55.9022 3.65691 53.3296C-1.61404 52.2382 -5.12801 49.9774 -7.17782 46.2743C-14.6241 33.0993 -2.07421 4.68345 11.2287 -25.3696C19.9717 -45.21 29.0495 -65.7521 33.1073 -83.5266C34.1113 -87.9703 34.8224 -92.18 35.1571 -96L33.1073 -96C32.7726 -92.297 32.1451 -88.2431 31.1411 -83.9164C26.9997 -66.2198 18.0056 -45.7557 9.26253 -26.0322Z" fill="#B3F5FF"/>
<path d="M32.0617 2.38099L32.0641 2.38215C34.4107 3.51966 37.2406 3.49122 40.4929 2.40397C43.7422 1.31772 47.459 -0.839129 51.6338 -4.03151C59.985 -10.4175 70.2633 -21.021 82.4282 -35.7776L82.4289 -35.7785C93.3808 -49.1226 103.491 -62.9757 109.74 -71.7091L110.306 -72.5L109.333 -72.5L106.944 -72.5L106.685 -72.5L106.536 -72.2894C96.1867 -57.7072 81.2247 -37.9953 67.1341 -22.7646C60.0862 -15.1465 53.2746 -8.66963 47.3799 -4.51479C44.4315 -2.43669 41.7351 -0.955829 39.3706 -0.196338C37.0044 0.563687 35.0282 0.584012 33.4637 -0.16978C32.142 -0.807422 31.1561 -2.0062 30.4962 -3.73677C29.8341 -5.47308 29.5124 -7.7168 29.5124 -10.3767C29.5124 -17.3772 31.6417 -27.1493 34.9353 -37.9904C38.2251 -48.819 42.6625 -60.6696 47.2492 -71.8096L47.5335 -72.5L46.7869 -72.5L44.607 -72.5L44.2718 -72.5L44.1445 -72.1899C42.173 -67.3892 40.1585 -62.3107 38.2694 -57.1518C30.4285 -36.3831 26.5002 -20.7771 26.5002 -10.6913C26.5002 -3.95728 28.271 0.518307 32.0617 2.38099Z" stroke="#79E2F2" stroke-opacity="0.3"/>
<path d="M26.7004 306.782C23.8401 313.95 22.8185 323.977 22.8185 333.339C22.8185 337.569 23.0228 341.643 23.3497 345.286C24.4121 356.958 27.3541 370.275 32.3392 372.351C34.0554 373.057 36.7523 372.861 39.5309 367.494C39.6126 367.377 44.7203 356.958 48.8064 344.385C54.2819 327.346 55.14 314.538 51.4624 306.43C49.3785 301.886 45.9461 298.909 41.2062 297.421C36.834 296.011 30.7048 296.559 26.7004 306.782ZM40.5524 299.183C44.7612 300.476 47.8258 303.139 49.6237 307.174C51.0947 310.386 51.6259 314.185 51.6259 318.337C51.6259 338.274 38.019 366.006 37.6921 366.633C36.548 368.787 34.8318 371.294 33.0748 370.589C29.7241 369.179 26.5369 358.721 25.2702 345.09C23.9218 330.323 25.1476 315.909 28.4574 307.448C31.3586 300.358 35.4039 297.617 40.5524 299.183Z" fill="#00C7E6" fill-opacity="0.4"/>
<path d="M107.221 71.6296C113.263 68.3993 119.693 62.1759 125.048 55.8201C127.468 52.9481 129.66 50.0655 131.522 47.4054C137.477 38.8729 143.098 28.1482 140.901 23.887C140.14 22.4266 138.197 21.0168 133.24 23.0706C133.118 23.1036 123.69 27.2555 113.723 33.4544C100.258 41.8902 92.3488 50.0952 90.2074 57.7038C89.023 61.9807 89.6504 65.9652 92.017 69.6873C94.1788 73.1457 98.6538 76.2797 107.221 71.6296ZM93.4692 68.8646C91.3512 65.5794 90.7942 62.0179 91.8815 58.2503C92.7201 55.2282 94.5329 52.3448 96.9081 49.5259C108.313 35.99 133.415 24.946 133.996 24.7075C136.005 23.8994 138.604 23.1792 139.394 24.663C140.862 27.537 137.043 36.4607 130.106 46.4397C122.574 57.2367 113.496 66.3217 106.409 70.1724C100.383 73.3262 96.0684 72.8735 93.4692 68.8646Z" fill="#00C7E6" fill-opacity="0.4"/>
<path d="M38.3475 96.835L43.5463 84.9302L51.2567 95.3849L38.3475 96.835Z" fill="#79E2F2"/>
<path d="M99.9348 344.469L101.811 331.615L112.005 339.667L99.9348 344.469Z" fill="#B3F5FF"/>
<line x1="109.358" y1="348.651" x2="148.358" y2="388.651" stroke="#7A869A"/>
</g>
<g filter="url(#filter1_d_1879_15543)">
<path d="M159 372.729V405.033C159 409.876 162.913 413.763 167.788 413.763H200.312C205.187 413.763 209.1 409.876 209.1 405.033V372.729C209.1 367.887 205.187 364 200.312 364H167.788C162.913 364 159 367.95 159 372.729Z" fill="url(#paint7_linear_1879_15543)"/>
<path fill-rule="evenodd" clip-rule="evenodd" d="M190.976 383.946C192.406 383.946 193.678 382.833 193.678 381.244C193.678 379.814 192.565 378.543 190.976 378.543C189.387 378.543 188.275 379.655 188.275 381.244C188.434 382.674 189.546 383.946 190.976 383.946ZM190.976 399.678C192.406 399.678 193.678 398.565 193.678 396.976C193.678 395.387 192.565 394.275 190.976 394.275C189.387 394.275 188.275 395.387 188.275 396.976C188.275 398.565 189.546 399.678 190.976 399.678ZM196.22 381.244C196.22 384.104 193.837 386.488 190.976 386.488C188.116 386.488 185.732 384.104 185.732 381.244C185.732 378.384 188.116 376 190.976 376C193.837 376 196.22 378.384 196.22 381.244ZM196.22 396.976C196.22 399.837 193.837 402.22 190.976 402.22C188.116 402.22 185.732 399.837 185.732 396.976C185.732 394.116 188.116 391.732 190.976 391.732C193.837 391.732 196.22 394.116 196.22 396.976Z" fill="white"/>
<path fill-rule="evenodd" clip-rule="evenodd" d="M180.965 380.608C181.283 380.291 181.601 379.973 182.077 379.973H183.984C184.779 379.973 185.255 380.608 185.255 381.244C185.255 382.039 184.62 382.515 183.984 382.515H182.872L181.918 383.946C181.442 384.581 180.647 384.74 180.17 384.263C179.694 383.787 179.376 382.992 179.852 382.515L180.965 380.608ZM178.74 386.17C179.376 386.647 179.535 387.442 179.058 387.918L178.263 389.19L179.058 390.461C179.535 391.097 179.217 391.891 178.74 392.209C178.104 392.686 177.31 392.368 176.992 391.891L176.039 390.461C175.562 390.143 175.403 389.666 175.403 389.349C175.403 388.872 175.562 388.395 176.039 388.236L176.992 386.806C177.31 386.011 178.104 385.852 178.74 386.17ZM170 389.19C170 388.395 170.636 387.918 171.271 387.918H173.973C174.767 387.918 175.244 388.554 175.244 389.19C175.244 389.19 175.244 389.19 175.244 389.349C175.244 389.349 175.244 389.349 175.244 389.507C175.244 390.302 174.608 390.779 173.973 390.779H171.271C170.477 390.779 170 390.143 170 389.507C170 389.349 170 389.349 170 389.19ZM179.852 394.116C180.488 393.639 181.283 393.957 181.601 394.434L182.554 395.864H183.666C184.461 395.864 184.938 396.5 184.938 397.135C184.938 397.771 184.302 398.406 183.666 398.406H181.759C181.283 398.406 180.965 398.248 180.647 397.771L179.376 395.705C179.217 395.387 179.376 394.434 179.852 394.116Z" fill="white"/>
</g>
</g>
</g>
<defs>
<filter id="filter0_d_1879_15543" x="-163" y="-96" width="421.951" height="751" filterUnits="userSpaceOnUse" color-interpolation-filters="sRGB">
<feFlood flood-opacity="0" result="BackgroundImageFix"/>
<feColorMatrix in="SourceAlpha" type="matrix" values="0 0 0 0 0 0 0 0 0 0 0 0 0 0 0 0 0 0 127 0" result="hardAlpha"/>
<feOffset dy="4"/>
<feGaussianBlur stdDeviation="2"/>
<feColorMatrix type="matrix" values="0 0 0 0 0.756863 0 0 0 0 0.780392 0 0 0 0 0.815686 0 0 0 0.2 0"/>
<feBlend mode="normal" in2="BackgroundImageFix" result="effect1_dropShadow_1879_15543"/>
<feBlend mode="normal" in="SourceGraphic" in2="effect1_dropShadow_1879_15543" result="shape"/>
</filter>
<filter id="filter1_d_1879_15543" x="155" y="364" width="58.0999" height="57.7626" filterUnits="userSpaceOnUse" color-interpolation-filters="sRGB">
<feFlood flood-opacity="0" result="BackgroundImageFix"/>
<feColorMatrix in="SourceAlpha" type="matrix" values="0 0 0 0 0 0 0 0 0 0 0 0 0 0 0 0 0 0 127 0" result="hardAlpha"/>
<feOffset dy="4"/>
<feGaussianBlur stdDeviation="2"/>
<feColorMatrix type="matrix" values="0 0 0 0 0.419608 0 0 0 0 0.466667 0 0 0 0 0.54902 0 0 0 0.15 0"/>
<feBlend mode="normal" in2="BackgroundImageFix" result="effect1_dropShadow_1879_15543"/>
<feBlend mode="normal" in="SourceGraphic" in2="effect1_dropShadow_1879_15543" result="shape"/>
</filter>
<linearGradient id="paint0_linear_1879_15543" x1="150.5" y1="0" x2="150.5" y2="497" gradientUnits="userSpaceOnUse">
<stop offset="0.0221328" stop-color="white" stop-opacity="0"/>
<stop offset="0.267606" stop-color="white"/>
</linearGradient>
<linearGradient id="paint1_linear_1879_15543" x1="376.344" y1="10.7943" x2="-293" y2="10.7943" gradientUnits="userSpaceOnUse">
<stop stop-color="#A5ADBA" stop-opacity="0.2"/>
<stop offset="0.364583" stop-color="#A5ADBA"/>
</linearGradient>
<linearGradient id="paint2_linear_1879_15543" x1="376.344" y1="105.486" x2="-293" y2="105.486" gradientUnits="userSpaceOnUse">
<stop stop-color="#A5ADBA" stop-opacity="0.2"/>
<stop offset="0.364583" stop-color="#A5ADBA"/>
</linearGradient>
<linearGradient id="paint3_linear_1879_15543" x1="376.344" y1="200.179" x2="-293" y2="200.179" gradientUnits="userSpaceOnUse">
<stop stop-color="#A5ADBA" stop-opacity="0.2"/>
<stop offset="0.364583" stop-color="#A5ADBA"/>
</linearGradient>
<linearGradient id="paint4_linear_1879_15543" x1="376.344" y1="294.871" x2="-293" y2="294.871" gradientUnits="userSpaceOnUse">
<stop stop-color="#A5ADBA" stop-opacity="0.2"/>
<stop offset="0.364583" stop-color="#A5ADBA"/>
</linearGradient>
<linearGradient id="paint5_linear_1879_15543" x1="376.344" y1="389.563" x2="-293" y2="389.563" gradientUnits="userSpaceOnUse">
<stop stop-color="#A5ADBA" stop-opacity="0.2"/>
<stop offset="0.364583" stop-color="#A5ADBA"/>
</linearGradient>
<linearGradient id="paint6_linear_1879_15543" x1="376.344" y1="484.255" x2="-293" y2="484.254" gradientUnits="userSpaceOnUse">
<stop stop-color="#A5ADBA" stop-opacity="0.2"/>
<stop offset="0.364583" stop-color="#A5ADBA"/>
</linearGradient>
<linearGradient id="paint7_linear_1879_15543" x1="159" y1="364" x2="224" y2="434" gradientUnits="userSpaceOnUse">
<stop stop-color="#79E2F2"/>
<stop offset="0.0001" stop-color="#79E2F2"/>
<stop offset="1" stop-color="#79F2C0"/>
</linearGradient>
</defs>
</svg>
