<svg width="376" height="497" viewBox="0 0 376 497" fill="none" xmlns="http://www.w3.org/2000/svg">
<mask id="mask0_1879_15542" style="mask-type:alpha" maskUnits="userSpaceOnUse" x="0" y="0" width="377" height="497">
<path d="M0.00024238 6C0.000243352 2.6863 2.68654 0 6.00024 0L370 0C373.314 0 376 2.68629 376 6L376 497L9.82618e-05 497L0.00024238 6Z" fill="white"/>
</mask>
<g mask="url(#mask0_1879_15542)">
<mask id="mask1_1879_15542" style="mask-type:alpha" maskUnits="userSpaceOnUse" x="0" y="0" width="375" height="497">
<rect width="375" height="497" fill="url(#paint0_linear_1879_15542)"/>
</mask>
<g mask="url(#mask1_1879_15542)">
<path opacity="0.2" d="M669.63 13.2943L0.285577 13.2943" stroke="url(#paint1_linear_1879_15542)"/>
<path opacity="0.2" d="M669.63 107.986L0.285577 107.986" stroke="url(#paint2_linear_1879_15542)"/>
<path opacity="0.2" d="M669.63 202.679L0.285577 202.679" stroke="url(#paint3_linear_1879_15542)"/>
<path opacity="0.2" d="M669.63 297.371L0.285577 297.371" stroke="url(#paint4_linear_1879_15542)"/>
<path opacity="0.2" d="M669.63 392.063L0.285577 392.063" stroke="url(#paint5_linear_1879_15542)"/>
<path opacity="0.2" d="M669.63 486.755L0.285577 486.754" stroke="url(#paint6_linear_1879_15542)"/>
<path opacity="0.2" d="M289.245 1157L289.245 -802" stroke="#A5ADBA"/>
<path opacity="0.2" d="M195.247 1157L195.248 -802" stroke="#A5ADBA"/>
<path opacity="0.2" d="M101.252 1157L101.252 -802" stroke="#A5ADBA"/>
<g filter="url(#filter0_d_1879_15542)">
<path d="M241.003 425.348C228.518 416.706 212.381 416.879 193.064 425.924C177.869 433.068 160.672 445.628 141.944 463.431C124.1 480.428 108.022 498.922 97.4797 512H101.249C131.226 475.473 199.896 400.401 239.236 427.653C264.678 445.34 279.579 480.37 292.417 512H295.48C282.464 479.794 267.388 443.669 241.003 425.348Z" fill="#B3F5FF"/>
<path d="M214.26 480.534C211.836 478.168 208.72 477.245 205.142 477.591C193.022 478.918 176.458 496.346 163.934 511.639H167.628C179.575 497.154 194.811 481.631 205.488 480.419C208.2 480.13 210.451 480.823 212.356 482.612C218.877 488.729 226.092 499.924 232.671 511.697H235.961C229.035 499.289 221.301 487.113 214.26 480.534Z" fill="#79E2F2" fill-opacity="0.2"/>
<path d="M100.218 465.362L100.218 465.362C77.9168 484.107 61.0698 501.247 48.6217 515.673L47.9084 516.5H49.0002H52.8114H53.0378L53.1871 516.33C81.4696 484.125 136.124 432.916 225.885 388.4C243.532 379.704 261.089 378.832 278.185 385.865C295.423 392.992 310.822 407.569 324.006 424.743C337.185 441.909 348.117 461.629 356.435 478.982L356.436 478.984C362.819 492.156 368.208 505.052 372.485 516.179L372.608 516.5H372.951H376H376.73L376.467 515.819C372.066 504.454 366.608 491.143 360.034 477.496C335.511 426.437 308.47 394.378 279.797 382.558C261.596 375.02 242.859 375.919 224.21 385.177C178.209 407.965 136.486 434.915 100.218 465.362Z" stroke="#00C7E6" stroke-opacity="0.4"/>
<path d="M333.932 341.419C349.037 355.742 400.184 396.633 414.891 395.921C418.186 395.822 420.457 393.868 421.31 390.42C426.162 373.659 396.466 314.347 370.245 295.958C355.37 285.426 339.667 291.321 331.518 301.408C325.08 309.329 322.022 320.825 326.899 331.61C328.354 335.034 330.719 338.418 333.932 341.419ZM334.745 304.031C341.975 295.195 354.99 290.33 367.881 299.346C391.817 316.171 421.635 374.315 417.345 389.244C416.81 391.342 415.739 391.641 414.64 391.673C403.082 392.168 356.046 356.47 336.813 338.353C324.983 327.373 327.515 312.867 334.745 304.031Z" stroke="#79E2F2" stroke-width="0.5"/>
<path d="M306.226 346.857C281.168 330.491 247.479 331.033 206.268 348.699C173.52 362.68 135.904 387.391 94.4155 422.073C52.0423 457.622 14.1498 496.477 -9.52612 522H-5.93048C17.6901 496.477 54.6975 458.652 96.075 423.97C137.397 389.396 174.737 364.848 207.208 350.975C247.534 333.742 280.282 333.038 304.567 348.916C360.935 385.765 390.918 447.976 417.304 502.871C420.457 509.32 423.444 515.66 426.487 521.892H429.474C426.21 515.335 423.002 508.615 419.738 501.733C393.351 446.621 363.203 384.031 306.226 346.857Z" fill="#B3F5FF"/>
<path d="M231.379 460.951L231.378 460.95C218.939 452.15 202.916 452.381 183.895 461.484L183.894 461.485C168.937 468.673 152.041 481.293 133.667 499.145L133.667 499.145C116.16 516.189 100.389 534.73 90.0493 547.842L89.4108 548.651H90.4419H94.1356H94.3753L94.5254 548.465C109.207 530.179 133.346 502.269 158.615 482.346C171.252 472.382 184.14 464.441 196.244 460.684C208.339 456.931 219.597 457.369 229.068 464.074C241.448 472.871 251.288 486 259.61 500.916C267.932 515.83 274.717 532.493 281.008 548.336L281.134 548.651H281.473H284.474H285.21L284.939 547.968C278.563 531.841 271.67 514.702 263.132 499.297C254.595 483.894 244.393 470.188 231.379 460.951Z" stroke="#B3F5FF"/>
<path d="M214.26 494.534C211.836 492.168 208.72 491.245 205.142 491.591C193.022 492.918 176.458 510.346 163.934 525.639H167.628C179.575 511.154 194.811 495.631 205.488 494.419C208.2 494.13 210.451 494.823 212.356 496.612C218.877 502.729 226.092 513.924 232.671 525.697H235.961C229.035 513.289 221.301 501.113 214.26 494.534Z" fill="#B3F5FF"/>
<path d="M349.215 334.345C358.974 343.9 390.992 371.406 398.517 371.37C400.211 371.401 401.124 370.221 401.101 368.048C401.355 357.507 377.968 318.874 361.901 306.412C352.773 299.28 345.431 302.589 342.568 308.784C340.301 313.648 340.266 320.886 344.247 327.895C345.464 330.118 347.146 332.341 349.215 334.345ZM344.594 310.547C347.149 305.123 353.237 302.393 361.133 308.504C375.805 319.904 399.098 357.796 398.888 367.186C398.894 368.508 398.379 368.668 397.814 368.657C391.891 368.644 362.704 344.563 350.294 332.473C342.683 325.141 342.039 315.971 344.594 310.547Z" fill="#B3F5FF"/>
<path d="M301.778 439.689L301.77 439.689L301.763 439.688C301.045 439.607 300.646 439.724 300.403 439.88C300.154 440.039 299.989 440.287 299.831 440.632L299.828 440.638C299.409 441.522 299.168 442.948 299.112 444.862C299.057 446.761 299.186 449.085 299.467 451.726C300.03 457.007 301.198 463.514 302.693 470.35C305.684 484.022 309.972 498.958 313.304 507.941L313.306 507.944C315.256 513.328 318.798 516.49 322.826 517.995C326.868 519.505 331.43 519.355 335.401 518.044C343.347 515.42 350.24 507.913 347.951 496.965C345.762 486.623 337.024 472.519 327.359 460.85C322.535 455.025 317.5 449.831 312.97 446.04C310.705 444.144 308.574 442.606 306.666 441.515C304.75 440.42 303.096 439.798 301.778 439.689ZM309.44 509.476C306.773 502.36 302.234 487.291 298.959 472.753C297.322 465.483 295.998 458.332 295.383 452.366C295.076 449.384 294.945 446.687 295.044 444.414C295.142 442.154 295.469 440.265 296.11 438.927C296.666 437.717 297.493 436.804 298.551 436.24C299.606 435.679 300.855 435.484 302.23 435.648C303.927 435.787 305.889 436.497 308.014 437.638C310.149 438.786 312.479 440.386 314.916 442.339C319.788 446.244 325.116 451.584 330.186 457.602C340.311 469.62 349.486 484.431 351.924 496.011C354.795 509.352 345.967 518.863 336.55 521.909C329.153 524.325 320.228 523.433 314.159 517.074C312.204 515.118 310.561 512.538 309.44 509.476Z" stroke="#79E2F2" stroke-opacity="0.4"/>
<path d="M317.017 501.614C313.299 492.831 303.897 464.486 306.418 458.621C306.957 457.296 308.119 456.728 309.692 457.012C317.447 458.105 337.808 481.081 341.55 495.14C343.714 503.134 338.871 508.456 333.414 509.93C329.123 511.103 323.844 510.243 320.063 506.279C318.849 505.058 317.789 503.474 317.017 501.614ZM332.803 508.134C337.597 506.805 341.602 502.391 339.773 495.483C336.341 482.642 316.488 459.831 309.586 458.844C308.626 458.678 308.339 459.06 308.159 459.501C306.205 464.123 314.053 489.841 318.737 501.001C321.549 507.836 328.009 509.462 332.803 508.134Z" fill="#79E2F2"/>
<path d="M317.017 501.614C313.299 492.831 303.897 464.486 306.418 458.621C306.957 457.296 308.119 456.728 309.692 457.012C317.447 458.105 337.808 481.081 341.55 495.14C343.714 503.134 338.871 508.456 333.414 509.93C329.123 511.103 323.844 510.243 320.063 506.279C318.849 505.058 317.789 503.474 317.017 501.614ZM332.803 508.134C337.597 506.805 341.602 502.391 339.773 495.483C336.341 482.642 316.488 459.831 309.586 458.844C308.626 458.678 308.339 459.06 308.159 459.501C306.205 464.123 314.053 489.841 318.737 501.001C321.549 507.836 328.009 509.462 332.803 508.134Z" fill="#79E2F2"/>
<path d="M317.017 501.614C313.299 492.831 303.897 464.486 306.418 458.621C306.957 457.296 308.119 456.728 309.692 457.012C317.447 458.105 337.808 481.081 341.55 495.14C343.714 503.134 338.871 508.456 333.414 509.93C329.123 511.103 323.844 510.243 320.063 506.279C318.849 505.058 317.789 503.474 317.017 501.614ZM332.803 508.134C337.597 506.805 341.602 502.391 339.773 495.483C336.341 482.642 316.488 459.831 309.586 458.844C308.626 458.678 308.339 459.06 308.159 459.501C306.205 464.123 314.053 489.841 318.737 501.001C321.549 507.836 328.009 509.462 332.803 508.134Z" fill="#79E2F2"/>
</g>
<g filter="url(#filter1_d_1879_15542)">
<path d="M267 186.729V219.033C267 223.876 270.913 227.763 275.789 227.763H308.312C313.187 227.763 317.1 223.876 317.1 219.033V186.729C317.1 181.887 313.187 178 308.312 178H275.789C270.913 178 267 181.95 267 186.729Z" fill="url(#paint7_linear_1879_15542)"/>
<path fill-rule="evenodd" clip-rule="evenodd" d="M301.36 207.897C300.08 207.897 298.96 208.36 298 209.131C297.84 209.286 297.68 209.44 297.52 209.594L287.28 204.04C287.28 203.886 287.28 203.731 287.28 203.423L297.84 197.56C297.84 197.56 297.84 197.56 298 197.714C298.8 198.486 300.08 198.949 301.36 198.949C302.64 198.949 303.76 198.486 304.72 197.714C305.68 196.943 306 195.709 306 194.474C306 193.24 305.52 192.16 304.72 191.234C303.92 190.463 302.64 190 301.36 190C300.08 190 298.96 190.463 298 191.234C297.2 192.006 296.72 193.24 296.72 194.474C296.72 194.629 296.72 194.629 296.72 194.783L286.32 200.646C286.16 200.491 286.16 200.491 286 200.337C285.2 199.566 283.92 199.103 282.64 199.103C281.36 199.103 280.24 199.566 279.28 200.337C278.48 201.109 278 202.343 278 203.577C278 204.811 278.48 205.891 279.28 206.817C280.08 207.589 281.36 208.051 282.64 208.051C283.76 208.051 285.04 207.589 285.84 206.817L296.56 212.834C296.56 213.914 297.04 214.994 297.84 215.766C298.64 216.537 299.92 217 301.2 217C302.48 217 303.6 216.537 304.56 215.766C305.36 214.994 305.84 213.76 305.84 212.526C305.84 211.291 305.36 210.211 304.56 209.286C303.76 208.36 302.48 207.897 301.36 207.897ZM300.24 193.394C300.56 193.086 300.88 192.931 301.36 192.931C301.84 192.931 302.16 193.086 302.48 193.394C302.8 193.703 302.96 194.011 302.96 194.474C302.96 194.937 302.8 195.246 302.48 195.554C302.16 195.863 301.84 196.017 301.36 196.017C300.88 196.017 300.56 195.863 300.24 195.554C299.92 195.246 299.76 194.937 299.76 194.474C299.76 194.166 299.92 193.703 300.24 193.394ZM282.8 204.966C282.32 204.966 282 204.811 281.68 204.503C281.36 204.194 281.2 203.886 281.2 203.423C281.2 202.96 281.36 202.651 281.68 202.343C282 202.034 282.32 201.88 282.8 201.88C283.28 201.88 283.6 202.034 283.92 202.343C284.24 202.651 284.4 202.96 284.4 203.423C284.4 203.886 284.24 204.194 283.92 204.503C283.6 204.811 283.12 204.966 282.8 204.966ZM302.32 213.451C302 213.76 301.68 213.914 301.2 213.914C300.72 213.914 300.4 213.76 300.08 213.451C299.76 213.143 299.6 212.834 299.6 212.371C299.6 211.909 299.76 211.6 300.08 211.291C300.4 210.983 300.72 210.829 301.2 210.829C301.68 210.829 302 210.983 302.32 211.291C302.64 211.6 302.8 211.909 302.8 212.371C302.8 212.834 302.64 213.143 302.32 213.451Z" fill="white"/>
</g>
<path d="M248.5 330.5L289.5 235" stroke="#7A869A"/>
<path d="M248.745 341.958L235.754 342.01L242.205 330.734L248.745 341.958Z" fill="#B3F5FF"/>
<path d="M113.607 494.195L116.222 481.471L125.934 490.097L113.607 494.195Z" fill="#B3F5FF"/>
</g>
</g>
<defs>
<filter id="filter0_d_1879_15542" x="-13.5261" y="290.143" width="447" height="267.008" filterUnits="userSpaceOnUse" color-interpolation-filters="sRGB">
<feFlood flood-opacity="0" result="BackgroundImageFix"/>
<feColorMatrix in="SourceAlpha" type="matrix" values="0 0 0 0 0 0 0 0 0 0 0 0 0 0 0 0 0 0 127 0" result="hardAlpha"/>
<feOffset dy="4"/>
<feGaussianBlur stdDeviation="2"/>
<feColorMatrix type="matrix" values="0 0 0 0 0.756863 0 0 0 0 0.780392 0 0 0 0 0.815686 0 0 0 0.2 0"/>
<feBlend mode="normal" in2="BackgroundImageFix" result="effect1_dropShadow_1879_15542"/>
<feBlend mode="normal" in="SourceGraphic" in2="effect1_dropShadow_1879_15542" result="shape"/>
</filter>
<filter id="filter1_d_1879_15542" x="263" y="178" width="58.0999" height="57.7626" filterUnits="userSpaceOnUse" color-interpolation-filters="sRGB">
<feFlood flood-opacity="0" result="BackgroundImageFix"/>
<feColorMatrix in="SourceAlpha" type="matrix" values="0 0 0 0 0 0 0 0 0 0 0 0 0 0 0 0 0 0 127 0" result="hardAlpha"/>
<feOffset dy="4"/>
<feGaussianBlur stdDeviation="2"/>
<feColorMatrix type="matrix" values="0 0 0 0 0.419608 0 0 0 0 0.466667 0 0 0 0 0.54902 0 0 0 0.15 0"/>
<feBlend mode="normal" in2="BackgroundImageFix" result="effect1_dropShadow_1879_15542"/>
<feBlend mode="normal" in="SourceGraphic" in2="effect1_dropShadow_1879_15542" result="shape"/>
</filter>
<linearGradient id="paint0_linear_1879_15542" x1="187.5" y1="0" x2="187.5" y2="497" gradientUnits="userSpaceOnUse">
<stop stop-color="white" stop-opacity="0"/>
<stop offset="0.217304" stop-color="white"/>
</linearGradient>
<linearGradient id="paint1_linear_1879_15542" x1="669.63" y1="13.7943" x2="0.285583" y2="13.7943" gradientUnits="userSpaceOnUse">
<stop offset="0.734375" stop-color="#A5ADBA"/>
<stop offset="1" stop-color="#A5ADBA" stop-opacity="0.2"/>
</linearGradient>
<linearGradient id="paint2_linear_1879_15542" x1="669.63" y1="108.486" x2="0.285583" y2="108.486" gradientUnits="userSpaceOnUse">
<stop offset="0.734375" stop-color="#A5ADBA"/>
<stop offset="1" stop-color="#A5ADBA" stop-opacity="0.2"/>
</linearGradient>
<linearGradient id="paint3_linear_1879_15542" x1="669.63" y1="203.179" x2="0.285583" y2="203.179" gradientUnits="userSpaceOnUse">
<stop offset="0.734375" stop-color="#A5ADBA"/>
<stop offset="1" stop-color="#A5ADBA" stop-opacity="0.2"/>
</linearGradient>
<linearGradient id="paint4_linear_1879_15542" x1="669.63" y1="297.871" x2="0.285583" y2="297.871" gradientUnits="userSpaceOnUse">
<stop offset="0.734375" stop-color="#A5ADBA"/>
<stop offset="1" stop-color="#A5ADBA" stop-opacity="0.2"/>
</linearGradient>
<linearGradient id="paint5_linear_1879_15542" x1="669.63" y1="392.563" x2="0.285583" y2="392.563" gradientUnits="userSpaceOnUse">
<stop offset="0.734375" stop-color="#A5ADBA"/>
<stop offset="1" stop-color="#A5ADBA" stop-opacity="0.2"/>
</linearGradient>
<linearGradient id="paint6_linear_1879_15542" x1="669.63" y1="487.255" x2="0.285583" y2="487.254" gradientUnits="userSpaceOnUse">
<stop offset="0.734375" stop-color="#A5ADBA"/>
<stop offset="1" stop-color="#A5ADBA" stop-opacity="0.2"/>
</linearGradient>
<linearGradient id="paint7_linear_1879_15542" x1="267" y1="178" x2="332" y2="248" gradientUnits="userSpaceOnUse">
<stop stop-color="#79E2F2"/>
<stop offset="0.0001" stop-color="#79E2F2"/>
<stop offset="0.505208" stop-color="#79EAD9"/>
<stop offset="1" stop-color="#79F2C0"/>
</linearGradient>
</defs>
</svg>
