<svg width="669" height="1773" viewBox="0 0 669 1773" fill="none" xmlns="http://www.w3.org/2000/svg">
<mask id="mask0_2008_21817" style="mask-type:alpha" maskUnits="userSpaceOnUse" x="0" y="0" width="669" height="1773">
<rect width="669" height="1773" fill="url(#paint0_linear_2008_21817)"/>
</mask>
<g mask="url(#mask0_2008_21817)">
<path opacity="0.2" d="M669.344 74.4497L-0.000556068 74.4497" stroke="#A5ADBA"/>
<path opacity="0.2" d="M669.344 169.142L-0.000800209 169.142" stroke="#A5ADBA"/>
<path opacity="0.2" d="M669.344 263.835L-0.000800209 263.835" stroke="#A5ADBA"/>
<path opacity="0.2" d="M669.344 358.527L-0.000800209 358.527" stroke="#A5ADBA"/>
<path opacity="0.2" d="M669.344 453.218L-0.000800209 453.218" stroke="#A5ADBA"/>
<path opacity="0.2" d="M669.344 547.91L-0.000800209 547.91" stroke="#A5ADBA"/>
<path opacity="0.2" d="M669.344 642.603L-0.000800209 642.603" stroke="#A5ADBA"/>
<path opacity="0.2" d="M669.344 737.294L-0.000800209 737.294" stroke="#A5ADBA"/>
<path opacity="0.2" d="M669.344 831.986L-0.000800209 831.986" stroke="#A5ADBA"/>
<path opacity="0.2" d="M669.344 926.679L-0.000800209 926.679" stroke="#A5ADBA"/>
<path opacity="0.2" d="M669.344 1021.37L-0.000800209 1021.37" stroke="#A5ADBA"/>
<path opacity="0.2" d="M669.344 1116.06L-0.000800209 1116.06" stroke="#A5ADBA"/>
<path opacity="0.2" d="M669.344 1210.75L-0.000800209 1210.75" stroke="#A5ADBA"/>
<path opacity="0.2" d="M669.344 1305.45L-0.000800209 1305.45" stroke="#A5ADBA"/>
<path opacity="0.2" d="M669.344 1400.14L-0.000800209 1400.14" stroke="#A5ADBA"/>
<path opacity="0.2" d="M669.344 1494.83L-0.000800209 1494.83" stroke="#A5ADBA"/>
<path opacity="0.2" d="M669.344 1589.52L-0.000800209 1589.52" stroke="#A5ADBA"/>
<path opacity="0.2" d="M669.344 1684.22L-0.000800209 1684.22" stroke="#A5ADBA"/>
<path opacity="0.2" d="M570.999 1808L570.999 -78" stroke="#A5ADBA"/>
<path opacity="0.2" d="M476.999 1808L476.999 -78" stroke="#A5ADBA"/>
<path opacity="0.2" d="M382.999 1808L382.999 -78" stroke="#A5ADBA"/>
<path opacity="0.2" d="M288.958 1881L288.958 -78" stroke="#A5ADBA"/>
<path opacity="0.2" d="M194.961 1881L194.961 -78" stroke="#A5ADBA"/>
<path opacity="0.2" d="M100.964 1881L100.964 -78" stroke="#A5ADBA"/>
</g>
<defs>
<linearGradient id="paint0_linear_2008_21817" x1="0" y1="886.971" x2="669" y2="886.971" gradientUnits="userSpaceOnUse">
<stop stop-color="#D9D9D9" stop-opacity="0"/>
<stop offset="0.61435" stop-color="#D9D9D9"/>
</linearGradient>
</defs>
</svg>
