<?xml version="1.0" encoding="utf-8"?>
<!-- Generator: Adobe Illustrator 19.1.0, SVG Export Plug-In . SVG Version: 6.00 Build 0)  -->
<svg version="1.1" id="Layer_1" xmlns="http://www.w3.org/2000/svg" xmlns:xlink="http://www.w3.org/1999/xlink" x="0px" y="0px"
	 viewBox="0 0 144.7 18.2" style="enable-background:new 0 0 144.7 18.2;" xml:space="preserve">
<style type="text/css">
	.st0{fill:#253858;}
</style>
<path class="st0" d="M66,5.2c0,2.6,1.2,4.7,5.9,5.6c2.8,0.6,3.4,1,3.4,2s-0.6,1.5-2.6,1.5c-2.4,0-4.7-0.7-6.8-1.9v4.2
	c2.1,1.1,4.4,1.6,6.8,1.5c4.9,0,6.9-2.2,6.9-5.5 M79.6,12.7c0-3.1-1.6-4.5-6.2-5.5c-2.5-0.6-3.2-1.1-3.2-1.9c0-1,0.9-1.5,2.6-1.5
	c2.1,0.1,4.1,0.6,5.9,1.5v-4C76.9,0.4,74.9,0,72.9,0C68.4,0,66,2,66,5.2"/>
<polygon class="st0" points="129.3,0.3 129.3,17.9 133.1,17.9 133.1,4.5 134.6,8 139.9,17.9 144.7,17.9 144.7,0.3 140.9,0.3 
	140.9,11.6 139.5,8.3 135.2,0.3 "/>
<rect x="101.4" y="0.3" class="st0" width="4.1" height="17.6"/>
<path class="st0" d="M96.6,12.7c0-3.1-1.6-4.5-6.2-5.5c-2.5-0.6-3.2-1.1-3.2-1.9c0-1,0.9-1.5,2.6-1.5c2.1,0.1,4.1,0.6,5.9,1.5v-4
	C94,0.4,92,0,90,0c-4.6,0-6.9,2-6.9,5.2c0,2.6,1.2,4.7,5.9,5.6c2.8,0.6,3.4,1,3.4,2s-0.6,1.5-2.6,1.5c-2.4,0-4.7-0.7-6.8-1.9v4.2
	c2.1,1.1,4.4,1.6,6.8,1.5C94.7,18.1,96.6,15.9,96.6,12.7"/>
<polygon class="st0" points="34.2,0.3 34.2,17.9 42.6,17.9 43.9,14.1 38.3,14.1 38.3,0.3 "/>
<polygon class="st0" points="17.5,0.3 17.5,4.1 22.1,4.1 22.1,17.9 26.2,17.9 26.2,4.1 31.1,4.1 31.1,0.3 "/>
<path class="st0" d="M11.5,0.3H6.1L0,17.9h4.7l0.9-3c2.1,0.6,4.4,0.6,6.6,0l0.9,3h4.7L11.5,0.3z M8.8,11.7c-0.8,0-1.5-0.1-2.2-0.3
	l2.2-7.7l2.2,7.7C10.4,11.6,9.6,11.7,8.8,11.7z"/>
<path class="st0" d="M57.1,0.3h-5.4l-6.1,17.6h4.7l0.9-3c2.1,0.6,4.4,0.6,6.6,0l0.9,3h4.7L57.1,0.3z M54.4,11.7
	c-0.8,0-1.5-0.1-2.2-0.3l2.2-7.7l2.2,7.7C55.9,11.6,55.2,11.7,54.4,11.7z"/>
<path class="st0" d="M120.2,0.3h-5.4l-6.1,17.6h4.6l0.9-3c2.1,0.6,4.4,0.6,6.6,0l0.9,3h4.7L120.2,0.3z M117.5,11.7
	c-0.8,0-1.5-0.1-2.2-0.3l2.2-7.7l2.2,7.7C119,11.6,118.3,11.7,117.5,11.7z"/>
</svg>
