<svg fill="none" height="32" viewBox="0 0 158 32" width="158" xmlns="http://www.w3.org/2000/svg" xmlns:xlink="http://www.w3.org/1999/xlink"><linearGradient id="a" gradientUnits="userSpaceOnUse" x1="17.0539" x2="6.74455" y1="7.70583" y2="18.0152"><stop offset=".2" stop-color="#0052cc"/><stop offset="1" stop-color="#2684ff"/></linearGradient><path d="m0 0h158v32h-158z" fill="#fff" fill-opacity=".01"/><path clip-rule="evenodd" d="m47.9567 24.3953c-1.2976.8579-3.3595 1.2364-5.5187 1.2364-6.8452 0-10.7022-4.1237-10.7022-10.6878 0-6.32618 3.857-10.78515 10.6445-10.78515 2.0295 0 4.0589.36047 5.5512 1.44187v2.75756c-1.4923-.95163-3.1397-1.44186-5.5512-1.44186-4.8843 0-7.8041 3.24418-7.8041 8.02758s3.0135 7.9627 7.9736 7.9627c1.8785.0178 3.7335-.4187 5.4069-1.2725zm2.6391-7.04c0-4.7581 2.79-8.2186 7.5481-8.2186 4.7582 0 7.4761 3.4461 7.4761 8.2186 0 4.7726-2.7612 8.2907-7.4869 8.2907s-7.5373-3.5361-7.5373-8.2907zm2.6638 0c0 3.0135 1.4924 5.7386 4.8843 5.7386 3.392 0 4.8231-2.7251 4.8231-5.7386s-1.4419-5.6809-4.8231-5.6809c-3.3811 0-4.8843 2.6674-4.8843 5.6809zm26.2953 7.9592h2.7287v-8.817c0-3.2046 1.7591-4.8843 4.2823-4.8843 2.599 0 3.7417 1.6185 3.7417 4.8843v8.817h2.7287v-9.2928c0-4.4734-1.9682-6.88494-5.5187-6.88494-2.6314 0-4.7582 1.42744-5.6449 3.87144-.7931-2.5053-2.635-3.87144-5.3313-3.87144-1.0229-.02124-2.0319.24008-2.9159.75521s-1.6088 1.26413-2.0946 2.16453v-2.60253h-2.7287v15.86053h2.7287v-8.817c0-3.2046 1.7591-4.8843 4.2823-4.8843 2.599 0 3.7417 1.2688 3.7417 4.1237zm20.6681-2.7901v8.9756h-2.7282v-22.04609h2.7282v2.85489c1.013-2.0907 2.92-3.1721 5.361-3.1721 4.217 0 6.344 3.6047 6.344 8.2475 0 4.4733-2.221 8.2474-6.662 8.2474-2.332 0-4.109-1.0453-5.043-3.1072zm4.624-10.85c-2.466.0037-4.624 1.5614-4.624 5.0753v1.2689c0 3.5217 1.997 5.0753 4.326 5.0753 3.075 0 4.661-2.0294 4.661-5.7097-.029-3.8024-1.547-5.7057-4.363-5.7098zm15.628 13.9572c2.444 0 4.347-1.0778 5.36-3.1721l.004 2.8549h2.728v-15.86049h-2.728v2.79359c-.956-2.0618-2.733-3.1108-5.047-3.1108-4.441 0-6.661 3.7777-6.661 8.2475 0 4.6644 2.127 8.2474 6.344 8.2474zm5.36-7.613c0 3.5217-2.188 5.0753-4.632 5.0753-2.822 0-4.343-1.9032-4.354-5.7097 0-3.6768 1.586-5.7098 4.661-5.7098 2.328 0 4.325 1.5572 4.325 5.0753zm11.834 7.6131c-1.905.0502-3.796-.3448-5.522-1.1535v-2.8837c1.732.9613 3.669 1.494 5.648 1.5536 2.095 0 3.173-.8579 3.173-2.0943s-.923-1.9033-3.933-2.6314c-3.522-.8579-5.014-2.2205-5.014-4.8231 0-2.7575 2.127-4.4409 5.742-4.4409 1.769-.02516 3.518.36628 5.108 1.1427v2.8224c-1.903-.9516-3.457-1.4418-5.14-1.4418-1.997 0-3.075.6957-3.075 1.9321 0 1.1102.76 1.8023 3.677 2.5232 3.521.8543 5.298 2.1628 5.298 4.9132 0 2.5845-1.712 4.5815-5.962 4.5815zm8.566-1.1535c1.73.8123 3.626 1.2074 5.536 1.1535 4.232 0 5.945-1.997 5.945-4.5815 0-2.7504-1.778-4.0589-5.296-4.9132-2.919-.7209-3.68-1.413-3.68-2.5232 0-1.2364 1.078-1.9321 3.075-1.9321 1.683 0 3.237.4902 5.14 1.4418v-2.8224c-1.589-.77642-3.339-1.16786-5.108-1.1427-3.615 0-5.742 1.6834-5.742 4.4409 0 2.6026 1.492 3.9652 5.014 4.8231 3.014.7281 3.933 1.395 3.933 2.6314s-1.078 2.0943-3.172 2.0943c-1.979-.0595-3.915-.5922-5.645-1.5536z" fill="#253858" fill-rule="evenodd"/><path d="m12.0146 12.7019v6.0955h-6.00901v-6.0955h6.00901v-6.09188h-10.96182c-.1404.00092-.279218.02974-.408389.08477-.12917.05503-.246118.13518-.344049.2358-.09793.10061-.174892.21968-.2264137.35029-.0515214.13061-.07657556.27016-.0737071.41053v16.14889c-.00286846.1404.0221857.2799.0737071.4105.0515217.1306.1284837.2497.2264137.3503.097931.1006.214879.1808.344049.2358.129171.055.267989.0839.408389.0848h15.90372c.1405-.0009.2793-.0298.4084-.0848.1292-.055.2462-.1352.3441-.2358s.1749-.2197.2264-.3503.0766-.2701.0737-.4105v-11.1384z" fill="url(#a)"/><path d="m12.0138.514358v6.095482h6.0234v6.09186h5.991v-11.12036c.0028-.14038-.0222-.27992-.0737-.41054-.0516-.13061-.1285-.249676-.2264-.35029-.098-.100614-.2149-.180765-.3441-.235797s-.268-.083848-.4084-.084774z" fill="#2684ff"/></svg>