<svg xmlns="http://www.w3.org/2000/svg" viewBox="0 0 36 36"><style type="text/css">  .st0{fill:#DFE1E5;}.st1{fill:#0049B0;}</style><path class="st0" d="M3 0h30c1.7 0 3 1.3 3 3v30c0 1.7-1.3 3-3 3H3c-1.7 0-3-1.3-3-3V3C0 1.3 1.3 0 3 0z"/><path class="st1" d="M6.3 7c0-0.5 0.5-1 1-1h4c0.5 0 1 0.5 1 1v4c0 0.5-0.5 1-1 1h-4c-0.5 0-1-0.5-1-1V7zM6.3 16c0-0.5 0.5-1 1-1h4c0.5 0 1 0.5 1 1v4c0 0.5-0.5 1-1 1h-4c-0.5 0-1-0.5-1-1V16zM15.3 7c0-0.5 0.5-1 1-1h4c0.5 0 1 0.5 1 1v4c0 0.5-0.5 1-1 1h-4c-0.5 0-1-0.5-1-1V7zM15.3 16c0-0.5 0.5-1 1-1h4c0.5 0 1 0.5 1 1v4c0 0.5-0.5 1-1 1h-4c-0.5 0-1-0.5-1-1V16zM24.3 7c0-0.5 0.5-1 1-1h4c0.5 0 1 0.5 1 1v4c0 0.5-0.5 1-1 1h-4c-0.5 0-1-0.5-1-1V7zM24.3 16c0-0.5 0.5-1 1-1h4c0.5 0 1 0.5 1 1v4c0 0.5-0.5 1-1 1h-4c-0.5 0-1-0.5-1-1V16zM6.3 25c0-0.5 0.5-1 1-1h4c0.5 0 1 0.5 1 1v4c0 0.5-0.5 1-1 1h-4c-0.5 0-1-0.5-1-1V25zM15.3 25c0-0.5 0.5-1 1-1h4c0.5 0 1 0.5 1 1v4c0 0.5-0.5 1-1 1h-4c-0.5 0-1-0.5-1-1V25zM24.3 25c0-0.5 0.5-1 1-1h4c0.5 0 1 0.5 1 1v4c0 0.5-0.5 1-1 1h-4c-0.5 0-1-0.5-1-1V25z"/></svg>