<svg width="1440" height="862" viewBox="0 0 1440 862" fill="none" xmlns="http://www.w3.org/2000/svg">
<mask id="mask0_2008_28428" style="mask-type:alpha" maskUnits="userSpaceOnUse" x="0" y="0" width="575" height="862">
<rect width="575" height="862" fill="url(#paint0_linear_2008_28428)"/>
</mask>
<g mask="url(#mask0_2008_28428)">
<path opacity="0.2" d="M427.344 152.45L-242 152.45" stroke="url(#paint1_linear_2008_28428)"/>
<path opacity="0.2" d="M427.345 247.142L-242 247.142" stroke="url(#paint2_linear_2008_28428)"/>
<path opacity="0.2" d="M427.345 341.835L-242 341.835" stroke="url(#paint3_linear_2008_28428)"/>
<path opacity="0.2" d="M427.345 436.527L-242 436.527" stroke="url(#paint4_linear_2008_28428)"/>
<path opacity="0.2" d="M427.345 531.218L-242 531.218" stroke="url(#paint5_linear_2008_28428)"/>
<path opacity="0.2" d="M427.345 625.91L-242 625.91" stroke="url(#paint6_linear_2008_28428)"/>
<path opacity="0.2" d="M427.345 720.603L-242 720.603" stroke="url(#paint7_linear_2008_28428)"/>
<path opacity="0.2" d="M427.345 815.294L-242 815.294" stroke="url(#paint8_linear_2008_28428)"/>
<path opacity="0.2" d="M328.952 1959L328.952 0" stroke="#A5ADBA"/>
<path opacity="0.2" d="M234.955 1959L234.955 0" stroke="#A5ADBA"/>
<path opacity="0.2" d="M140.958 1959L140.958 0" stroke="#A5ADBA"/>
<path opacity="0.2" d="M46.7148 1886L46.7148 0" stroke="#A5ADBA"/>
</g>
<mask id="mask1_2008_28428" style="mask-type:alpha" maskUnits="userSpaceOnUse" x="0" y="0" width="218" height="490">
<rect width="218" height="490" fill="#D9D9D9"/>
</mask>
<g mask="url(#mask1_2008_28428)">
<g filter="url(#filter0_d_2008_28428)">
<path d="M43.256 405.611C48.6192 375.011 68.603 371.351 93.9501 366.73C120 358.5 157.454 355.073 185.534 308.267C199.574 284.81 208.387 262.313 212.452 239.461C216.073 219.061 215.834 198.767 211.735 177.55C204.049 138.135 183.553 100.925 163.774 64.887C145.225 31.1593 125.993 -3.74128 116.53 -41.3073C111.406 -61.4942 109.527 -80.7215 110.62 -100.126C111.918 -121.913 116.974 -143.379 126.163 -165.627C142.219 -204.508 147.787 -243.176 142.765 -280.493C141.809 -287.388 140.545 -294.212 138.871 -301L137.129 -301C138.803 -294.105 140.135 -287.21 141.091 -280.209C146.113 -243.176 140.545 -204.864 124.66 -166.267C113.353 -138.865 108.673 -113.454 108.673 -89.5355C108.673 -31.747 135.797 17.5829 162.271 65.7399C182.938 103.306 202.443 138.704 210.061 177.905C214.195 198.874 214.4 218.954 210.779 239.105C206.782 261.78 193.061 293.321 183.5 306.5C165 332 158.5 348 93.6768 365.024C80.5933 367.406 69.2863 369.502 60.1996 374.976C50.1223 381.053 44.2125 390.756 41.6505 405.292C34.0669 448.366 22.1107 473.955 3.93736 485.861C-0.366856 488.704 -5.04674 490.801 -10 492.187L-10 494C-4.70514 492.543 0.17976 490.41 4.82557 487.318C23.3747 475.164 35.6382 449.219 43.256 405.611Z" fill="#B3F5FF"/>
<path d="M28.0259 366.133L28.026 366.132C30.7433 347.41 34.8329 337.293 41.129 330.891C47.4371 324.477 56.0183 321.721 67.9854 317.892L67.986 317.892L68.2309 317.813C89.0784 311.113 120.665 300.961 166.299 261.658C181.754 248.364 190.961 234.84 195.351 220.994C199.741 207.146 199.298 193.02 195.527 178.547C187.997 149.643 167.162 119.257 144.883 86.7646L144.865 86.7385L144.453 87.0213L144.865 86.7385C99.5903 20.7291 48.5629 -53.8555 85.3349 -144.867C99.5148 -179.898 106.501 -215.268 106.18 -250.023L106.18 -250.023C105.931 -275.877 101.654 -301.513 93.3845 -326.159L93.2701 -326.5L92.9105 -326.5L91.0608 -326.5L90.365 -326.5L90.5869 -325.841C98.8582 -301.257 103.153 -275.836 103.366 -250.014L103.366 -250.013C103.721 -215.622 96.6934 -180.675 82.7006 -145.973C66.0041 -104.735 65.7231 -63.0534 81.6977 -18.7234L81.6978 -18.7229C95.583 19.6838 119.133 54.1571 141.887 87.467L142.475 88.3266L142.475 88.3271C164.547 120.551 185.293 150.843 192.701 179.174L192.701 179.174C196.806 194.792 196.596 208.959 191.939 222.172C187.281 235.388 178.158 247.691 164.366 259.547C118.912 298.624 87.645 308.615 66.9797 315.218L66.9694 315.222L66.9661 315.223C55.0464 319.031 45.944 321.94 39.1503 328.791C32.3437 335.654 27.9127 346.403 25.0801 365.732C21.7803 388.262 13.7164 402.175 1.26672 407.372C-1.87891 408.664 -5.3123 409.422 -9.03865 409.711L-9.5 409.746L-9.5 410.209L-9.5 412L-9.5 412.533L-8.96825 412.499C-4.90347 412.24 -1.14836 411.427 2.25485 409.976C16.0886 404.282 24.6023 389.437 28.0259 366.133Z" stroke="#B3F5FF"/>
<path d="M118.789 190.753C130.047 173.863 129.674 151.157 117.521 123.381C107.903 101.309 90.9027 75.9559 67.0432 47.9931C42.5872 19.4338 15.8571 -6.10555 -1.70198 -22.063L-1.70198 -19.6396C15.8571 -3.71939 41.8789 21.2234 65.7384 49.1117C89.5233 76.9626 106.411 102.129 115.955 124.015C127.81 151.195 128.295 173.267 117.372 189.634C92.0211 227.626 49.2231 247.834 11.4579 265.618C7.02156 267.744 2.6598 269.757 -1.62745 271.807L-1.62745 273.821C2.88349 271.621 7.50624 269.459 12.2409 267.259C50.1551 249.474 93.2141 229.155 118.789 190.753Z" fill="#B3F5FF"/>
<mask id="path-18-inside-1_2008_28428" fill="white">
<path d="M54.3679 142.172C59.96 134.268 59.8481 124.052 53.9951 111.823C49.3723 102.204 41.2452 91.3167 29.7255 79.4605C18.7278 68.1635 6.76083 57.9851 -1.70184 51.3113L-1.70184 53.6974C21.934 72.6749 70.5103 116.148 52.8767 141.053C41.4316 157.16 18.7651 166.593 -1.70184 174.72L-1.70184 176.659C19.1379 168.419 42.5127 158.875 54.3679 142.172Z"/>
</mask>
<path d="M54.3679 142.172C59.96 134.268 59.8481 124.052 53.9951 111.823C49.3723 102.204 41.2452 91.3167 29.7255 79.4605C18.7278 68.1635 6.76083 57.9851 -1.70184 51.3113L-1.70184 53.6974C21.934 72.6749 70.5103 116.148 52.8767 141.053C41.4316 157.16 18.7651 166.593 -1.70184 174.72L-1.70184 176.659C19.1379 168.419 42.5127 158.875 54.3679 142.172Z" fill="#79E2F2"/>
<path d="M54.3679 142.172L55.9989 143.329L56.0006 143.327L54.3679 142.172ZM53.9951 111.823L55.7991 110.959L55.7977 110.957L53.9951 111.823ZM29.7255 79.4605L31.1599 78.0668L31.1586 78.0654L29.7255 79.4605ZM-1.70184 51.3113L-0.463375 49.7409L-3.70184 47.187L-3.70184 51.3113L-1.70184 51.3113ZM-1.70184 53.6974L-3.70184 53.6974L-3.70184 54.6565L-2.95399 55.257L-1.70184 53.6974ZM52.8767 141.053L54.507 142.212L54.509 142.209L52.8767 141.053ZM-1.70184 174.72L-2.44 172.862L-3.70184 173.363L-3.70184 174.72L-1.70184 174.72ZM-1.70184 176.659L-3.70184 176.659L-3.70184 179.601L-0.966467 178.519L-1.70184 176.659ZM56.0006 143.327C62.1696 134.607 61.8258 123.551 55.7991 110.959L52.1911 112.686C57.8704 124.552 57.7503 133.928 52.7352 141.017L56.0006 143.327ZM55.7977 110.957C51.0464 101.07 42.7606 90.0064 31.1599 78.0668L28.2911 80.8542C39.7297 92.627 47.6983 103.337 52.1925 112.689L55.7977 110.957ZM31.1586 78.0654C20.0829 66.6884 8.04579 56.4513 -0.463375 49.7409L-2.94029 52.8817C5.47586 59.5188 17.3726 69.6386 28.2924 80.8556L31.1586 78.0654ZM-3.70184 51.3113L-3.70184 53.6974L0.298164 53.6974L0.298164 51.3113L-3.70184 51.3113ZM-2.95399 55.257C8.83385 64.7215 26.7428 80.22 39.4929 96.3906C45.8746 104.484 50.8629 112.622 53.2016 120.158C55.5279 127.655 55.18 134.339 51.2444 139.898L54.509 142.209C59.3902 135.315 59.5829 127.225 57.0219 118.973C54.4734 110.76 49.1467 102.174 42.634 93.914C29.5954 77.3775 11.3983 61.6508 -0.44968 52.1379L-2.95399 55.257ZM51.2464 139.895C45.768 147.604 37.5285 153.814 27.9961 159.132C18.4696 164.448 7.80082 168.795 -2.44 172.862L-0.963674 176.579C9.26246 172.518 20.1604 168.085 29.9451 162.625C39.724 157.169 48.5403 150.609 54.507 142.212L51.2464 139.895ZM-3.70184 174.72L-3.70184 176.659L0.298159 176.659L0.298159 174.72L-3.70184 174.72ZM-0.966467 178.519C9.44175 174.404 20.6117 169.914 30.6718 164.339C40.7275 158.765 49.8257 152.027 55.9989 143.329L52.737 141.014C47.0549 149.02 38.5382 155.405 28.7327 160.84C18.9317 166.272 7.99434 170.675 -2.43722 174.799L-0.966467 178.519Z" fill="#79E2F2" mask="url(#path-18-inside-1_2008_28428)"/>
<path d="M18.1314 131.511C19.6599 129.945 20.2563 127.932 20.0326 125.621C19.1752 117.791 7.91645 107.091 -1.9629 99L-1.9629 101.386C7.39453 109.104 17.423 118.947 18.2059 125.844C18.3923 127.597 17.945 129.051 16.7893 130.281C12.8375 134.494 5.60511 139.155 -2.00013 143.405L-2.00013 145.53C6.0152 141.056 13.8814 136.06 18.1314 131.511Z" fill="#79E2F2" fill-opacity="0.5"/>
<path d="M23.1941 133.745L23.1927 133.747C17.2635 140.254 6.30289 147.407 -4.9 153.827L-4.9 150.998C5.76006 144.885 15.9043 138.18 21.4558 132.11C23.0998 130.315 23.7351 128.192 23.4707 125.644L23.4707 125.643C23.1937 123.141 22.1004 120.379 20.4168 117.474C18.7328 114.568 16.4549 111.512 13.8024 108.423C8.50709 102.254 1.71263 95.9404 -4.84773 90.3895L-4.84773 87.2147C2.03907 93.0068 9.38357 99.7137 15.1691 106.372C21.0045 113.089 25.238 119.738 25.8366 125.342C26.1483 128.646 25.3169 131.515 23.1941 133.745Z" stroke="#79E2F2" stroke-width="0.2"/>
<path d="M9.93657 334.117C13.9704 303.354 40.8626 285.295 75.0007 262.531C84.4877 256.161 94.3855 249.538 104.619 242.119C130.279 223.48 145.667 202.562 150.411 180.087C155.789 154.536 147.498 126.452 125.797 96.6299C101.968 63.8768 63.6836 16.4663 28.0888 -24.1765C18.1163 -35.5768 4.81966 -50.4514 -8.9626 -65.0003L-8.9626 -62.3945C1.86897 -50.8133 13.821 -37.6758 26.6695 -23.0184C62.1896 17.5882 100.474 64.9264 124.228 97.6071C164.604 153.161 157.62 201.295 103.387 240.671C93.2277 248.054 83.3299 254.641 73.8429 261.047C39.3686 284.137 12.2149 302.377 8.06904 333.864C5.15573 356.23 -0.596195 369.042 -9 372.118L-9 374C0.486965 371.068 6.79915 357.678 9.93657 334.117Z" fill="#79E2F2" fill-opacity="0.7"/>
<path d="M81.8348 154.622C86.5505 142.748 85.9917 130.527 80.1931 118.345C65.8364 88.121 48.8598 60.7111 29.6826 36.8865C17.8758 22.237 7.08211 11.1728 -1.99999 3L-1.99999 5.50582C18.33 24.126 50.6413 60.0943 78.726 119.155C84.2451 130.836 84.804 142.478 80.3328 153.812C71.2856 176.635 43.3756 194.484 21.4737 205.432C13.1601 209.634 5.02117 213.181 -2 215.995L-2 218C5.16089 215.109 13.5444 211.523 22.1375 207.206C54.3091 191.091 74.4294 173.358 81.8348 154.622Z" fill="#B3F5FF"/>
<path d="M7.18333 188.769C18.8971 184.209 32.2246 178.208 43.837 170.967C55.4431 163.73 65.3669 155.235 70.2337 145.673L70.234 145.673C75.0562 136.152 74.4472 126.367 68.5071 116.576L68.5067 116.575C38.5123 67.4484 4.00958 37.4964 -17.75 21.9573L-17.75 20.4809C-8.13438 27.2503 3.25252 36.3691 15.6938 48.392C36.1777 68.212 54.3119 91.0156 69.6481 116.161L69.6483 116.162C75.8054 126.236 76.3919 136.319 71.3938 146.12L71.3936 146.121L7.09262 188.536M7.18333 188.769L7.09262 188.536M7.18333 188.769C7.18362 188.769 7.18391 188.769 7.1842 188.769L7.09262 188.536M7.18333 188.769C-1.64101 192.243 -10.2805 195.179 -17.75 197.515M7.09262 188.536C-1.79435 192.035 -10.4946 194.988 -18 197.331M-17.75 197.515L-17.75 197.331L-18 197.331M-17.75 197.515C-17.8086 197.533 -17.8671 197.551 -17.9255 197.569L-18 197.331M-17.75 197.515L-18 197.331M-18 198.738L-18 199C-17.9168 198.974 -17.8335 198.947 -17.75 198.921L-17.75 198.659C-17.8335 198.685 -17.9168 198.712 -18 198.738Z" stroke="#B3F5FF" stroke-width="0.5"/>
<path d="M124.942 108.325L135.287 100.468L136.919 113.355L124.942 108.325Z" fill="#79E2F2"/>
<path d="M90.9999 148L128 114" stroke="#7A869A"/>
<g filter="url(#filter1_d_2008_28428)">
<path d="M64 159.729V192.033C64 196.876 67.9131 200.763 72.7884 200.763H105.312C110.187 200.763 114.1 196.876 114.1 192.033V159.729C114.1 154.887 110.187 151 105.312 151H72.7884C67.9131 151 64 154.95 64 159.729Z" fill="url(#paint9_linear_2008_28428)"/>
<path fill-rule="evenodd" clip-rule="evenodd" d="M95.9762 170.946C97.4064 170.946 98.6777 169.833 98.6777 168.244C98.6777 166.814 97.5654 165.543 95.9762 165.543C94.3871 165.543 93.2747 166.655 93.2747 168.244C93.4337 169.674 94.546 170.946 95.9762 170.946ZM95.9762 186.678C97.4064 186.678 98.6777 185.565 98.6777 183.976C98.6777 182.387 97.5654 181.275 95.9762 181.275C94.3871 181.275 93.2747 182.387 93.2747 183.976C93.2747 185.565 94.546 186.678 95.9762 186.678ZM101.22 168.244C101.22 171.104 98.8366 173.488 95.9762 173.488C93.1158 173.488 90.7322 171.104 90.7322 168.244C90.7322 165.384 93.1158 163 95.9762 163C98.8366 163 101.22 165.384 101.22 168.244ZM101.22 183.976C101.22 186.837 98.8366 189.22 95.9762 189.22C93.1158 189.22 90.7322 186.837 90.7322 183.976C90.7322 181.116 93.1158 178.732 95.9762 178.732C98.8366 178.732 101.22 181.116 101.22 183.976Z" fill="white"/>
<path fill-rule="evenodd" clip-rule="evenodd" d="M85.9649 167.608C86.2827 167.29 86.6005 166.973 87.0772 166.973H88.9842C89.7787 166.973 90.2555 167.608 90.2555 168.244C90.2555 169.038 89.6198 169.515 88.9842 169.515H87.8718L86.9183 170.945C86.4416 171.581 85.647 171.74 85.1703 171.263C84.6936 170.787 84.3757 169.992 84.8525 169.515L85.9649 167.608ZM83.7401 173.17C84.3757 173.647 84.5347 174.441 84.0579 174.918L83.2634 176.189L84.0579 177.461C84.5347 178.096 84.2168 178.891 83.7401 179.209C83.1045 179.686 82.3099 179.368 81.9921 178.891L81.0386 177.461C80.5619 177.143 80.403 176.666 80.403 176.348C80.403 175.872 80.5619 175.395 81.0386 175.236L81.9921 173.806C82.3099 173.011 83.1045 172.852 83.7401 173.17ZM75 176.189C75 175.395 75.6356 174.918 76.2713 174.918H78.9728C79.7673 174.918 80.2441 175.554 80.2441 176.189C80.2441 176.189 80.2441 176.189 80.2441 176.348C80.2441 176.348 80.2441 176.348 80.2441 176.507C80.2441 177.302 79.6084 177.779 78.9728 177.779H76.2713C75.4767 177.779 75 177.143 75 176.507C75 176.348 75 176.348 75 176.189ZM84.8525 181.116C85.4881 180.639 86.2827 180.957 86.6005 181.434L87.554 182.864H88.6663C89.4609 182.864 89.9376 183.499 89.9376 184.135C89.9376 184.771 89.302 185.406 88.6663 185.406H86.7594C86.2827 185.406 85.9649 185.247 85.647 184.771L84.3757 182.705C84.2168 182.387 84.3757 181.434 84.8525 181.116Z" fill="white"/>
</g>
</g>
</g>
<mask id="mask2_2008_28428" style="mask-type:alpha" maskUnits="userSpaceOnUse" x="1145" y="0" width="295" height="588">
<rect x="1145" width="295" height="588" fill="#D9D9D9"/>
</mask>
<g mask="url(#mask2_2008_28428)">
<g filter="url(#filter2_d_2008_28428)">
<path d="M1174.21 -103.735C1179.08 -82.5571 1192.2 -69.7022 1210.36 -51.8532C1219.17 -43.1953 1229.2 -33.3382 1239.8 -21.0624C1274.02 18.942 1260.93 58.161 1239.2 123.116C1227.96 156.593 1214.03 198.393 1203.68 250.158C1188.64 325.412 1188.9 375.866 1204.39 404.314C1218.62 430.457 1245.29 439.21 1288.36 432.094C1325.7 425.885 1354.8 383.986 1374.98 307.747C1393.95 235.901 1400.03 150.425 1402.02 106.005C1405.36 28.6558 1413.91 -39.0794 1427.35 -95.5181C1438.06 -140.579 1451.91 -178.545 1468.54 -208.254C1473.98 -218.008 1479.41 -226.332 1484.61 -233.231L1482.09 -233.29C1477.36 -226.705 1472.37 -219.086 1467.36 -210.232C1450.56 -180.267 1436.58 -142.044 1425.82 -96.6591C1412.34 -39.9614 1403.79 28.1637 1400.4 105.771C1398.45 150.193 1392.42 235.28 1373.49 306.737C1353.62 382.073 1324.95 423.397 1288.3 429.493C1245.87 436.558 1219.71 428.078 1205.86 402.659C1190.75 374.87 1190.57 325.197 1205.47 250.915C1215.82 199.345 1229.7 157.739 1240.86 124.325C1251.92 91.3648 1260.65 65.2405 1262.33 41.8764C1264.17 16.5005 1257.62 -3.54646 1240.98 -23.0502C1230.37 -35.456 1220.3 -45.314 1211.45 -54.038C1193.55 -71.556 1180.6 -84.277 1175.97 -104.604C1171.06 -126.042 1175.67 -154.864 1191.44 -201.041C1196.24 -215.101 1201.54 -227.978 1207.04 -239.811L1204.86 -239.862C1199.49 -228.351 1194.45 -215.793 1189.82 -202.184C1173.83 -155.297 1169.13 -125.893 1174.21 -103.735Z" fill="#79E2F2" fill-opacity="0.5"/>
<path d="M1228.45 -151.396C1228.62 -129.447 1235.11 -110.695 1247.7 -95.7479C1259.11 -82.1662 1269.53 -72.5549 1278.64 -63.911C1308.22 -36.2542 1321.73 -23.6269 1300.28 58.4968C1293.99 82.4348 1284.97 110.658 1275.39 140.54C1248.96 222.814 1219.01 316.045 1232.6 366.141C1236.67 381.223 1244.61 391.713 1256.18 397.27C1271.78 404.795 1286.04 402.319 1298.51 389.9C1316.63 371.726 1331.2 332.996 1343.2 271.458C1352.54 223.639 1360.28 161.867 1367.6 77.4052C1374.83 -5.58743 1392.61 -91.2763 1417.7 -163.747C1427.09 -190.757 1437.09 -214.742 1447.04 -234.178L1444.78 -234.231C1435.13 -215.055 1425.48 -191.731 1416.22 -164.986C1391.04 -92.2497 1373.18 -6.22837 1365.95 77.1656C1358.62 161.561 1350.88 223.132 1341.54 270.817C1329.68 331.756 1315.24 369.954 1297.55 387.804C1285.55 399.832 1271.81 402.186 1256.63 394.939C1245.44 389.524 1238.09 379.851 1234.19 365.375C1220.92 316.357 1250.69 223.724 1276.95 141.981C1286.58 112.1 1295.64 83.8116 1301.89 59.7388C1312.48 19.1756 1314.99 -5.85467 1310.23 -24.0305C1305.64 -41.5335 1294.71 -51.8257 1279.56 -65.8967C1270.44 -74.4068 1260.1 -84.016 1248.78 -97.5288C1236.66 -111.93 1230.41 -129.94 1230.2 -151.087C1229.99 -180.932 1241.9 -213.101 1254.51 -238.563L1252.34 -238.614C1232.55 -198.668 1228.3 -169.464 1228.45 -151.396Z" fill="#B3F5FF"/>
<path d="M1272.14 -148.627C1273.7 -133.289 1281.48 -121.777 1295.25 -114.422C1336.33 -92.4273 1333 -43.2819 1330.83 -10.7777C1329.62 6.90399 1328.81 19.7767 1335.48 21.496C1343.95 23.7132 1350.54 16.8358 1356.16 -0.416711C1361.16 -15.7956 1365.2 -37.9034 1369.74 -63.5804C1379.34 -117.267 1391.65 -185.995 1421.99 -234.766L1419.63 -234.822C1389.8 -185.777 1377.62 -117.567 1368.08 -64.2706C1358.99 -13.3723 1352.44 23.3265 1335.76 18.9633C1330.93 17.743 1331.38 7.46602 1332.59 -10.476C1333.65 -27.1192 1335.06 -47.7912 1330.93 -67.4214C1326.02 -90.6508 1314.56 -106.807 1295.88 -116.816C1282.78 -123.83 1275.35 -134.683 1273.86 -148.977C1271.04 -175.933 1289.19 -210.862 1306.53 -237.476L1304.13 -237.533C1303.21 -236.187 1302.34 -234.71 1301.38 -233.235C1279.77 -198.713 1269.91 -170.23 1272.14 -148.627Z" fill="#B3F5FF"/>
<path d="M1331.45 61.5329L1331.45 61.5404L1331.44 61.548L1331.44 61.5512L1331.44 61.5617L1331.42 61.5978C1331.41 61.6281 1331.39 61.6698 1331.36 61.7231C1331.31 61.8295 1331.24 61.9806 1331.15 62.1755L1331.05 62.3781C1330.87 62.7516 1330.63 63.2464 1330.34 63.8566C1329.65 65.3123 1328.65 67.4249 1327.38 70.1171C1324.86 75.5014 1321.28 83.2037 1317.04 92.6059C1308.55 111.41 1297.4 137.014 1286.6 164.472C1272.01 201.435 1261.51 232.805 1255.11 258.393C1248.71 283.974 1246.42 303.799 1248.27 317.662L1248.27 317.662C1249.42 326.269 1252.22 332.67 1256.67 336.551C1260.79 340.181 1264.97 342.113 1269.19 342.336C1273.42 342.558 1277.65 341.069 1281.84 337.923C1290.23 331.64 1298.55 318.712 1306.61 299.378L1306.61 299.378C1320.88 265.029 1334.3 209.909 1342.42 151.936C1345.77 128.122 1348.51 101.023 1348.72 80.7142C1348.79 73.3027 1348.53 66.7725 1347.83 61.6401C1347.48 59.0739 1347.03 56.851 1346.45 55.0392C1345.87 53.2312 1345.17 51.8127 1344.31 50.8732L1344.3 50.8685C1343.5 50.0265 1342.59 49.6065 1341.59 49.6537C1340.61 49.7002 1339.58 50.2014 1338.52 51.1047C1336.4 52.909 1334.04 56.4003 1331.45 61.5329ZM1342.9 53.4681L1342.9 53.4697C1343.62 54.2452 1344.66 56.2278 1345.43 61.0742C1346.19 65.9089 1346.69 73.5562 1346.38 85.6157C1345.9 103.28 1343.75 126.65 1340.27 151.429L1340.27 151.429C1332.2 209.121 1318.83 263.805 1304.71 297.907C1297.3 315.675 1289.79 327.917 1282.24 334.225L1282.23 334.226C1278.1 337.725 1274 339.421 1269.95 339.374C1265.9 339.327 1261.85 337.537 1257.83 333.978C1253.97 330.548 1251.45 324.879 1250.43 317.12L1250.43 317.119C1249.99 313.925 1249.82 310.409 1249.85 306.568C1250.04 288.546 1255.26 264.474 1263.03 238.453C1270.8 212.438 1281.1 184.494 1291.42 158.735C1312.05 107.215 1332.73 64.4522 1333.29 63.3636L1333.29 63.3595C1334.81 60.2662 1336.63 57.0691 1338.39 55.0146C1339.28 53.9836 1340.13 53.2681 1340.9 52.9794C1341.28 52.8369 1341.63 52.8019 1341.95 52.8748C1342.27 52.9475 1342.59 53.1323 1342.9 53.4681Z" stroke="#79E2F2" stroke-opacity="0.5" stroke-width="0.5"/>
<path d="M1316.59 151.72C1316.46 152.044 1305.6 177.256 1295.41 205.428C1281.69 243.469 1275.64 268.597 1277.43 280.03C1277.88 282.855 1278.81 284.972 1280.27 286.185C1286.28 291.367 1292.73 285.954 1299.52 269.943C1306.21 253.996 1313.11 227.186 1318.03 198.169C1318.95 192.626 1322.51 170.713 1322.64 157.819C1322.68 153.107 1322.33 149.629 1321.17 148.424C1319.33 146.351 1317.26 150.427 1316.59 151.72ZM1320.16 150.495C1321.57 152.033 1321.32 167.936 1316.35 197.54C1311.51 226.363 1304.62 252.911 1298.02 268.598C1291.85 283.249 1286.22 288.354 1281.16 283.914C1280.17 283.04 1279.49 281.584 1279.17 279.416C1278.97 278.102 1278.85 276.724 1278.87 275.023C1279.18 244.196 1316.94 155.722 1318.01 153.325C1319.42 150.543 1320.11 150.297 1320.16 150.495Z" fill="#B3F5FF"/>
<path d="M1430.26 258.847L1430.26 258.847C1443.95 286.272 1458.92 310.796 1468.75 326.118L1469.3 326.979L1469.3 325.956L1469.3 323.629L1469.3 323.541L1469.25 323.467C1459.43 308.192 1444.87 284.261 1431.52 257.506C1418.22 230.786 1408.78 206.651 1403.44 185.671L1403.15 185.745L1403.44 185.671C1396.81 159.61 1396.56 138.496 1402.64 122.87L1402.36 122.761L1402.64 122.87C1416.79 86.4842 1440.69 67.1308 1461.82 50.062L1461.83 50.0604C1463.07 49.0415 1464.3 48.0492 1465.52 47.065L1465.63 46.9714C1466.81 46.0191 1467.99 45.0738 1469.15 44.12L1469.26 44.03L1469.26 43.888L1469.26 41.9556L1469.26 41.3136L1468.77 41.7254C1466.24 43.8344 1463.66 45.9082 1461.01 48.0194L1461.01 48.0202C1439.79 65.092 1415.63 84.6383 1401.29 121.579C1394.95 137.873 1395.17 159.738 1401.98 186.427C1407.37 207.639 1416.9 231.995 1430.26 258.847Z" stroke="#79E2F2" stroke-width="0.6"/>
<path d="M1472.65 -30.982C1470.02 2.2332 1452.48 21.7325 1430.22 46.3117C1424.03 53.1892 1417.57 60.3402 1410.9 68.3509C1394.17 88.4754 1384.13 111.062 1381.04 135.328C1377.53 162.916 1382.94 193.24 1397.09 225.439C1412.63 260.804 1437.6 311.994 1460.81 355.877C1467.32 368.186 1475.99 384.247 1484.98 399.956L1484.98 397.142C1477.91 384.638 1470.12 370.453 1461.74 354.627C1438.57 310.783 1413.6 259.67 1398.11 224.384C1371.78 164.401 1376.34 112.429 1411.7 69.914C1418.33 61.9424 1424.78 54.8304 1430.97 47.9139C1453.46 22.983 1471.16 3.28825 1473.87 -30.7085C1475.77 -54.8578 1479.52 -68.691 1485 -72.0125L1485 -74.0445C1478.81 -70.8792 1474.7 -56.4209 1472.65 -30.982Z" fill="#79E2F2" fill-opacity="0.4"/>
<path d="M1416.89 97.4345C1415.43 67.1777 1417.55 30.7643 1422.85 -2.285C1432.57 -63.5962 1459.65 -182.407 1477.66 -259.531L1480.46 -259.177C1462.39 -182.062 1435.26 -62.4592 1425.4 -1.05215C1420.26 31.5618 1418.04 67.3923 1419.51 97.1966C1421.64 140.297 1430.25 156.535 1437.14 162.532C1443.38 167.99 1451.09 167.825 1460.14 161.905L1459.87 166.997C1450.56 172.542 1442.53 172.212 1435.83 166.354C1422.38 154.516 1418.07 122.418 1416.89 97.4345Z" fill="#B3F5FF"/>
<path d="M1310.25 530.899C1322.26 570.882 1332.9 590.713 1342.2 589.456C1348.89 588.674 1354.3 577.535 1358.34 555.231C1362.84 530.658 1365.16 507.107 1365.37 486.859C1365.67 456.554 1361.3 433.785 1352.53 426.336C1341.25 416.817 1327.45 435.002 1317.64 452.074C1305.28 473.512 1302.45 504.562 1310.25 530.899ZM1350.92 431.127C1363.65 442.022 1365.52 497.056 1354.97 553.945C1351.39 573.175 1346.95 583.666 1341.91 584.219C1334.52 585.118 1324.4 565.298 1313.4 528.693C1310.63 519.373 1309.34 509.284 1309.44 499.227C1309.6 483.538 1313.32 467.933 1320.3 455.623C1333.02 433.389 1343.51 425.052 1350.92 431.127Z" fill="#B3F5FF" fill-opacity="0.4"/>
<path d="M1318.31 519.088L1318.31 519.089C1322.7 533.68 1326.83 544.612 1330.73 551.785C1332.68 555.37 1334.58 558.032 1336.43 559.743C1338.27 561.453 1340.1 562.237 1341.9 561.995C1344.48 561.693 1346.73 559.41 1348.71 555.259C1350.69 551.092 1352.41 544.967 1353.89 536.822C1357.18 518.88 1358.87 501.681 1359.02 486.891C1359.13 475.824 1358.39 466.123 1356.82 458.503C1355.24 450.897 1352.83 445.31 1349.56 442.534L1349.56 442.533C1347.45 440.747 1345.19 440.253 1342.91 440.731C1340.63 441.206 1338.34 442.634 1336.1 444.651C1331.63 448.684 1327.31 455.144 1323.73 461.376C1314.67 477.084 1312.6 499.813 1318.31 519.088ZM1341.62 557.677L1341.62 557.677C1340.39 557.826 1339 557.121 1337.44 555.458C1335.89 553.802 1334.22 551.246 1332.46 547.818C1328.95 540.966 1325.1 530.691 1321.09 517.341C1319.08 510.568 1318.14 503.231 1318.21 495.915C1318.33 484.502 1321.03 473.159 1326.1 464.219C1330.74 456.114 1334.95 450.571 1338.67 447.606C1340.52 446.125 1342.23 445.301 1343.8 445.108C1345.35 444.917 1346.77 445.344 1348.07 446.41C1350.32 448.341 1352.14 452.271 1353.45 457.793C1354.76 463.302 1355.56 470.346 1355.83 478.447C1356.37 494.648 1354.79 515.047 1350.94 535.787C1349.63 542.796 1348.17 548.196 1346.59 551.89C1345.79 553.737 1344.98 555.145 1344.14 556.112C1343.3 557.079 1342.46 557.585 1341.62 557.677Z" stroke="#B3F5FF" stroke-width="0.5"/>
<path d="M1326.99 509.585C1331.55 524.765 1335.59 532.294 1339.12 531.817C1341.66 531.52 1343.72 527.291 1345.25 518.823C1346.96 509.494 1347.84 500.553 1347.92 492.866C1348.03 481.36 1346.38 472.716 1343.04 469.888C1338.76 466.274 1333.52 473.178 1329.8 479.659C1325.1 487.798 1324.03 499.586 1326.99 509.585ZM1342.43 471.707C1347.27 475.843 1347.98 496.737 1343.97 518.335C1342.61 525.635 1340.93 529.618 1339.01 529.828C1336.21 530.17 1332.36 522.645 1328.19 508.748C1327.14 505.21 1326.65 501.379 1326.69 497.561C1326.75 491.605 1328.16 485.68 1330.81 481.007C1335.64 472.566 1339.62 469.4 1342.43 471.707Z" fill="#B3F5FF"/>
<path d="M1354.01 189.584L1359.06 200.357L1347.21 199.345L1354.01 189.584Z" fill="#B3F5FF"/>
</g>
<g filter="url(#filter3_d_2008_28428)">
<path d="M1341 226.729V259.033C1341 263.876 1344.91 267.763 1349.79 267.763H1382.31C1387.19 267.763 1391.1 263.876 1391.1 259.033V226.729C1391.1 221.887 1387.19 218 1382.31 218H1349.79C1344.91 218 1341 221.95 1341 226.729Z" fill="url(#paint10_linear_2008_28428)"/>
<rect width="29" height="29" transform="translate(1352 228.505)" fill="white" fill-opacity="0.01"/>
<path fill-rule="evenodd" clip-rule="evenodd" d="M1361.82 240.589H1356.83C1355.49 240.589 1354.42 241.67 1354.42 243.005V247.513C1354.42 249.095 1356.68 249.993 1359.25 250.207V246.626C1359.25 245.665 1359.63 244.745 1360.31 244.066C1360.99 243.388 1361.91 243.006 1362.88 243.005H1363.3C1362.58 242.366 1362.06 241.525 1361.82 240.589ZM1371.18 240.589H1376.17C1377.5 240.589 1378.58 241.658 1378.58 243.005V247.513C1378.58 249.095 1376.32 249.993 1373.75 250.207V246.626C1373.75 245.665 1373.37 244.744 1372.69 244.066C1372.01 243.387 1371.09 243.005 1370.13 243.005H1369.7C1370.42 242.366 1370.94 241.525 1371.18 240.589ZM1364.04 235.217C1363.93 234.478 1363.6 233.792 1363.08 233.253C1362.56 232.713 1361.89 232.345 1361.16 232.2C1360.43 232.056 1359.67 232.14 1358.99 232.443C1358.31 232.746 1357.73 233.252 1357.35 233.892C1356.97 234.533 1356.79 235.276 1356.84 236.02C1356.9 236.765 1357.18 237.475 1357.65 238.052C1358.13 238.63 1358.77 239.048 1359.49 239.248C1360.2 239.449 1360.97 239.422 1361.67 239.173C1361.71 238.368 1361.94 237.584 1362.36 236.893C1362.77 236.202 1363.35 235.626 1364.04 235.217ZM1371.33 239.173C1372.03 239.422 1372.8 239.449 1373.52 239.248C1374.23 239.048 1374.87 238.63 1375.35 238.053C1375.82 237.475 1376.1 236.765 1376.16 236.021C1376.21 235.277 1376.04 234.533 1375.65 233.893C1375.27 233.253 1374.7 232.747 1374.01 232.444C1373.33 232.14 1372.57 232.055 1371.84 232.2C1371.11 232.344 1370.44 232.712 1369.92 233.251C1369.41 233.791 1369.07 234.476 1368.96 235.214C1369.65 235.623 1370.23 236.2 1370.65 236.892C1371.06 237.583 1371.3 238.367 1371.33 239.173Z" fill="white"/>
<path fill-rule="evenodd" clip-rule="evenodd" d="M1360.46 246.63C1360.46 245.295 1361.53 244.214 1362.88 244.214H1370.13C1371.46 244.214 1372.54 245.283 1372.54 246.63V251.138C1372.54 254.795 1360.46 254.795 1360.46 251.138V246.63Z" fill="white"/>
<path d="M1366.5 243.005C1368.5 243.005 1370.13 241.383 1370.13 239.38C1370.13 237.378 1368.5 235.755 1366.5 235.755C1364.5 235.755 1362.88 237.378 1362.88 239.38C1362.88 241.383 1364.5 243.005 1366.5 243.005Z" fill="white"/>
</g>
</g>
<defs>
<filter id="filter0_d_2008_28428" x="-22" y="-337" width="241.1" height="839" filterUnits="userSpaceOnUse" color-interpolation-filters="sRGB">
<feFlood flood-opacity="0" result="BackgroundImageFix"/>
<feColorMatrix in="SourceAlpha" type="matrix" values="0 0 0 0 0 0 0 0 0 0 0 0 0 0 0 0 0 0 127 0" result="hardAlpha"/>
<feOffset dy="4"/>
<feGaussianBlur stdDeviation="2"/>
<feColorMatrix type="matrix" values="0 0 0 0 0.756863 0 0 0 0 0.780392 0 0 0 0 0.815686 0 0 0 0.2 0"/>
<feBlend mode="normal" in2="BackgroundImageFix" result="effect1_dropShadow_2008_28428"/>
<feBlend mode="normal" in="SourceGraphic" in2="effect1_dropShadow_2008_28428" result="shape"/>
</filter>
<filter id="filter1_d_2008_28428" x="60" y="151" width="58.1001" height="57.7627" filterUnits="userSpaceOnUse" color-interpolation-filters="sRGB">
<feFlood flood-opacity="0" result="BackgroundImageFix"/>
<feColorMatrix in="SourceAlpha" type="matrix" values="0 0 0 0 0 0 0 0 0 0 0 0 0 0 0 0 0 0 127 0" result="hardAlpha"/>
<feOffset dy="4"/>
<feGaussianBlur stdDeviation="2"/>
<feColorMatrix type="matrix" values="0 0 0 0 0.419608 0 0 0 0 0.466667 0 0 0 0 0.54902 0 0 0 0.15 0"/>
<feBlend mode="normal" in2="BackgroundImageFix" result="effect1_dropShadow_2008_28428"/>
<feBlend mode="normal" in="SourceGraphic" in2="effect1_dropShadow_2008_28428" result="shape"/>
</filter>
<filter id="filter2_d_2008_28428" x="1141" y="-259.531" width="348" height="857.044" filterUnits="userSpaceOnUse" color-interpolation-filters="sRGB">
<feFlood flood-opacity="0" result="BackgroundImageFix"/>
<feColorMatrix in="SourceAlpha" type="matrix" values="0 0 0 0 0 0 0 0 0 0 0 0 0 0 0 0 0 0 127 0" result="hardAlpha"/>
<feOffset dy="4"/>
<feGaussianBlur stdDeviation="2"/>
<feColorMatrix type="matrix" values="0 0 0 0 0.756863 0 0 0 0 0.780392 0 0 0 0 0.815686 0 0 0 0.2 0"/>
<feBlend mode="normal" in2="BackgroundImageFix" result="effect1_dropShadow_2008_28428"/>
<feBlend mode="normal" in="SourceGraphic" in2="effect1_dropShadow_2008_28428" result="shape"/>
</filter>
<filter id="filter3_d_2008_28428" x="1337" y="218" width="58.1001" height="57.7627" filterUnits="userSpaceOnUse" color-interpolation-filters="sRGB">
<feFlood flood-opacity="0" result="BackgroundImageFix"/>
<feColorMatrix in="SourceAlpha" type="matrix" values="0 0 0 0 0 0 0 0 0 0 0 0 0 0 0 0 0 0 127 0" result="hardAlpha"/>
<feOffset dy="4"/>
<feGaussianBlur stdDeviation="2"/>
<feColorMatrix type="matrix" values="0 0 0 0 0.419608 0 0 0 0 0.466667 0 0 0 0 0.54902 0 0 0 0.2 0"/>
<feBlend mode="normal" in2="BackgroundImageFix" result="effect1_dropShadow_2008_28428"/>
<feBlend mode="normal" in="SourceGraphic" in2="effect1_dropShadow_2008_28428" result="shape"/>
</filter>
<linearGradient id="paint0_linear_2008_28428" x1="287.5" y1="0" x2="287.5" y2="862" gradientUnits="userSpaceOnUse">
<stop offset="0.707657" stop-color="#FF0000"/>
<stop offset="0.994792" stop-color="#FF0000" stop-opacity="0"/>
</linearGradient>
<linearGradient id="paint1_linear_2008_28428" x1="427.344" y1="152.95" x2="-242" y2="152.95" gradientUnits="userSpaceOnUse">
<stop offset="0.734375" stop-color="#A5ADBA"/>
<stop offset="1" stop-color="#A5ADBA" stop-opacity="0.2"/>
</linearGradient>
<linearGradient id="paint2_linear_2008_28428" x1="427.345" y1="247.642" x2="-242" y2="247.642" gradientUnits="userSpaceOnUse">
<stop offset="0.734375" stop-color="#A5ADBA"/>
<stop offset="1" stop-color="#A5ADBA" stop-opacity="0.2"/>
</linearGradient>
<linearGradient id="paint3_linear_2008_28428" x1="427.345" y1="342.335" x2="-242" y2="342.335" gradientUnits="userSpaceOnUse">
<stop offset="0.734375" stop-color="#A5ADBA"/>
<stop offset="1" stop-color="#A5ADBA" stop-opacity="0.2"/>
</linearGradient>
<linearGradient id="paint4_linear_2008_28428" x1="427.345" y1="437.027" x2="-242" y2="437.027" gradientUnits="userSpaceOnUse">
<stop offset="0.734375" stop-color="#A5ADBA"/>
<stop offset="1" stop-color="#A5ADBA" stop-opacity="0.2"/>
</linearGradient>
<linearGradient id="paint5_linear_2008_28428" x1="427.345" y1="531.718" x2="-242" y2="531.718" gradientUnits="userSpaceOnUse">
<stop offset="0.734375" stop-color="#A5ADBA"/>
<stop offset="1" stop-color="#A5ADBA" stop-opacity="0.2"/>
</linearGradient>
<linearGradient id="paint6_linear_2008_28428" x1="427.345" y1="626.41" x2="-242" y2="626.41" gradientUnits="userSpaceOnUse">
<stop offset="0.734375" stop-color="#A5ADBA"/>
<stop offset="1" stop-color="#A5ADBA" stop-opacity="0.2"/>
</linearGradient>
<linearGradient id="paint7_linear_2008_28428" x1="427.345" y1="721.103" x2="-242" y2="721.103" gradientUnits="userSpaceOnUse">
<stop offset="0.734375" stop-color="#A5ADBA"/>
<stop offset="1" stop-color="#A5ADBA" stop-opacity="0.2"/>
</linearGradient>
<linearGradient id="paint8_linear_2008_28428" x1="427.345" y1="815.794" x2="-242" y2="815.794" gradientUnits="userSpaceOnUse">
<stop offset="0.734375" stop-color="#A5ADBA"/>
<stop offset="1" stop-color="#A5ADBA" stop-opacity="0.2"/>
</linearGradient>
<linearGradient id="paint9_linear_2008_28428" x1="64" y1="151" x2="129" y2="221" gradientUnits="userSpaceOnUse">
<stop stop-color="#79E2F2"/>
<stop offset="0.0001" stop-color="#79E2F2"/>
<stop offset="1" stop-color="#79F2C0"/>
</linearGradient>
<linearGradient id="paint10_linear_2008_28428" x1="1341" y1="218" x2="1406" y2="288" gradientUnits="userSpaceOnUse">
<stop stop-color="#79E2F2"/>
<stop offset="0.0001" stop-color="#79E2F2"/>
<stop offset="1" stop-color="#79F2C0"/>
</linearGradient>
</defs>
</svg>
