<svg xmlns="http://www.w3.org/2000/svg" viewBox="0 0 500 500" xmlns:bx="https://boxy-svg.com">
  <defs>
    <bx:export>
      <bx:file format="svg"></bx:file>
    </bx:export>
  </defs>
  <path d="M 309.608 21.376 C 311.508 24.394 311.961 25.84 312.149 29.4 C 311.397 32.653 310.293 35.78 309.213 38.942 C 302.759 59.056 299.749 80.273 308.959 100.014 C 316.328 113.815 327.884 118.995 341.338 125.752 C 361.241 135.842 378.23 149.635 393.473 165.842 C 394.179 166.589 394.885 167.336 395.612 168.105 C 399.035 172.057 400.5 174.892 400.285 180.173 C 399.662 182.646 398.476 184.501 397.087 186.625 C 397.654 187.486 398.219 188.347 398.803 189.233 C 399.549 190.378 400.295 191.523 401.04 192.668 C 401.413 193.234 401.786 193.799 402.17 194.381 C 404.153 197.436 405.822 200.33 407.027 203.793 C 407.623 203.495 408.219 203.197 408.834 202.889 C 416.976 202.495 416.976 202.495 419.677 204.697 C 421.748 207.767 422.388 209.618 422.388 213.338 C 421.326 216.989 419.837 218.533 416.966 220.961 C 419.132 227.687 421.622 234.261 424.195 240.84 C 425.295 240.878 426.394 240.915 427.527 240.953 C 430.553 241.056 431.459 241.775 433.775 243.83 C 436.957 247.97 437.508 252.921 438.37 257.953 C 438.557 258.989 438.745 260.025 438.938 261.093 C 447.724 311.812 439.442 366.358 410.055 409.369 C 382.746 448.103 343.188 470.231 296.817 478.363 C 284.948 480.394 273.254 482.227 261.199 482.284 C 260.315 482.289 259.431 482.294 258.52 482.299 C 256.653 482.308 254.786 482.314 252.918 482.317 C 250.132 482.326 247.347 482.354 244.562 482.383 C 199.132 482.623 152.236 468.272 117.877 437.824 C 117.379 437.385 116.881 436.946 116.367 436.494 C 109.246 430.182 102.929 423.684 97.094 416.137 C 96.244 415.136 96.244 415.136 95.375 414.115 C 57.515 369.286 46.512 304.976 50.964 248.059 C 55.881 193.824 82.435 140.414 112.625 95.926 C 113.016 95.346 113.407 94.766 113.811 94.17 C 115.779 91.342 117.579 88.965 120.587 87.23 C 125.148 86.643 126.67 86.489 130.591 89.019 C 133.951 91.992 134.805 95.49 135.949 99.711 C 138.382 107.775 141.29 114.104 148.599 118.855 C 152.517 120.382 156.046 120.971 160.233 121.227 C 161.274 121.295 162.315 121.363 163.389 121.432 C 164.566 121.498 164.566 121.498 165.767 121.566 C 165.869 120.662 165.97 119.759 166.074 118.827 C 166.597 115.209 167.684 111.87 168.987 108.464 C 169.225 107.84 169.464 107.216 169.709 106.573 C 174.262 95.012 180.331 84.953 188.357 75.484 C 188.757 75.014 189.157 74.535 189.569 74.056 C 195.218 67.478 201.31 61.749 208.236 56.508 C 209.592 55.451 209.592 55.451 210.976 54.376 C 228.241 41.283 287.478 6.63 309.608 21.376 Z" style="" fill="#020101"></path>
  <path d="M 288.656 40.243 C 288.393 41.716 288.129 43.18 287.865 44.644 C 287.645 45.873 287.645 45.873 287.421 47.129 C 287.109 48.791 286.784 50.454 286.393 52.099 C 284.881 58.731 284.694 65.192 284.703 71.978 C 284.704 73.722 284.704 73.722 284.707 75.493 C 284.819 84.185 285.739 91.685 288.656 99.88 C 288.917 100.701 289.177 101.522 289.446 102.368 C 295.071 118.416 308.075 130.427 323.02 137.837 C 325.57 139.039 328.137 140.205 330.705 141.371 C 349.741 150.138 371.502 165.595 383.533 183.01 C 383.533 183.607 383.533 184.203 383.533 184.817 C 387.95 186.897 391.525 187.274 396.183 185.721 C 407.027 200.97 407.027 200.97 407.027 203.793 C 407.623 203.495 408.219 203.197 408.834 202.889 C 416.975 202.495 416.975 202.495 419.677 204.697 C 421.747 207.767 422.388 209.618 422.388 213.338 C 421.325 216.989 419.836 218.533 416.966 220.961 C 418.705 226.296 420.579 231.556 422.596 236.792 C 423.291 239.033 423.291 239.033 423.291 242.647 C 422.546 243.114 421.8 243.58 421.032 244.06 C 418.41 246.616 418.404 247.15 418.322 250.667 C 418.547 255.677 419.598 260.393 420.731 265.265 C 423.197 276.507 423.66 288.048 423.63 299.518 C 423.63 300.195 423.629 300.873 423.629 301.573 C 423.578 320.009 421.049 338.084 415.159 355.597 C 414.912 356.33 414.666 357.065 414.412 357.82 C 408.442 375.182 400.46 391.811 388.955 406.198 C 388.535 406.726 388.113 407.252 387.681 407.795 C 370.389 429.219 347.063 445.811 320.282 453.185 C 319.387 453.185 318.493 453.185 317.571 453.185 C 317.571 443.643 317.571 434.101 317.571 424.27 C 321.149 422.779 324.727 421.288 328.414 419.752 C 345.299 410.691 355.342 397.272 361.356 379.267 C 365.755 361.482 362.093 344.044 352.811 328.489 C 348.609 322.38 348.609 322.38 343.109 317.532 C 340.308 315.629 338.616 314.175 337.774 310.82 C 337.563 307.885 337.554 305.009 337.61 302.068 C 337.606 300.956 337.602 299.845 337.598 298.699 C 337.594 296.287 337.601 293.878 337.628 291.467 C 337.67 287.645 337.667 283.823 337.658 280.001 C 337.647 273.258 337.675 266.515 337.711 259.772 C 337.765 249.643 337.787 239.514 337.776 229.384 C 337.772 225.595 337.79 221.806 337.822 218.017 C 337.843 215.089 337.84 212.159 337.843 209.23 C 337.865 207.679 337.865 207.679 337.886 206.097 C 337.849 195.373 335.074 186.281 327.51 178.492 C 320.225 171.779 311.708 170.608 302.1 170.95 C 297.339 171.376 293.686 172.503 289.559 174.878 C 288.912 175.251 288.264 175.623 287.597 176.007 C 281.26 180.201 277.532 186.758 275.102 193.853 C 274.808 196.683 274.808 196.683 274.814 199.758 C 274.796 200.934 274.778 202.11 274.759 203.32 C 274.749 204.594 274.738 205.868 274.728 207.143 C 274.711 208.454 274.694 209.764 274.675 211.074 C 274.628 214.513 274.592 217.951 274.559 221.39 C 274.523 224.904 274.477 228.417 274.431 231.93 C 274.344 238.815 274.268 245.702 274.198 252.587 C 272.433 252.126 270.666 251.666 268.901 251.205 C 260.645 249.388 251.583 249.84 244.38 254.394 C 243.623 254.872 242.865 255.349 242.086 255.842 C 240.111 257.131 238.17 258.452 236.247 259.816 C 235.606 259.276 235.606 259.276 234.952 258.725 C 227.876 253.056 221.988 251.468 213.036 251.401 C 212.054 251.393 212.054 251.393 211.051 251.386 C 207.043 251.44 203.854 252.153 200.104 253.491 C 200.096 252.58 200.087 251.67 200.078 250.731 C 200.041 247.312 199.982 243.893 199.916 240.475 C 199.89 239.003 199.871 237.531 199.859 236.058 C 199.746 223.762 198.542 215.055 189.723 205.784 C 182.031 199.037 173.794 197.94 163.949 198.121 C 159.293 198.445 156.107 199.482 152.213 201.986 C 151.585 202.369 150.957 202.753 150.31 203.148 C 143.037 208.046 138.761 215.194 136.852 223.672 C 136.459 228.398 136.481 233.109 136.502 237.847 C 136.498 239.271 136.492 240.695 136.487 242.12 C 136.474 245.969 136.479 249.819 136.488 253.669 C 136.495 257.713 136.488 261.757 136.484 265.801 C 136.479 272.594 136.485 279.388 136.499 286.182 C 136.513 294.01 136.509 301.839 136.493 309.669 C 136.482 316.411 136.48 323.155 136.487 329.898 C 136.491 333.916 136.492 337.934 136.483 341.951 C 136.474 345.734 136.48 349.516 136.496 353.3 C 136.5 354.679 136.499 356.058 136.492 357.437 C 136.427 373.958 139.949 389.469 150.406 402.583 C 150.923 403.27 151.441 403.956 151.973 404.663 C 159.413 413.868 169.596 418.536 180.225 423.366 C 180.225 432.908 180.225 442.45 180.225 452.281 C 173.12 450.15 167.595 448.045 161.192 444.658 C 160.289 444.18 159.384 443.703 158.453 443.212 C 145.263 436.109 133.981 427.49 123.298 417.041 C 122.25 416.077 122.25 416.077 121.18 415.093 C 89.702 385.44 74.959 340.436 69.986 298.67 C 69.874 297.799 69.874 297.799 69.76 296.91 C 69.136 291.79 68.913 286.736 68.868 281.58 C 68.859 280.745 68.849 279.91 68.84 279.049 C 68.559 245.591 68.559 245.591 72.697 229.094 C 73.041 227.568 73.382 226.042 73.721 224.516 C 82.465 186.251 100.545 150.018 121.491 117.048 C 122.036 117.735 122.581 118.42 123.143 119.127 C 124.596 120.933 126.07 122.697 127.59 124.447 C 129.623 126.987 129.623 126.987 129.623 128.795 C 130.145 129.04 130.667 129.284 131.205 129.536 C 133.249 130.607 134.991 131.84 136.852 133.2 C 145.99 139.263 155.896 140.948 166.671 139.638 C 174.735 138.061 174.735 138.061 181.128 133.313 C 181.938 130.767 182.635 128.277 183.274 125.689 C 187.228 110.694 193.697 98.203 203.718 86.327 C 204.117 85.821 204.515 85.306 204.925 84.782 C 221.274 63.99 261.898 40.243 288.656 40.243 Z" style="fill: rgb(123, 123, 123);"></path>
  <path d="M 175.086 216.5 C 178.918 219.263 181.606 222.184 182.444 226.886 C 182.598 229.685 182.608 232.452 182.57 235.256 C 182.574 236.317 182.578 237.377 182.582 238.469 C 182.587 240.765 182.581 243.061 182.567 245.357 C 182.544 248.997 182.548 252.636 182.56 256.275 C 182.578 263.351 182.564 270.426 182.545 277.502 C 182.522 286.494 182.512 295.487 182.536 304.479 C 182.547 308.668 182.528 312.855 182.504 317.043 C 182.506 319.251 182.51 321.459 182.514 323.667 C 182.503 324.652 182.491 325.637 182.479 326.653 C 182.535 335.365 184.694 343.435 190.253 350.31 C 196.474 356.366 204.136 360.345 212.867 360.454 C 220.675 360.329 228.748 358.579 234.44 352.887 C 237.748 354.416 240.322 356.426 243.124 358.728 C 249.881 363.068 256.143 363.218 263.962 363.154 C 265.047 363.155 266.131 363.155 267.249 363.156 C 269.529 363.153 271.811 363.145 274.093 363.13 C 277.589 363.108 281.084 363.112 284.58 363.117 C 286.8 363.113 289.02 363.105 291.24 363.098 C 292.286 363.099 293.331 363.099 294.409 363.1 C 295.38 363.092 296.352 363.083 297.352 363.075 C 298.632 363.068 298.632 363.068 299.937 363.062 C 302.332 362.814 303.794 362.288 305.824 361.019 C 308.123 357.916 307.836 354.823 307.631 351.08 C 307.03 348.23 307.03 348.23 304.708 347.309 C 302.154 346.544 300.142 346.34 297.484 346.345 C 296.564 346.342 295.644 346.338 294.696 346.335 C 293.22 346.34 293.22 346.34 291.713 346.347 C 289.615 346.332 287.517 346.318 285.419 346.302 C 282.122 346.287 278.825 346.279 275.528 346.285 C 272.338 346.288 269.15 346.263 265.96 346.234 C 264.98 346.243 263.999 346.252 262.987 346.262 C 256.782 346.181 253.494 345.406 248.898 341.14 C 246.44 336.859 245.573 333.397 246.187 328.49 C 247.746 324.085 249.912 321.638 254.059 319.334 C 258.398 317.69 263.05 318.039 267.63 318.07 C 268.739 318.067 269.847 318.063 270.989 318.06 C 273.331 318.057 275.672 318.064 278.013 318.079 C 281.569 318.098 285.124 318.079 288.679 318.056 C 290.962 318.059 293.245 318.063 295.529 318.07 C 296.579 318.063 297.63 318.055 298.713 318.048 C 311.294 318.19 323.442 322.644 332.706 331.313 C 342.075 341.304 346.164 352.226 345.837 365.77 C 344.887 378.398 339.596 389.487 330.221 398.066 C 320.731 405.35 310.533 409.02 298.624 409.037 C 297.218 409.053 295.812 409.07 294.406 409.089 C 292.205 409.116 290.005 409.135 287.804 409.135 C 285.668 409.139 283.534 409.17 281.399 409.206 C 280.418 409.196 280.418 409.196 279.417 409.187 C 275.853 409.272 274.325 409.711 271.516 411.979 C 269.563 414.125 269.563 414.125 269.247 416.424 C 269.334 417.093 269.421 417.764 269.511 418.453 C 269.573 419.126 269.635 419.798 269.698 420.49 C 270.729 422.787 271.922 424.064 274.078 425.369 C 278.518 427 283.42 426.699 288.091 426.756 C 293.739 426.868 293.739 426.868 299.499 426.981 C 299.499 437.418 299.499 447.854 299.499 458.607 C 266.944 465.583 230.441 468.418 198.296 457.704 C 198.296 447.267 198.296 436.831 198.296 426.078 C 210.269 425.908 210.269 425.908 214.03 425.89 C 215.011 425.865 215.992 425.839 217.004 425.813 C 218.509 425.791 218.509 425.791 220.044 425.77 C 223.511 424.99 224.436 423.599 226.308 420.656 C 226.93 418.836 226.93 418.836 226.873 417.042 C 226.903 416.464 226.933 415.886 226.965 415.291 C 225.896 412.257 223.561 410.528 220.886 408.91 C 218.393 408.5 216.461 408.338 213.986 408.397 C 213.336 408.393 212.684 408.387 212.015 408.382 C 209.945 408.367 207.877 408.381 205.808 408.401 C 190.583 408.514 178.327 405.967 166.897 395.13 C 158.05 385.813 153.935 374.996 153.888 362.218 C 153.885 361.635 153.881 361.052 153.878 360.451 C 153.868 358.51 153.864 356.568 153.86 354.627 C 153.855 353.23 153.849 351.833 153.842 350.435 C 153.823 345.86 153.814 341.286 153.805 336.711 C 153.802 335.132 153.798 333.554 153.795 331.976 C 153.777 324.565 153.764 317.154 153.757 309.743 C 153.748 301.197 153.724 292.65 153.688 284.104 C 153.66 277.491 153.647 270.878 153.644 264.264 C 153.642 260.317 153.634 256.37 153.611 252.423 C 153.59 248.711 153.586 244.999 153.596 241.287 C 153.596 239.927 153.59 238.568 153.578 237.208 C 153.467 224.43 153.467 224.43 157.635 219.155 C 162.792 214.366 168.648 214.435 175.086 216.5 Z" fill="#FCDAD3" style=""></path>
  <path d="M 310.342 188.432 C 314.282 189.973 317.348 192.837 319.378 196.564 C 320.024 200.034 319.949 203.447 319.89 206.968 C 319.891 208.008 319.892 209.049 319.893 210.122 C 319.889 213.554 319.854 216.985 319.819 220.418 C 319.811 222.801 319.805 225.184 319.8 227.566 C 319.786 233.192 319.748 238.818 319.703 244.444 C 319.653 250.85 319.628 257.258 319.605 263.665 C 319.558 276.839 319.478 290.014 319.378 303.188 C 318.708 303.069 318.038 302.949 317.349 302.825 C 308.997 301.424 300.721 300.862 292.27 300.477 C 292.185 287.14 292.122 273.803 292.083 260.466 C 292.064 254.273 292.039 248.081 291.997 241.888 C 291.958 235.912 291.937 229.936 291.927 223.959 C 291.921 221.68 291.908 219.399 291.888 217.118 C 291.862 213.925 291.858 210.733 291.86 207.539 C 291.846 206.596 291.834 205.653 291.82 204.679 C 291.859 197.808 293.273 195.053 297.748 189.9 C 301.846 187.634 305.764 187.872 310.342 188.432 Z" fill="#FEDBD4" style=""></path>
  <path d="M 220.036 269.448 C 224.184 271.509 226.591 274.515 228.115 278.791 C 228.629 282.748 228.6 286.666 228.563 290.651 C 228.565 291.79 228.566 292.93 228.568 294.103 C 228.566 296.507 228.558 298.909 228.537 301.312 C 228.511 304.378 228.514 307.442 228.525 310.508 C 228.533 313.452 228.519 316.396 228.507 319.34 C 228.51 320.434 228.513 321.528 228.515 322.655 C 228.446 328.914 228.305 334.157 224.049 339.099 C 219.515 342.523 215.727 343.723 210.043 342.946 C 205.866 340.778 201.999 337.82 200.471 333.186 C 200.028 330.788 199.968 328.518 199.944 326.079 C 199.932 325.051 199.921 324.021 199.908 322.962 C 199.902 321.854 199.896 320.746 199.889 319.605 C 199.881 318.462 199.874 317.319 199.867 316.141 C 199.854 313.721 199.844 311.302 199.837 308.884 C 199.827 305.796 199.796 302.71 199.76 299.624 C 199.73 296.664 199.727 293.705 199.719 290.747 C 199.703 289.644 199.687 288.542 199.671 287.406 C 199.687 281.309 199.998 277.384 203.718 272.466 C 208.445 268.077 213.986 267.508 220.036 269.448 Z" fill="#FBD9D2" style=""></path>
  <path d="M 263.355 267.948 C 268.278 269.713 270.711 272.41 273.382 276.81 C 274.403 279.287 274.403 281.214 274.375 283.888 C 274.369 284.855 274.363 285.822 274.357 286.818 C 274.342 287.822 274.327 288.826 274.311 289.86 C 274.303 290.879 274.295 291.897 274.287 292.945 C 274.265 295.456 274.235 297.967 274.198 300.477 C 273.606 300.495 273.015 300.514 272.405 300.532 C 269.689 300.618 266.974 300.718 264.259 300.816 C 263.328 300.844 262.397 300.872 261.439 300.901 C 256.092 301.105 251.321 301.67 246.187 303.188 C 246.081 299.085 246.018 294.982 245.961 290.877 C 245.93 289.716 245.901 288.555 245.869 287.358 C 245.76 276.75 245.76 276.75 249.801 272.466 C 250.603 271.609 251.404 270.752 252.229 269.868 C 256.115 267.376 258.863 267.214 263.355 267.948 Z" fill="#FBD9D2" style=""></path>
  <path d="M 418.153 203.454 C 420.527 205.389 421.359 207.248 422.388 210.118 C 422.388 213.981 421.853 215.902 419.677 219.098 C 416.477 221.297 414.594 221.616 410.783 221.413 C 407.665 220.69 406.205 218.923 404.316 216.443 C 403.021 213.854 403.136 212.094 403.412 209.214 C 407.047 202.793 411.072 201.54 418.153 203.454 Z" fill="#040201" style=""></path>
</svg>