 <svg width="40px" height="40px" viewBox="0 0 40 40" version="1.1" xmlns="http://www.w3.org/2000/svg" xmlns:xlink="http://www.w3.org/1999/xlink">
    <!-- Generator: Sketch 48.1 (47250) - http://www.bohemiancoding.com/sketch -->
    <title>Mobile</title>
    <desc>Created with Sketch.</desc>
    <defs>
        <polygon id="path-1" points="39.9970492 2.11453816e-05 39.9970492 39.9970492 1.00802458e-05 39.9970492 1.00802458e-05 2.11453816e-05"></polygon>
    </defs>
    <g id="Navigation" stroke="none" stroke-width="1" fill="none" fill-rule="evenodd">
        <g id="Mobile">
            <g id="Page-1">
                <mask id="mask-2" fill="white">
                    <use xlink:href="#path-1"></use>
                </mask>
                <g id="Clip-2"></g>
                <path d="M26.3127344,27.4823869 C25.2634885,27.4840918 24.4651279,28.3038295 24.4757508,29.3686164 C24.4865049,30.4384525 25.2931279,31.2490098 26.3346361,31.2366164 C27.3894557,31.2240262 28.1939803,30.4144525 28.1962754,29.3633705 C28.1985705,28.2958951 27.3822426,27.4806164 26.3127344,27.4823869 M17.1866361,29.3589115 C17.1863738,28.2911082 16.3943082,27.4881574 15.3354885,27.4821902 C14.2611279,27.4761574 13.4409967,28.2876984 13.4406033,29.3572721 C13.4401443,30.4230426 14.2700459,31.2467803 15.3339148,31.2364852 C16.3945049,31.2263213 17.1868984,30.4232393 17.1866361,29.3589115 M14.9241443,24.3943869 C15.0006033,23.9578623 15.0959475,23.574977 15.1268984,23.1869115 C15.1517508,22.8751738 15.2705705,22.8016 15.5720131,22.8022557 C20.0953574,22.812223 24.6187016,22.809141 29.1421115,22.8090754 C29.2404066,22.8090754 29.3389639,22.8128131 29.4370623,22.8079607 C30.1068328,22.7749115 30.5583738,22.4208787 30.6785049,21.7678951 C31.0200131,19.9114361 31.3512262,18.0529443 31.6648656,16.1916328 C31.7906361,15.4456 31.2867016,14.8369443 30.532341,14.753141 C27.9392262,14.465141 25.3459148,14.1785836 22.7531279,13.8879607 C20.0844066,13.5888787 17.4165377,13.2819279 14.7468984,12.9909115 C14.5175213,12.9659279 14.4579148,12.8766164 14.4419803,12.6715016 C14.4013902,12.1492066 14.3484721,11.6276328 14.2908328,11.1068459 C14.2293246,10.5510426 13.9625705,10.1317639 13.4148984,9.95530492 C12.2218492,9.57097705 11.0264393,9.19314098 9.82519344,8.83543607 C9.20086557,8.64953443 8.5835541,9.00245246 8.36670164,9.62205902 C8.16414426,10.2006164 8.43889836,10.8259934 9.01837377,11.0907148 C9.16676721,11.158518 9.32270164,11.2116984 9.47837377,11.2614689 C10.2050623,11.4937311 10.9352262,11.7157639 11.6579148,11.9597639 C11.7670951,11.9966164 11.9128656,12.1216656 11.9246689,12.2198951 C12.0491934,13.2605508 12.1512918,14.3038951 12.2571279,15.3467803 C12.4279475,17.0302557 12.6032918,18.7132721 12.7633574,20.3977967 C12.8188328,20.9819279 12.9200131,21.5804197 12.8497836,22.1539279 C12.7188328,23.2240918 12.4752262,24.2803541 12.2835541,25.3433705 C12.213718,25.730518 12.3026361,26.073141 12.5735213,26.3741902 C12.8776525,26.7121574 13.2557508,26.809141 13.6922098,26.8087475 C18.5651934,26.8044852 23.438177,26.8071082 28.3111607,26.8024525 C28.5265049,26.8022557 28.7512918,26.7798951 28.9552918,26.7157639 C29.4470951,26.5613377 29.7630951,26.1036328 29.763423,25.5996328 C29.7637508,25.1118295 29.4520787,24.6350426 28.9901115,24.4918295 C28.7554885,24.4191082 28.4966689,24.3985836 28.2487344,24.3982557 C23.965718,24.3928787 19.6827672,24.3943869 15.3997508,24.3943869 C15.259423,24.3943869 15.1190951,24.3943869 14.9241443,24.3943869 M20.0044721,39.9970754 C8.98775082,39.9997639 0.00598032787,31.0266492 1.31147541e-05,20.0118295 C-0.00601967213,8.96796066 8.98388197,-0.00777704918 20.043423,2.62295082e-05 C31.029718,0.00769836066 40.0060459,9.00487869 39.9970623,19.9998951 C39.9880131,31.0242885 31.0200131,39.9943869 20.0044721,39.9970754" id="Fill-1" fill="#6C798F" mask="url(#mask-2)"></path>
            </g>
        </g>
    </g>
</svg>