<?xml version="1.0" encoding="UTF-8"?>
<svg width="15px" height="15px" viewBox="0 0 15 15" version="1.1" xmlns="http://www.w3.org/2000/svg" xmlns:xlink="http://www.w3.org/1999/xlink">
    <!-- Generator: Sketch 40.3 (33839) - http://www.bohemiancoding.com/sketch -->
    <title>Fill 36</title>
    <desc>Created with Sketch.</desc>
    <defs></defs>
    <g id="Page-1" stroke="none" stroke-width="1" fill="none" fill-rule="evenodd">
        <g id="Flyout---Search-expanded" transform="translate(-8.000000, -66.000000)" fill="#0049B0">
            <path d="M9.8838975,71.9846774 C9.8838975,69.7612903 11.69512,67.9524194 13.9213975,67.9524194 C16.147675,67.9524194 17.9588975,69.7612903 17.9588975,71.9846774 C17.9588975,74.2080645 16.147675,76.0169355 13.9213975,76.0169355 C11.69512,76.0169355 9.8838975,74.2080645 9.8838975,71.9846774 M22.029505,77.4991935 L19.2928875,74.766129 C19.73136,73.9346774 19.9824925,72.9887097 19.9824925,71.9830645 C19.9824925,68.6782258 17.300785,66 13.99165,66 C10.682515,66 8,68.6782258 8,71.9830645 C8,75.2879032 10.682515,77.9669355 13.99165,77.9669355 C14.833065,77.9669355 15.634105,77.7919355 16.360855,77.4790323 L19.2056775,80.3201613 C19.99622,81.108871 21.254305,81.1032258 22.0335425,80.3241935 C22.81924,79.5395161 22.8119725,78.2806452 22.029505,77.4991935" id="Fill-36"></path>
        </g>
    </g>
</svg>
