<?xml version="1.0" encoding="UTF-8"?>
<svg width="16px" height="17px" viewBox="0 0 16 17" version="1.1" xmlns="http://www.w3.org/2000/svg" xmlns:xlink="http://www.w3.org/1999/xlink">
    <!-- Generator: Sketch 39.1 (31720) - http://www.bohemiancoding.com/sketch -->
    <title>spyglass</title>
    <desc>Created with Sketch.</desc>
    <defs>
        <path d="M12.1720161,7.08619973 C12.1720161,9.8949907 9.89460736,12.1723995 7.08581639,12.1723995 C4.27711801,12.1723995 2,9.89508329 2,7.08619973 C2,4.27731616 4.27711801,2 7.08581639,2 C9.89460736,2 12.1720161,4.27740876 12.1720161,7.08619973 Z" id="path-1"></path>
    </defs>
    <g id="Page-1" stroke="none" stroke-width="1" fill="none" fill-rule="evenodd">
        <g id="Search-Flyout-(all-variations)" transform="translate(-441.000000, -152.000000)">
            <g id="Menu" transform="translate(0.000000, 88.000000)">
                <g id="Nav">
                    <g id="Search" transform="translate(160.000000, 56.000000)">
                        <g id="spyglass" transform="translate(281.000000, 8.000000)">
                            <path d="M10.7427708,13.1569844 C9.67514856,13.8015263 8.42376224,14.1723995 7.08581639,14.1723995 C3.17250955,14.1723995 0,10.9996138 0,7.08619973 C0,3.17278562 3.17250955,0 7.08581639,0 C10.9991769,0 14.1720161,3.17283926 14.1720161,7.08619973 C14.1720161,8.93742241 13.4620041,10.6229327 12.2994621,11.8852485 L15.2043164,14.7901028 C15.5948407,15.1806271 15.5948407,15.8137921 15.2043164,16.2043164 C14.8137921,16.5948407 14.1806271,16.5948407 13.7901028,16.2043164 L10.7427708,13.1569844 Z" id="Combined-Shape" fill="#97A0AF"></path>
                            <mask id="mask-2" fill="white">
                                <use xlink:href="#path-1"></use>
                            </mask>
                            <use id="Mask" fill="#FFFFFF" xlink:href="#path-1"></use>
                        </g>
                    </g>
                </g>
            </g>
        </g>
    </g>
</svg>