<svg xmlns="http://www.w3.org/2000/svg" xmlns:xlink="http://www.w3.org/1999/xlink" width="12" height="12" viewBox="0 0 12 12">
  <defs>
    <path id="search-a" d="M53,140 C55.7614237,140 58,142.238576 58,145 C58,146.151421 57.6107991,147.211939 56.9567775,148.057174 L59.5846052,150.730211 C59.8426932,150.992802 59.8390424,151.414897 59.5764508,151.672985 C59.3138593,151.931073 58.8917651,151.927422 58.633677,151.66483 L58.633677,151.66483 L56.00823,148.994171 C55.171164,149.625607 54.1293041,150 53,150 C50.2385763,150 48,147.761424 48,145 C48,142.238576 50.2385763,140 53,140 Z M53,141.333333 C50.9749559,141.333333 49.3333333,142.974956 49.3333333,145 C49.3333333,147.025044 50.9749559,148.666667 53,148.666667 C55.0250441,148.666667 56.6666667,147.025044 56.6666667,145 C56.6666667,142.974956 55.0250441,141.333333 53,141.333333 Z"/>
  </defs>
  <use fill="#42526E" fill-rule="evenodd" transform="translate(-48 -140)" xlink:href="#search-a"/>
</svg>
