<?xml version="1.0" encoding="UTF-8"?>
<svg width="20px" height="20px" viewBox="0 0 20 20" version="1.1" xmlns="http://www.w3.org/2000/svg" xmlns:xlink="http://www.w3.org/1999/xlink">
    <!-- Generator: Sketch 46.2 (44496) - http://www.bohemiancoding.com/sketch -->
    <title>Shape</title>
    <desc>Created with Sketch.</desc>
    <defs></defs>
    <g id="Navigation" stroke="none" stroke-width="1" fill="none" fill-rule="evenodd">
        <g id="WAC-Desktop-menu---support" transform="translate(-943.000000, -155.000000)" fill="#6C798F">
            <path d="M943,165 C943,170.522917 947.477083,175 953,175 C958.521875,175 963,170.522917 963,164.998958 C963,159.477083 958.521875,155 953,155 C947.477083,155 943,159.477083 943,165 Z M952.842708,170.832292 L952.789583,170.832292 C951.975,170.808333 951.4,170.207292 951.423958,169.404167 C951.446875,168.614583 952.035417,168.040625 952.822917,168.040625 L952.870833,168.042708 C953.708333,168.066667 954.277083,168.661458 954.253125,169.4875 C954.229167,170.279167 953.651042,170.832292 952.842708,170.832292 L952.842708,170.832292 Z M956.270833,164.029167 C956.079167,164.3 955.658333,164.639583 955.127083,165.053125 L954.541667,165.45625 C954.220833,165.70625 954.027083,165.942708 953.955208,166.172917 C953.896875,166.354167 953.869792,166.403125 953.864583,166.772917 L953.864583,166.866667 L951.630208,166.866667 L951.636458,166.677083 C951.664583,165.902083 951.683333,165.44375 952.005208,165.065625 C952.510417,164.473958 953.625,163.755208 953.671875,163.725 C953.832292,163.605208 953.966667,163.46875 954.066667,163.321875 C954.301042,162.997917 954.404167,162.74375 954.404167,162.495833 C954.404167,162.147917 954.302083,161.826042 954.098958,161.541667 C953.903125,161.264583 953.53125,161.127083 952.99375,161.127083 C952.460417,161.127083 952.094792,161.295833 951.877083,161.64375 C951.652083,161.998958 951.538542,162.372917 951.538542,162.755208 L951.538542,162.851042 L949.235417,162.851042 L949.239583,162.751042 C949.298958,161.341667 949.803125,160.326042 950.734375,159.733333 C951.320833,159.357292 952.051042,159.166667 952.902083,159.166667 C954.014583,159.166667 954.95625,159.4375 955.695833,159.970833 C956.446875,160.511458 956.827083,161.321875 956.827083,162.378125 C956.826042,162.96875 956.639583,163.523958 956.270833,164.029167 L956.270833,164.029167 Z" id="Shape"></path>
        </g>
    </g>
</svg>