<svg width="96" height="85" viewBox="0 0 96 85" fill="none" xmlns="http://www.w3.org/2000/svg">
<path d="M93.5702 6.68701H2.42981C1.08786 6.68701 0 7.77424 0 9.11541V77.5115C0 78.8527 1.08786 79.9399 2.42981 79.9399H93.5702C94.9121 79.9399 96 78.8527 96 77.5115V9.11541C96 7.77424 94.9121 6.68701 93.5702 6.68701Z" fill="#DFE1E6"/>
<path d="M96 18.1748H0V28.2129H96V18.1748Z" fill="#FAFBFC"/>
<path d="M96 39.625H0V49.6631H96V39.625Z" fill="#FAFBFC"/>
<path d="M96 61.0752H0V71.1133H96V61.0752Z" fill="#FAFBFC"/>
<path opacity="0.7" d="M5.70068 23.3662H22.3339" stroke="#C1C7D0" stroke-width="1.33535" stroke-miterlimit="10"/>
<path opacity="0.7" d="M5.70068 34.104H22.3339" stroke="#C1C7D0" stroke-width="1.33535" stroke-miterlimit="10"/>
<path opacity="0.7" d="M5.70068 44.8423H22.3339" stroke="#C1C7D0" stroke-width="1.33535" stroke-miterlimit="10"/>
<path opacity="0.7" d="M5.70068 55.585H22.3339" stroke="#C1C7D0" stroke-width="1.33535" stroke-miterlimit="10"/>
<path opacity="0.7" d="M5.70068 66.0942H22.3339" stroke="#C1C7D0" stroke-width="1.33535" stroke-miterlimit="10"/>
<path d="M56.5547 21.2476H36.5583C36.0904 21.2476 35.7112 21.6266 35.7112 22.0942V24.3097C35.7112 24.7773 36.0904 25.1563 36.5583 25.1563H56.5547C57.0226 25.1563 57.4018 24.7773 57.4018 24.3097V22.0942C57.4018 21.6266 57.0226 21.2476 56.5547 21.2476Z" fill="#2684FF"/>
<path d="M56.6254 32.3755H95.9943V36.2843H56.6254C56.1588 36.2843 55.7783 35.904 55.7783 35.4376V33.2221C55.7783 32.7557 56.1588 32.3755 56.6254 32.3755Z" fill="#57D9A3"/>
<path d="M92.8184 42.8901H72.822C72.3541 42.8901 71.9749 43.2692 71.9749 43.7368V45.9523C71.9749 46.4199 72.3541 46.7989 72.822 46.7989H92.8184C93.2863 46.7989 93.6655 46.4199 93.6655 45.9523V43.7368C93.6655 43.2692 93.2863 42.8901 92.8184 42.8901Z" fill="#2684FF"/>
<path opacity="0.3" d="M64.5796 53.6279H44.5832C44.1154 53.6279 43.7361 54.007 43.7361 54.4746V56.6901C43.7361 57.1576 44.1154 57.5367 44.5832 57.5367H64.5796C65.0475 57.5367 65.4268 57.1576 65.4268 56.6901V54.4746C65.4268 54.007 65.0475 53.6279 64.5796 53.6279Z" fill="#A5ADBA"/>
<path d="M71.0525 64.5332H26.9712C26.5033 64.5332 26.124 64.9123 26.124 65.3799V67.5953C26.124 68.0629 26.5033 68.442 26.9712 68.442H71.0525C71.5204 68.442 71.8997 68.0629 71.8997 67.5953V65.3799C71.8997 64.9123 71.5204 64.5332 71.0525 64.5332Z" fill="#2684FF"/>
<path d="M35.6199 0H30.4458L32.3836 3.87836V83.8943C32.3836 84.2492 32.6727 84.5382 33.0278 84.5382C33.3829 84.5382 33.672 84.2492 33.672 83.8943V3.87836L35.6098 0H35.6199Z" fill="url(#paint0_linear_2231_33443)"/>
<defs>
<linearGradient id="paint0_linear_2231_33443" x1="33.0379" y1="0.268697" x2="33.0379" y2="46.8597" gradientUnits="userSpaceOnUse">
<stop stop-color="#FFAB00"/>
<stop offset="1" stop-color="#FF991F"/>
</linearGradient>
</defs>
</svg>
