<svg width="530" height="254" viewBox="0 0 530 254" fill="none" xmlns="http://www.w3.org/2000/svg">
<mask id="mask0_2231_37356" style="mask-type:alpha" maskUnits="userSpaceOnUse" x="0" y="0" width="530" height="254">
<rect width="254" height="530" transform="matrix(4.37114e-08 1 1 -4.37114e-08 0 0)" fill="#D9D9D9"/>
</mask>
<g mask="url(#mask0_2231_37356)">
<g filter="url(#filter0_d_2231_37356)">
<path d="M136.599 181.442C151.284 185.18 198.306 192.999 207.398 187.324C209.457 186.091 210.206 184.042 209.524 181.549C206.655 169.175 166.721 142.033 143.529 139.659C130.337 138.25 122.452 147.572 120.856 156.876C119.579 164.195 121.718 172.586 128.647 177.707C130.787 179.366 133.492 180.676 136.599 181.442ZM123.838 157.396C125.294 149.214 131.837 141.501 143.23 142.652C164.415 144.843 204.011 171.2 206.587 182.209C206.991 183.733 206.417 184.303 205.731 184.714C198.562 189.133 155.996 183.153 137.341 178.471C125.925 175.695 122.382 165.579 123.838 157.396Z" stroke="#79E2F2" stroke-opacity="0.3"/>
<path d="M143.798 171.519C153.392 174.125 183.506 180.233 188.275 177.538C189.363 176.956 189.523 175.881 188.737 174.509C185.155 167.721 156.575 151.478 141.939 149.265C133.606 147.974 130.116 152.685 130.497 157.638C130.784 161.534 133.332 166.145 138.351 169.185C139.913 170.166 141.772 170.981 143.798 171.519ZM132.411 158.039C132.108 153.685 135.007 149.788 142.194 150.867C155.566 152.9 183.823 168.706 187.025 174.747C187.498 175.585 187.227 175.869 186.865 176.063C183.097 178.158 155.998 173.222 143.819 169.947C136.379 167.991 132.714 162.393 132.411 158.039Z" fill="#B3F5FF"/>
<path d="M145.639 167.286C151.337 168.92 169.191 172.856 171.967 171.372C172.6 171.052 172.68 170.436 172.197 169.636C169.989 165.679 152.897 155.933 144.231 154.455C139.296 153.595 137.302 156.257 137.597 159.112C137.82 161.358 139.388 164.047 142.393 165.867C143.328 166.453 144.436 166.948 145.639 167.286ZM138.731 159.37C138.492 156.86 140.148 154.659 144.404 155.38C152.322 156.737 169.217 166.228 171.19 169.749C171.481 170.237 171.325 170.397 171.114 170.504C168.92 171.656 152.861 168.437 145.63 166.382C141.212 165.152 138.971 161.879 138.731 159.37Z" fill="#00C7E6" fill-opacity="0.2"/>
<path d="M60.5286 200.79C71.4978 195.917 78.1562 182.795 87.4012 164.638C91.8856 155.834 96.9912 145.803 103.35 135.198C124.07 100.978 144.384 114.069 178.028 135.798C195.368 147.036 217.018 160.965 243.831 171.319C282.809 186.355 308.942 186.095 323.677 170.609C337.218 156.383 341.751 129.713 338.066 86.6392C334.85 49.3028 313.148 20.198 273.659 0.0223152C236.446 -18.9549 192.173 -25.0324 169.165 -27.0195C129.102 -30.3648 94.0175 -38.9135 64.7846 -52.3494C41.445 -63.0629 21.7801 -76.9108 6.39182 -93.5392C1.33972 -98.9808 -2.97173 -104.408 -6.54517 -109.607L-6.57582 -107.086C-3.16499 -102.36 0.781344 -97.3674 5.36733 -92.3623C20.8882 -75.5603 40.6862 -61.5816 64.1936 -50.822C93.5606 -37.3408 128.847 -28.7882 169.044 -25.3976C192.053 -23.4532 236.124 -17.4223 273.136 1.5082C312.157 21.3755 333.561 50.0471 336.718 86.6984C340.378 129.13 335.985 155.29 322.819 169.139C308.426 184.247 282.698 184.43 244.223 169.532C217.511 159.18 195.961 145.295 178.654 134.143C161.582 123.082 148.051 114.355 135.949 112.665C122.806 110.828 112.422 117.379 102.32 134.024C95.8943 144.628 90.7882 154.702 86.2696 163.547C77.196 181.452 70.607 194.403 60.0786 199.028C48.9743 203.941 34.046 199.333 10.128 183.565C2.84576 178.763 -3.82432 173.461 -9.95317 167.956L-9.97966 170.136C-4.01759 175.509 2.48726 180.552 9.53597 185.177C33.8216 201.167 49.0519 205.866 60.5286 200.79Z" fill="#79E2F2" fill-opacity="0.5"/>
<path d="M35.8422 146.546C47.2106 146.384 56.9233 139.886 64.6655 127.3C71.7003 115.894 76.6785 105.47 81.1557 96.3566C95.4808 66.7764 102.021 53.2733 144.558 74.7182C156.957 81.0083 171.575 90.0252 187.053 99.6126C229.667 126.043 277.957 155.991 303.905 142.398C311.717 138.333 317.15 130.388 320.028 118.816C323.926 103.217 322.644 88.9647 316.211 76.4867C306.798 58.3706 286.737 43.7955 254.863 31.8015C230.095 22.4591 198.1 14.7223 154.352 7.3954C111.365 0.168547 66.9816 -17.6066 29.4448 -42.7025C15.4549 -52.0905 3.03171 -62.0869 -7.03553 -72.0373L-7.06297 -69.7803C2.86931 -60.1306 14.9501 -50.4817 28.8031 -41.2241C66.4774 -16.0404 111.033 1.8233 154.228 9.05421C197.941 16.3804 229.832 24.1152 254.531 33.4563C286.095 45.3164 305.88 59.7584 315.125 77.4452C321.355 89.4507 322.575 103.19 318.821 118.366C316.016 129.557 311.006 136.913 303.508 140.814C278.119 154.077 230.139 124.305 187.799 98.0511C172.322 88.4212 157.67 79.361 145.201 73.1121C124.191 62.5225 111.226 60.0123 101.812 64.77C92.7463 69.364 87.4154 80.2924 80.1272 95.4421C75.7193 104.557 70.7421 114.896 63.7431 126.217C56.2837 138.34 46.9552 144.59 36.002 144.802C20.5439 145.012 3.88163 133.102 -9.30677 120.492L-9.33317 122.664C11.3572 142.448 26.4838 146.704 35.8422 146.546Z" fill="#B3F5FF"/>
<path d="M37.2767 102.859C45.2209 101.298 51.1834 93.5239 54.9932 79.7465C66.3855 38.6709 91.8408 41.9972 108.677 44.1692C117.835 45.3769 124.503 46.193 125.393 39.5204C126.541 31.0517 122.979 24.4638 114.043 18.8434C106.078 13.8423 94.6266 9.80248 81.327 5.25493C53.5198 -4.33545 17.9216 -16.6507 -7.3402 -46.9903L-7.36887 -44.6323C18.034 -14.8045 53.364 -2.62311 80.9695 6.92046C107.333 16.011 126.341 22.5567 124.081 39.2375C123.449 44.0711 118.126 43.6243 108.833 42.414C100.212 41.3455 89.5052 39.9361 79.3376 44.0693C67.3057 48.981 58.9376 60.4396 53.753 79.1219C50.1202 92.2166 44.4989 99.6547 37.0952 101.14C23.1328 103.956 5.04105 85.8062 -8.74385 68.4697L-8.77303 70.8706C-8.07593 71.7848 -7.3109 72.6574 -6.54688 73.6157C11.3341 95.2347 26.0868 105.085 37.2767 102.859Z" fill="#B3F5FF"/>
<path d="M18.8917 58.4834C25.7466 61.8064 31.5436 61.2814 36.0821 56.9046C39.7736 53.3618 41.4095 48.2055 40.9532 41.6901C39.3202 19.0768 12.5854 -14.7422 -7.50576 -30.6132L-7.53057 -28.5724C1.35307 -21.425 11.2343 -10.9837 19.7002 0.238101C31.7558 16.2928 38.8392 31.1023 39.6444 41.9622C40.0751 47.8392 38.6132 52.4461 35.2605 55.6553C23.1011 67.4108 3.54561 46.0218 -8.27886 30.2268L-8.30832 32.6503C-5.57421 36.2757 -2.44058 40.0791 0.862421 43.7157C7.46998 50.8612 13.5345 55.8699 18.8917 58.4834Z" fill="#B3F5FF"/>
<path d="M146.016 43.5039L146.024 43.5117L146.033 43.5187C146.031 43.5172 146.036 43.5212 146.053 43.5371L146.118 43.5957C146.173 43.6461 146.251 43.718 146.352 43.811L146.459 43.9098C146.652 44.0879 146.908 44.3235 147.223 44.613C147.977 45.3063 149.071 46.3088 150.466 47.5732C153.255 50.1019 157.245 53.6779 162.116 57.9215C171.857 66.4086 185.122 77.5678 199.347 88.3632C218.496 102.958 234.754 113.469 248.021 119.873C261.276 126.27 271.596 128.592 278.843 126.728L278.843 126.728C283.361 125.561 286.699 122.72 288.709 118.267C292.47 110.042 292.675 101.612 289.418 93.2175C286.164 84.8311 279.46 76.4949 269.429 68.4296L269.429 68.4294C251.617 54.1359 223.044 40.7123 192.999 32.5871C180.66 29.2375 166.607 26.4893 156.066 26.2839C152.218 26.2089 148.817 26.4732 146.137 27.1746C143.462 27.8744 141.46 29.0215 140.478 30.7494L140.476 30.7541C139.599 32.3785 139.661 34.2837 140.6 36.4139C141.535 38.5385 143.349 40.9091 146.016 43.5039ZM142.084 32.0426L142.085 32.0411C142.477 31.3349 143.474 30.3229 145.949 29.5647C148.426 28.8061 152.364 28.3084 158.599 28.621C167.731 29.0962 179.822 31.2433 192.649 34.7255L192.649 34.7255C222.514 42.7934 250.815 56.1451 268.458 70.2532C277.646 77.6542 283.978 85.1538 287.244 92.7007L287.245 92.7018C290.867 100.966 290.8 109.19 287.115 117.225C285.339 121.084 282.425 123.57 278.466 124.579L278.464 124.579C276.829 125.008 275.025 125.184 273.049 125.145C263.764 124.965 251.331 119.759 237.853 111.99C224.387 104.228 209.919 93.9316 196.579 83.6187C169.899 62.9922 147.754 42.3167 147.194 41.76L147.189 41.7559C145.592 40.2413 143.943 38.4286 142.883 36.6695C141.812 34.8924 141.396 33.2618 142.084 32.0426Z" stroke="#79E2F2" stroke-opacity="0.5" stroke-width="0.5"/>
<path d="M192.844 58.4053C193.012 58.5384 206.07 69.396 220.662 79.5911C240.366 93.3048 253.381 99.3577 259.303 97.5689C260.766 97.1213 261.863 96.1906 262.491 94.7313C265.175 88.7246 262.371 82.2648 254.078 75.4816C245.818 68.7856 231.932 61.8934 216.902 56.9698C214.031 56.0482 202.681 52.4947 196.003 52.3646C193.562 52.317 191.761 52.6714 191.136 53.8277C190.063 55.6678 192.174 57.743 192.844 58.4053ZM192.209 54.844C193.006 53.4314 201.243 53.6784 216.577 58.6513C231.505 63.4864 245.256 70.3759 253.382 76.9828C260.97 83.1463 263.614 88.7808 261.315 93.8428C260.862 94.8294 260.108 95.5072 258.985 95.8315C258.304 96.0347 257.591 96.1506 256.709 96.1334C240.742 95.8223 194.916 58.0561 193.675 56.9933C192.234 55.5803 192.107 54.8853 192.209 54.844Z" fill="#B3F5FF"/>
<path d="M213.81 -97.6503C247.025 -95.0196 266.524 -77.4812 291.104 -55.2172C297.981 -49.03 305.132 -42.5749 313.143 -35.9006C333.267 -19.1661 355.854 -9.1302 380.12 -6.03662C407.708 -2.52894 438.032 -7.93661 470.231 -22.0891C505.596 -37.6301 556.786 -62.5979 600.669 -85.8119C612.978 -92.3157 629.039 -100.987 644.748 -109.976L641.934 -109.976C629.43 -102.912 615.245 -95.1169 599.419 -86.7375C555.575 -63.5722 504.462 -38.6044 469.176 -23.1122C409.193 3.21972 357.221 -1.33537 314.706 -36.7044C306.734 -43.33 299.622 -49.7851 292.706 -55.9723C267.775 -78.4555 248.08 -96.1644 214.084 -98.8683C189.934 -100.768 176.101 -104.52 172.78 -110L170.748 -110C173.913 -103.813 188.371 -99.6965 213.81 -97.6503Z" fill="#79E2F2" fill-opacity="0.4"/>
<path d="M389.243 64.7492C409.952 52.7431 420.224 42.0956 419.573 32.7974C419.168 26.1074 413.398 20.7014 401.846 16.658C389.118 12.1577 376.919 9.83735 366.432 9.63301C350.735 9.32718 338.941 13.6968 335.083 22.4732C330.153 33.7454 339.572 47.5534 348.414 57.3584C359.518 69.724 375.601 72.554 389.243 64.7492ZM337.565 24.0836C343.208 11.35 371.713 9.47556 401.179 20.0294C411.14 23.6079 416.574 28.0529 416.86 33.0917C417.326 40.4771 407.06 50.604 388.1 61.6028C383.273 64.3725 378.047 65.6592 372.838 65.5577C364.712 65.3994 356.629 61.6839 350.253 54.704C338.737 41.9832 334.418 31.4854 337.565 24.0836Z" fill="#B3F5FF" fill-opacity="0.4"/>
<path d="M383.215 56.6636L383.216 56.6629C390.781 52.2775 396.455 48.1313 400.182 44.2215C403.904 40.3157 405.714 36.6121 405.47 33.1176C405.164 28.0728 400.813 24.076 392.367 21.1197C383.059 17.8289 374.132 16.1294 366.448 15.9797C360.7 15.8677 355.65 16.6112 351.675 18.1968C347.699 19.7829 344.783 22.2187 343.342 25.4968L343.342 25.4972C341.502 29.7035 342.351 34.3601 344.44 38.8321C346.53 43.3063 349.881 47.6353 353.114 51.2202C361.29 60.3259 373.154 62.4201 383.215 56.6636ZM402.992 33.3592L402.992 33.3608C403.154 35.94 401.438 39.0662 397.888 42.5816C394.349 46.085 389.038 49.9264 382.13 53.9338C378.647 55.9321 374.878 56.8595 371.123 56.7863C365.269 56.6722 359.434 53.9957 354.824 48.9489C350.633 44.3197 347.766 40.109 346.23 36.3957C344.694 32.6839 344.499 29.4928 345.611 26.8749C346.609 24.6245 348.626 22.834 351.454 21.5363C354.283 20.2383 357.909 19.4413 362.09 19.1722C370.452 18.6341 380.992 20.2098 391.717 24.051C395.337 25.3515 398.114 26.803 400.009 28.3737C401.902 29.9435 402.893 31.6141 402.992 33.3592Z" stroke="#B3F5FF" stroke-width="0.5"/>
<path d="M378.203 48.0061C386.065 43.448 389.965 39.4057 389.718 35.8756C389.564 33.3357 387.374 31.2833 382.988 29.7482C378.156 28.0397 373.525 27.1588 369.543 27.0812C363.584 26.9651 359.106 28.624 357.642 31.956C355.77 36.2355 359.346 41.4777 362.703 45.2002C366.918 49.8948 373.024 50.9692 378.203 48.0061ZM358.584 32.5674C360.726 27.7331 371.548 27.0214 382.735 31.0282C386.516 32.3868 388.58 34.0743 388.688 35.9873C388.865 38.7912 384.968 42.6359 377.769 46.8116C375.937 47.8631 373.953 48.3516 371.975 48.313C368.89 48.2529 365.821 46.8423 363.401 44.1924C359.029 39.363 357.389 35.3775 358.584 32.5674Z" fill="#B3F5FF"/>
<path d="M305.332 132.986L316.105 127.935L315.093 139.79L305.332 132.986Z" fill="#B3F5FF"/>
<line x1="89.2774" y1="177.17" x2="72.2774" y2="130.17" stroke="#7A869A"/>
<g filter="url(#filter1_d_2231_37356)">
<path d="M128.931 195.897L128.931 228.201C128.931 233.044 125.018 236.931 120.143 236.931L87.6196 236.931C82.7443 236.931 78.8313 233.044 78.8313 228.201L78.8313 195.897C78.8313 191.055 82.7443 187.168 87.6196 187.168L120.143 187.168C125.018 187.168 128.931 191.118 128.931 195.897Z" fill="url(#paint0_linear_2231_37356)"/>
<rect width="29" height="29" transform="matrix(-1 -8.74228e-08 -8.74228e-08 1 117.931 197.168)" fill="white" fill-opacity="0.01"/>
<path fill-rule="evenodd" clip-rule="evenodd" d="M110.681 199.585L98.5979 199.585C97.6365 199.585 96.7145 199.967 96.0347 200.646C95.3549 201.326 94.9729 202.248 94.9729 203.21C94.9729 204.171 95.3549 205.093 96.0347 205.773C96.7145 206.453 97.6365 206.835 98.5979 206.835L110.681 206.835C111.643 206.835 112.565 206.453 113.245 205.773C113.924 205.093 114.306 204.171 114.306 203.21C114.306 202.248 113.924 201.326 113.245 200.646C112.565 199.967 111.643 199.585 110.681 199.585V199.585ZM110.681 202.001C111.002 202.001 111.309 202.129 111.536 202.355C111.762 202.582 111.89 202.889 111.89 203.21C111.89 203.53 111.762 203.838 111.536 204.064C111.309 204.291 111.002 204.418 110.681 204.418L98.5979 204.418C98.2775 204.418 97.9701 204.291 97.7435 204.064C97.5169 203.838 97.3896 203.53 97.3896 203.21C97.3896 202.889 97.5169 202.582 97.7435 202.355C97.9701 202.129 98.2775 202.001 98.5979 202.001L110.681 202.001ZM105.848 208.043L96.1813 208.043C95.2199 208.043 94.2978 208.425 93.618 209.105C92.9382 209.785 92.5563 210.707 92.5563 211.668C92.5563 212.629 92.9382 213.551 93.618 214.231C94.2978 214.911 95.2199 215.293 96.1813 215.293L105.848 215.293C106.809 215.293 107.731 214.911 108.411 214.231C109.091 213.551 109.473 212.629 109.473 211.668C109.473 210.707 109.091 209.785 108.411 209.105C107.731 208.425 106.809 208.043 105.848 208.043V208.043ZM105.848 210.46C106.168 210.46 106.476 210.587 106.702 210.814C106.929 211.04 107.056 211.348 107.056 211.668C107.056 211.989 106.929 212.296 106.702 212.522C106.476 212.749 106.168 212.876 105.848 212.876L96.1813 212.876C95.8608 212.876 95.5535 212.749 95.3269 212.522C95.1002 212.296 94.9729 211.989 94.9729 211.668C94.9729 211.348 95.1002 211.04 95.3269 210.814C95.5535 210.587 95.8608 210.46 96.1813 210.46L105.848 210.46ZM110.681 216.501L103.431 216.501C102.47 216.501 101.548 216.883 100.868 217.563C100.188 218.243 99.8063 219.165 99.8063 220.126C99.8063 221.088 100.188 222.01 100.868 222.69C101.548 223.369 102.47 223.751 103.431 223.751L110.681 223.751C111.643 223.751 112.565 223.369 113.245 222.69C113.924 222.01 114.306 221.088 114.306 220.126C114.306 219.165 113.924 218.243 113.245 217.563C112.565 216.883 111.643 216.501 110.681 216.501V216.501ZM110.681 218.918C111.002 218.918 111.309 219.045 111.536 219.272C111.762 219.499 111.89 219.806 111.89 220.126C111.89 220.447 111.762 220.754 111.536 220.981C111.309 221.207 111.002 221.335 110.681 221.335L103.431 221.335C103.111 221.335 102.803 221.207 102.577 220.981C102.35 220.754 102.223 220.447 102.223 220.126C102.223 219.806 102.35 219.499 102.577 219.272C102.803 219.045 103.111 218.918 103.431 218.918L110.681 218.918Z" fill="white"/>
</g>
<path d="M73.2492 111.052L61.4641 116.516L72.0891 123.99L73.2492 111.052Z" fill="#B3F5FF"/>
</g>
</g>
<defs>
<filter id="filter0_d_2231_37356" x="-24.1674" y="-110" width="672.915" height="354.931" filterUnits="userSpaceOnUse" color-interpolation-filters="sRGB">
<feFlood flood-opacity="0" result="BackgroundImageFix"/>
<feColorMatrix in="SourceAlpha" type="matrix" values="0 0 0 0 0 0 0 0 0 0 0 0 0 0 0 0 0 0 127 0" result="hardAlpha"/>
<feOffset dy="4"/>
<feGaussianBlur stdDeviation="2"/>
<feColorMatrix type="matrix" values="0 0 0 0 0.756863 0 0 0 0 0.780392 0 0 0 0 0.815686 0 0 0 0.2 0"/>
<feBlend mode="normal" in2="BackgroundImageFix" result="effect1_dropShadow_2231_37356"/>
<feBlend mode="normal" in="SourceGraphic" in2="effect1_dropShadow_2231_37356" result="shape"/>
</filter>
<filter id="filter1_d_2231_37356" x="74.8313" y="187.168" width="58.1" height="57.7625" filterUnits="userSpaceOnUse" color-interpolation-filters="sRGB">
<feFlood flood-opacity="0" result="BackgroundImageFix"/>
<feColorMatrix in="SourceAlpha" type="matrix" values="0 0 0 0 0 0 0 0 0 0 0 0 0 0 0 0 0 0 127 0" result="hardAlpha"/>
<feOffset dy="4"/>
<feGaussianBlur stdDeviation="2"/>
<feColorMatrix type="matrix" values="0 0 0 0 0.419608 0 0 0 0 0.466667 0 0 0 0 0.54902 0 0 0 0.15 0"/>
<feBlend mode="normal" in2="BackgroundImageFix" result="effect1_dropShadow_2231_37356"/>
<feBlend mode="normal" in="SourceGraphic" in2="effect1_dropShadow_2231_37356" result="shape"/>
</filter>
<linearGradient id="paint0_linear_2231_37356" x1="128.931" y1="187.168" x2="63.9313" y2="257.168" gradientUnits="userSpaceOnUse">
<stop stop-color="#79E2F2"/>
<stop offset="0.0001" stop-color="#79E2F2"/>
<stop offset="1" stop-color="#79F2C0"/>
</linearGradient>
</defs>
</svg>
