<svg width="304" height="540" viewBox="0 0 304 540" fill="none" xmlns="http://www.w3.org/2000/svg">
<mask id="mask0_2008_21849" style="mask-type:alpha" maskUnits="userSpaceOnUse" x="0" y="0" width="304" height="540">
<rect width="304" height="540" fill="#D9D9D9"/>
</mask>
<g mask="url(#mask0_2008_21849)">
<g filter="url(#filter0_d_2008_21849)">
<path d="M231.443 146.599C235.18 161.284 242.999 208.306 237.324 217.399C236.091 219.458 234.043 220.206 231.549 219.524C219.175 216.655 192.033 176.721 189.66 153.529C188.25 140.337 197.573 132.452 206.876 130.856C214.196 129.579 222.587 131.718 227.707 138.647C229.366 140.788 230.677 143.492 231.443 146.599ZM207.397 133.839C199.214 135.295 191.501 141.837 192.652 153.23C194.843 174.415 221.2 214.011 232.21 216.587C233.733 216.992 234.303 216.417 234.714 215.731C239.133 208.562 233.153 165.996 228.471 147.341C225.696 135.925 215.579 132.383 207.397 133.839Z" stroke="#79E2F2" stroke-opacity="0.3"/>
<path d="M221.519 153.798C224.125 163.392 230.233 193.506 227.538 198.275C226.956 199.363 225.881 199.523 224.509 198.737C217.721 195.155 201.478 166.575 199.265 151.939C197.974 143.606 202.685 140.116 207.638 140.497C211.534 140.784 216.145 143.332 219.185 148.351C220.166 149.913 220.981 151.772 221.519 153.798ZM208.039 142.411C203.685 142.108 199.788 145.007 200.867 152.194C202.9 165.566 218.706 193.823 224.747 197.025C225.585 197.498 225.869 197.227 226.063 196.865C228.158 193.097 223.222 165.998 219.947 153.819C217.991 146.379 212.393 142.714 208.039 142.411Z" fill="#B3F5FF"/>
<path d="M217.286 155.639C218.92 161.337 222.856 179.191 221.372 181.967C221.052 182.6 220.436 182.68 219.636 182.197C215.679 179.989 205.933 162.897 204.455 154.231C203.595 149.296 206.257 147.302 209.112 147.597C211.358 147.82 214.047 149.388 215.867 152.393C216.453 153.328 216.948 154.436 217.286 155.639ZM209.37 148.731C206.86 148.492 204.659 150.148 205.38 154.404C206.737 162.322 216.228 179.217 219.749 181.19C220.237 181.481 220.397 181.325 220.504 181.114C221.656 178.92 218.437 162.861 216.382 155.63C215.152 151.212 211.879 148.971 209.37 148.731Z" fill="#00C7E6" fill-opacity="0.2"/>
<path d="M250.79 70.5288C245.917 81.4979 232.795 88.1563 214.638 97.4013C205.834 101.886 195.803 106.991 185.198 113.35C150.978 134.07 164.069 154.384 185.798 188.028C197.036 205.368 210.965 227.018 221.319 253.831C236.355 292.809 236.095 318.942 220.609 333.677C206.383 347.218 179.713 351.752 136.639 348.066C99.3028 344.85 70.198 323.148 50.0223 283.659C31.0451 246.446 24.9676 202.173 22.9805 179.165C19.6352 139.102 11.0865 104.018 -2.34937 74.7847C-13.0629 51.4451 -26.9108 31.7802 -43.5393 16.392C-48.9808 11.3399 -54.408 7.02841 -59.607 3.45496L-57.0856 3.42431C-52.36 6.83515 -47.3674 10.7815 -42.3623 15.3675C-25.5603 30.8883 -11.5816 50.6863 -0.822046 74.1937C12.6592 103.561 21.2117 138.847 24.6024 179.044C26.5468 202.053 32.5776 246.124 51.5082 283.136C71.3755 322.157 100.047 343.561 136.698 346.718C179.13 350.378 205.29 345.986 219.139 332.82C234.247 318.426 234.43 292.698 219.532 254.223C209.18 227.512 195.295 205.961 184.143 188.655C173.082 171.582 164.355 158.051 162.665 145.949C160.828 132.806 167.379 122.422 184.024 112.32C194.628 105.894 204.702 100.788 213.547 96.2697C231.452 87.1961 244.403 80.6072 249.028 70.0787C253.941 58.9744 249.333 44.0461 233.565 20.1282C228.763 12.8459 223.461 6.1758 217.956 0.0469547L220.136 0.0204586C225.509 5.98254 230.552 12.4874 235.177 19.5361C251.167 43.8217 255.866 59.052 250.79 70.5288Z" fill="#79E2F2" fill-opacity="0.5"/>
<path d="M196.546 45.8422C196.384 57.2106 189.885 66.9233 177.3 74.6655C165.894 81.7003 155.47 86.6785 146.357 91.1557C116.776 105.481 103.273 112.021 124.718 154.558C131.008 166.957 140.025 181.575 149.613 197.053C176.043 239.667 205.991 287.957 192.398 313.905C188.333 321.717 180.388 327.15 168.816 330.028C153.217 333.926 138.965 332.644 126.487 326.211C108.371 316.798 93.7955 296.737 81.8015 264.863C72.4591 240.095 64.7223 208.1 57.3954 164.352C50.1685 121.365 32.3934 76.9816 7.29752 39.4448C-2.09047 25.4549 -12.0869 13.0317 -22.0374 2.96448L-19.7803 2.93704C-10.1306 12.8693 -0.481682 24.9502 8.77585 38.8031C33.9596 76.4774 51.8233 121.033 59.0542 164.228C66.3804 207.941 74.1152 239.832 83.4563 264.531C95.3164 296.095 109.758 315.88 127.445 325.125C139.451 331.355 153.19 332.575 168.366 328.821C179.557 326.016 186.913 321.006 190.814 313.508C204.077 288.119 174.305 240.139 148.051 197.799C138.421 182.322 129.361 167.67 123.112 155.201C112.522 134.191 110.012 121.226 114.77 111.812C119.364 102.746 130.292 97.4154 145.442 90.1272C154.557 85.7193 164.896 80.7421 176.217 73.7431C188.34 66.2837 194.59 56.9552 194.802 46.002C195.012 30.5439 183.102 13.8816 170.492 0.693236L172.664 0.666832C192.448 21.3572 196.704 36.4838 196.546 45.8422Z" fill="#B3F5FF"/>
<path d="M152.859 47.2767C151.298 55.2209 143.524 61.1834 129.746 64.9932C88.6709 76.3855 91.9972 101.841 94.1692 118.677C95.3769 127.835 96.193 134.503 89.5204 135.393C81.0517 136.541 74.4638 132.979 68.8434 124.043C63.8423 116.078 59.8025 104.627 55.2549 91.327C45.6645 63.5198 33.3493 27.9216 3.00965 2.65981L5.36773 2.63114C35.1955 28.034 47.3769 63.3641 56.9205 90.9695C66.011 117.333 72.5567 136.341 89.2375 134.081C94.0711 133.449 93.6243 128.126 92.414 118.833C91.3455 110.212 89.9361 99.5052 94.0693 89.3376C98.981 77.3057 110.44 68.9376 129.122 63.753C142.217 60.1202 149.655 54.4989 151.14 47.0952C153.956 33.1328 135.806 15.0411 118.47 1.25616L120.871 1.22697C121.785 1.92407 122.657 2.68911 123.616 3.45312C145.235 21.3341 155.085 36.0868 152.859 47.2767Z" fill="#B3F5FF"/>
<path d="M108.483 28.8917C111.806 35.7466 111.281 41.5436 106.905 46.0821C103.362 49.7736 98.2055 51.4095 91.6901 50.9532C69.0768 49.3202 35.2578 22.5854 19.3868 2.49424L21.4276 2.46943C28.575 11.3531 39.0163 21.2343 50.2381 29.7002C66.2928 41.7558 81.1023 48.8392 91.9622 49.6444C97.8392 50.0751 102.446 48.6132 105.655 45.2605C117.411 33.1011 96.0218 13.5456 80.2268 1.72114L82.6502 1.69168C86.2757 4.42579 90.0791 7.55942 93.7156 10.8624C100.861 17.47 105.87 23.5345 108.483 28.8917Z" fill="#B3F5FF"/>
<path d="M93.5039 156.016L93.5117 156.024L93.5187 156.033C93.5172 156.031 93.5212 156.036 93.5371 156.053L93.5957 156.118C93.6461 156.173 93.718 156.251 93.811 156.352L93.9098 156.459C94.0879 156.652 94.3235 156.908 94.6129 157.223C95.3063 157.977 96.3088 159.071 97.5732 160.466C100.102 163.255 103.678 167.245 107.922 172.116C116.409 181.857 127.568 195.122 138.363 209.347C152.958 228.496 163.469 244.754 169.873 258.021C176.27 271.276 178.592 281.596 176.728 288.843L176.728 288.843C175.561 293.361 172.72 296.699 168.267 298.709C160.042 302.47 151.612 302.675 143.218 299.418C134.831 296.164 126.495 289.46 118.43 279.429L118.429 279.429C104.136 261.617 90.7123 233.044 82.5871 202.999C79.2375 190.66 76.4893 176.607 76.2839 166.066C76.2089 162.218 76.4731 158.817 77.1746 156.137C77.8744 153.462 79.0215 151.46 80.7494 150.478L80.7541 150.476C82.3785 149.599 84.2837 149.661 86.4139 150.6C88.5385 151.535 90.909 153.349 93.5039 156.016ZM82.0426 152.084L82.041 152.085C81.3349 152.477 80.3228 153.474 79.5647 155.949C78.8061 158.426 78.3084 162.364 78.621 168.599C79.0962 177.731 81.2433 189.822 84.7255 202.649L84.7255 202.649C92.7934 232.514 106.145 260.815 120.253 278.458C127.654 287.646 135.154 293.978 142.701 297.244L142.702 297.245C150.966 300.867 159.19 300.8 167.225 297.115C171.084 295.339 173.57 292.425 174.579 288.466L174.579 288.464C175.008 286.829 175.184 285.025 175.145 283.049C174.965 273.764 169.759 261.331 161.99 247.853C154.228 234.387 143.932 219.919 133.619 206.579C112.992 179.899 92.3167 157.754 91.76 157.194L91.7559 157.189C90.2413 155.592 88.4286 153.943 86.6694 152.883C84.8924 151.812 83.2618 151.396 82.0426 152.084Z" stroke="#79E2F2" stroke-opacity="0.5" stroke-width="0.5"/>
<path d="M108.405 202.844C108.538 203.012 119.396 216.07 129.591 230.662C143.305 250.366 149.358 263.381 147.569 269.303C147.121 270.766 146.191 271.863 144.731 272.491C138.725 275.175 132.265 272.371 125.482 264.078C118.786 255.818 111.893 241.932 106.97 226.902C106.048 224.031 102.495 212.681 102.365 206.003C102.317 203.562 102.671 201.761 103.828 201.136C105.668 200.063 107.743 202.174 108.405 202.844ZM104.844 202.209C103.431 203.006 103.678 211.243 108.651 226.577C113.486 241.505 120.376 255.256 126.983 263.382C133.146 270.97 138.781 273.614 143.843 271.315C144.829 270.862 145.507 270.108 145.832 268.985C146.035 268.304 146.151 267.591 146.133 266.709C145.822 250.742 108.056 204.916 106.993 203.675C105.58 202.234 104.885 202.107 104.844 202.209Z" fill="#B3F5FF"/>
<path d="M-5.25698 513.639L-5.25717 513.639C-18.951 541.065 -33.9171 565.588 -43.7477 580.91L-44.3002 581.771L-44.3002 580.748L-44.3002 578.422L-44.3002 578.333L-44.2525 578.259C-34.4289 562.984 -19.8714 539.053 -6.52439 512.298C6.78118 485.578 16.2237 461.443 21.5583 440.463L21.8479 440.537L21.5583 440.463C28.1864 414.402 28.4431 393.288 22.3623 377.662L22.6419 377.553L22.3623 377.662C8.2056 341.276 -15.6889 321.923 -36.8235 304.854L-36.8255 304.852C-38.0657 303.834 -39.2957 302.841 -40.5164 301.857L-40.6269 301.768C-41.8099 300.814 -42.9842 299.867 -44.1488 298.912L-44.2585 298.822L-44.2585 298.68L-44.2585 296.748L-44.2585 296.106L-43.7661 296.518C-41.2443 298.626 -38.6595 300.7 -36.0099 302.811L-36.0088 302.812C-14.7872 319.884 9.36982 339.43 23.7144 376.371C30.0478 392.665 29.8252 414.53 23.0161 441.219C17.6262 462.431 8.10266 486.787 -5.25698 513.639Z" stroke="#79E2F2" stroke-width="0.6"/>
<path d="M-47.6503 223.81C-45.0196 257.025 -27.4812 276.525 -5.21721 301.104C0.969944 307.981 7.42505 315.132 14.0994 323.143C30.8339 343.267 40.8698 365.854 43.9634 390.12C47.471 417.709 42.0634 448.032 27.9109 480.231C12.3699 515.596 -12.5979 566.786 -35.8119 610.669C-42.3157 622.978 -50.9874 639.039 -59.9758 654.748L-59.9758 651.934C-52.9118 639.43 -45.1169 625.245 -36.7375 609.419C-13.5722 565.575 11.3956 514.462 26.8878 479.176C53.2197 419.193 48.6646 367.221 13.2956 324.706C6.66995 316.734 0.214855 309.622 -5.97229 302.706C-28.4555 277.775 -46.1644 258.08 -48.8683 224.084C-50.7683 199.934 -54.5195 186.101 -60.0003 182.78L-60.0003 180.748C-53.8131 183.913 -49.6965 198.371 -47.6503 223.81Z" fill="#79E2F2" fill-opacity="0.4"/>
<path d="M8.11409 174.726C9.56535 159.054 7.45049 140.194 2.14904 123.075C-7.57504 91.3189 -34.655 29.7799 -52.664 -10.1673L-55.464 -9.98415C-37.3867 29.9586 -10.2638 91.9077 -0.396972 123.714C4.74332 140.607 6.96405 159.165 5.48821 174.603C3.35918 196.927 -5.24816 205.338 -12.1424 208.444C-18.3784 211.271 -26.0885 211.185 -35.1426 208.119L-34.8662 210.756C-25.5573 213.629 -17.5302 213.458 -10.8347 210.423C2.61858 204.292 6.92657 187.666 8.11409 174.726Z" fill="#B3F5FF"/>
<path d="M114.749 399.243C102.743 419.952 92.0959 430.224 82.7977 429.573C76.1077 429.168 70.7017 423.398 66.6582 411.846C62.158 399.118 59.8376 386.919 59.6333 376.432C59.3274 360.735 63.697 348.942 72.4734 345.084C83.7456 340.153 97.5537 349.572 107.359 358.415C119.724 369.519 122.554 385.601 114.749 399.243ZM74.0838 347.565C61.3503 353.208 59.4758 381.714 70.0297 411.18C73.6082 421.14 78.0531 426.574 83.0919 426.86C90.4774 427.326 100.604 417.06 111.603 398.1C114.373 393.273 115.659 388.047 115.558 382.838C115.4 374.712 111.684 366.629 104.704 360.253C91.9834 348.737 81.4856 344.418 74.0838 347.565Z" fill="#B3F5FF" fill-opacity="0.4"/>
<path d="M106.664 393.215L106.663 393.216C102.277 400.781 98.1313 406.455 94.2215 410.182C90.3157 413.904 86.6121 415.714 83.1176 415.47C78.0728 415.164 74.076 410.813 71.1197 402.367C67.8289 393.059 66.1294 384.132 65.9797 376.448C65.8677 370.7 66.6112 365.65 68.1968 361.675C69.7829 357.699 72.2187 354.783 75.4968 353.342L75.4972 353.342C79.7035 351.502 84.3601 352.351 88.8321 354.44C93.3063 356.53 97.6353 359.881 101.22 363.114C110.326 371.29 112.42 383.154 106.664 393.215ZM83.3592 412.992L83.3608 412.992C85.94 413.154 89.0662 411.438 92.5816 407.888C96.085 404.349 99.9264 399.038 103.934 392.13C105.932 388.647 106.859 384.878 106.786 381.123C106.672 375.269 103.996 369.434 98.9489 364.824C94.3197 360.633 90.109 357.766 86.3957 356.23C82.6839 354.694 79.4928 354.499 76.8749 355.611C74.6245 356.609 72.834 358.626 71.5363 361.454C70.2383 364.283 69.4413 367.909 69.1722 372.09C68.6341 380.452 70.2098 390.992 74.051 401.717C75.3515 405.337 76.803 408.114 78.3737 410.009C79.9435 411.902 81.6141 412.893 83.3592 412.992Z" stroke="#B3F5FF" stroke-width="0.5"/>
<path d="M98.0061 388.203C93.448 396.065 89.4057 399.965 85.8756 399.718C83.3357 399.564 81.2833 397.374 79.7482 392.988C78.0397 388.156 77.1588 383.525 77.0812 379.543C76.9651 373.584 78.624 369.106 81.956 367.642C86.2355 365.77 91.4777 369.346 95.2002 372.703C99.8948 376.918 100.969 383.024 98.0061 388.203ZM82.5674 368.584C77.7331 370.726 77.0214 381.548 81.0282 392.735C82.3868 396.516 84.0743 398.58 85.9873 398.688C88.7912 398.865 92.6359 394.968 96.8116 387.769C97.8631 385.937 98.3516 383.953 98.313 381.975C98.2529 378.89 96.8423 375.821 94.1924 373.401C89.363 369.029 85.3775 367.389 82.5674 368.584Z" fill="#B3F5FF"/>
<path d="M182.986 315.332L177.935 326.105L189.79 325.093L182.986 315.332Z" fill="#B3F5FF"/>
<line y1="-0.5" x2="49.98" y2="-0.5" transform="matrix(-0.940376 -0.340136 -0.340136 0.940376 227 99.7476)" stroke="#7A869A"/>
<g filter="url(#filter1_d_2008_21849)">
<path d="M237 97.7292V130.033C237 134.876 240.913 138.763 245.788 138.763H278.311C283.186 138.763 287.099 134.876 287.099 130.033V97.7292C287.099 92.8867 283.186 89 278.311 89H245.788C240.913 89 237 92.9504 237 97.7292Z" fill="url(#paint0_linear_2008_21849)"/>
<rect width="29" height="29" transform="translate(248 99)" fill="white" fill-opacity="0.01"/>
<path fill-rule="evenodd" clip-rule="evenodd" d="M255.25 101.417H267.333C268.294 101.417 269.216 101.799 269.896 102.478C270.576 103.158 270.958 104.08 270.958 105.042C270.958 106.003 270.576 106.925 269.896 107.605C269.216 108.285 268.294 108.667 267.333 108.667H255.25C254.288 108.667 253.366 108.285 252.686 107.605C252.006 106.925 251.625 106.003 251.625 105.042C251.625 104.08 252.006 103.158 252.686 102.478C253.366 101.799 254.288 101.417 255.25 101.417V101.417ZM255.25 103.833C254.929 103.833 254.622 103.961 254.395 104.187C254.168 104.414 254.041 104.721 254.041 105.042C254.041 105.362 254.168 105.669 254.395 105.896C254.622 106.123 254.929 106.25 255.25 106.25H267.333C267.653 106.25 267.961 106.123 268.187 105.896C268.414 105.669 268.541 105.362 268.541 105.042C268.541 104.721 268.414 104.414 268.187 104.187C267.961 103.961 267.653 103.833 267.333 103.833H255.25ZM260.083 109.875H269.75C270.711 109.875 271.633 110.257 272.313 110.937C272.993 111.617 273.375 112.539 273.375 113.5C273.375 114.461 272.993 115.383 272.313 116.063C271.633 116.743 270.711 117.125 269.75 117.125H260.083C259.121 117.125 258.199 116.743 257.52 116.063C256.84 115.383 256.458 114.461 256.458 113.5C256.458 112.539 256.84 111.617 257.52 110.937C258.199 110.257 259.121 109.875 260.083 109.875V109.875ZM260.083 112.292C259.762 112.292 259.455 112.419 259.228 112.646C259.002 112.872 258.875 113.179 258.875 113.5C258.875 113.82 259.002 114.128 259.228 114.354C259.455 114.581 259.762 114.708 260.083 114.708H269.75C270.07 114.708 270.377 114.581 270.604 114.354C270.831 114.128 270.958 113.82 270.958 113.5C270.958 113.179 270.831 112.872 270.604 112.646C270.377 112.419 270.07 112.292 269.75 112.292H260.083ZM255.25 118.333H262.5C263.461 118.333 264.383 118.715 265.063 119.395C265.743 120.075 266.125 120.997 266.125 121.958C266.125 122.92 265.743 123.842 265.063 124.522C264.383 125.201 263.461 125.583 262.5 125.583H255.25C254.288 125.583 253.366 125.201 252.686 124.522C252.006 123.842 251.625 122.92 251.625 121.958C251.625 120.997 252.006 120.075 252.686 119.395C253.366 118.715 254.288 118.333 255.25 118.333V118.333ZM255.25 120.75C254.929 120.75 254.622 120.877 254.395 121.104C254.168 121.33 254.041 121.638 254.041 121.958C254.041 122.279 254.168 122.586 254.395 122.813C254.622 123.039 254.929 123.167 255.25 123.167H262.5C262.82 123.167 263.127 123.039 263.354 122.813C263.581 122.586 263.708 122.279 263.708 121.958C263.708 121.638 263.581 121.33 263.354 121.104C263.127 120.877 262.82 120.75 262.5 120.75H255.25Z" fill="white"/>
</g>
<path d="M161.052 83.2492L166.516 71.4641L173.99 82.0891L161.052 83.2492Z" fill="#B3F5FF"/>
</g>
</g>
<defs>
<filter id="filter0_d_2008_21849" x="-64.0002" y="-10.1674" width="355.1" height="672.915" filterUnits="userSpaceOnUse" color-interpolation-filters="sRGB">
<feFlood flood-opacity="0" result="BackgroundImageFix"/>
<feColorMatrix in="SourceAlpha" type="matrix" values="0 0 0 0 0 0 0 0 0 0 0 0 0 0 0 0 0 0 127 0" result="hardAlpha"/>
<feOffset dy="4"/>
<feGaussianBlur stdDeviation="2"/>
<feColorMatrix type="matrix" values="0 0 0 0 0.756863 0 0 0 0 0.780392 0 0 0 0 0.815686 0 0 0 0.2 0"/>
<feBlend mode="normal" in2="BackgroundImageFix" result="effect1_dropShadow_2008_21849"/>
<feBlend mode="normal" in="SourceGraphic" in2="effect1_dropShadow_2008_21849" result="shape"/>
</filter>
<filter id="filter1_d_2008_21849" x="233" y="89" width="58.0999" height="57.7626" filterUnits="userSpaceOnUse" color-interpolation-filters="sRGB">
<feFlood flood-opacity="0" result="BackgroundImageFix"/>
<feColorMatrix in="SourceAlpha" type="matrix" values="0 0 0 0 0 0 0 0 0 0 0 0 0 0 0 0 0 0 127 0" result="hardAlpha"/>
<feOffset dy="4"/>
<feGaussianBlur stdDeviation="2"/>
<feColorMatrix type="matrix" values="0 0 0 0 0.419608 0 0 0 0 0.466667 0 0 0 0 0.54902 0 0 0 0.15 0"/>
<feBlend mode="normal" in2="BackgroundImageFix" result="effect1_dropShadow_2008_21849"/>
<feBlend mode="normal" in="SourceGraphic" in2="effect1_dropShadow_2008_21849" result="shape"/>
</filter>
<linearGradient id="paint0_linear_2008_21849" x1="237" y1="89" x2="302" y2="159" gradientUnits="userSpaceOnUse">
<stop stop-color="#79E2F2"/>
<stop offset="0.0001" stop-color="#79E2F2"/>
<stop offset="1" stop-color="#79F2C0"/>
</linearGradient>
</defs>
</svg>
