<svg width="716" height="225" viewBox="0 0 716 225" fill="none" xmlns="http://www.w3.org/2000/svg">
<mask id="mask0_2008_22941" style="mask-type:alpha" maskUnits="userSpaceOnUse" x="0" y="0" width="716" height="225">
<rect width="716" height="225" fill="#D9D9D9"/>
</mask>
<g mask="url(#mask0_2008_22941)">
<g filter="url(#filter0_d_2008_22941)">
<path d="M87.3886 44.2559C117.989 49.6191 121.649 69.6029 126.27 94.95C134.5 121 137.927 158.454 184.733 186.534C208.19 200.574 230.687 209.387 253.539 213.452C273.939 217.073 294.233 216.834 315.45 212.735C354.865 205.049 392.075 184.553 428.113 164.774C461.841 146.225 496.741 126.992 534.307 117.53C554.494 112.406 573.721 110.527 593.126 111.62C614.913 112.918 636.379 117.974 658.627 127.163C697.508 143.219 736.176 148.787 773.493 143.765C780.388 142.809 787.212 141.545 794 139.871L794 138.129C787.105 139.803 780.21 141.135 773.209 142.091C736.176 147.113 697.864 141.545 659.267 125.66C631.865 114.353 606.454 109.673 582.535 109.673C524.747 109.673 475.417 136.796 427.26 163.271C389.694 183.938 354.296 203.443 315.095 211.061C294.126 215.195 274.046 215.4 253.895 211.779C231.22 207.782 199.679 194.061 186.5 184.5C161 166 145 159.5 127.976 94.6767C125.594 81.5932 123.498 70.2862 118.024 61.1995C111.947 51.1222 102.244 45.2124 87.7085 42.6504C44.6337 35.0668 19.0447 23.1106 7.13875 4.93726C4.29553 0.633053 2.19859 -4.04684 0.81252 -9.0001L-0.99998 -9.0001C0.45717 -3.70524 2.58953 1.17966 5.68154 5.82548C17.8363 24.3746 43.7807 36.6381 87.3886 44.2559Z" fill="#B3F5FF"/>
<path d="M126.867 29.0258L126.868 29.026C145.59 31.7432 155.707 35.8328 162.109 42.1289C168.523 48.437 171.278 57.0182 175.108 68.9853L175.108 68.9859L175.187 69.2304C181.887 90.0779 192.039 121.665 231.342 167.299C244.636 182.754 258.16 191.961 272.006 196.351C285.854 200.741 299.98 200.298 314.453 196.527C343.357 188.997 373.743 168.162 406.235 145.883L406.261 145.865L405.979 145.452L406.262 145.865C472.271 100.59 546.855 49.5628 637.867 86.3348C672.898 100.515 708.268 107.501 743.023 107.18L743.023 107.18C768.877 106.931 794.513 102.654 819.159 94.3844L819.5 94.2701L819.5 93.9104L819.5 92.0607L819.5 91.3649L818.841 91.5868C794.257 99.8581 768.836 104.153 743.014 104.366L743.013 104.366C708.621 104.721 673.674 97.6932 638.972 83.7003C597.735 67.004 556.053 66.7231 511.723 82.6976L511.723 82.6978C473.316 96.583 438.843 120.133 405.533 142.887L404.673 143.475L404.673 143.475C372.449 165.546 342.157 186.293 313.826 193.701L313.826 193.701C298.208 197.806 284.041 197.596 270.828 192.939C257.612 188.281 245.309 179.157 233.453 165.366C194.376 119.912 184.385 88.6449 177.782 67.9797L177.778 67.9693L177.777 67.966C173.969 56.0463 171.06 46.9439 164.209 40.1502C157.346 33.3436 146.597 28.9126 127.268 26.08C104.738 22.7802 90.8247 14.7163 85.6284 2.26663C84.3358 -0.878986 83.5783 -4.3124 83.2893 -8.03875L83.2536 -8.50009L82.7909 -8.50009L81 -8.5001L80.4672 -8.5001L80.501 -7.96834C80.7597 -3.90374 81.5734 -0.148777 83.0235 3.2543C88.7173 17.0883 103.563 25.6022 126.867 29.0258Z" stroke="#B3F5FF"/>
<path d="M302.247 119.788C319.137 131.047 341.843 130.674 369.619 118.521C391.691 108.903 417.044 91.9026 445.007 68.0431C473.566 43.5871 499.106 16.8571 515.063 -0.702044L512.64 -0.702044C496.719 16.8571 471.777 42.8788 443.888 66.7383C416.037 90.5232 390.871 107.411 368.985 116.955C341.805 128.81 319.733 129.295 303.366 118.372C265.374 93.021 245.166 50.223 227.382 12.4579C225.256 8.02149 223.243 3.65973 221.193 -0.627527L219.179 -0.627527C221.379 3.88341 223.541 8.50617 225.741 13.2408C243.526 51.155 263.845 94.214 302.247 119.788Z" fill="#B3F5FF"/>
<mask id="path-5-inside-1_2008_22941" fill="white">
<path d="M350.828 55.3677C358.732 60.9598 368.948 60.8479 381.177 54.9949C390.796 50.3721 401.683 42.245 413.539 30.7253C424.836 19.7276 435.015 7.76064 441.689 -0.702017L439.303 -0.702017C420.325 22.9338 376.852 71.5102 351.947 53.8765C335.84 42.4314 326.407 19.7649 318.28 -0.702028L316.341 -0.702028C324.581 20.1377 334.125 43.5125 350.828 55.3677Z"/>
</mask>
<path d="M350.828 55.3677C358.732 60.9598 368.948 60.8479 381.177 54.9949C390.796 50.3721 401.683 42.245 413.539 30.7253C424.836 19.7276 435.015 7.76064 441.689 -0.702017L439.303 -0.702017C420.325 22.9338 376.852 71.5102 351.947 53.8765C335.84 42.4314 326.407 19.7649 318.28 -0.702028L316.341 -0.702028C324.581 20.1377 334.125 43.5125 350.828 55.3677Z" fill="#79E2F2"/>
<path d="M350.828 55.3677L349.671 56.9987L349.673 57.0004L350.828 55.3677ZM381.177 54.9949L382.041 56.7989L382.043 56.7976L381.177 54.9949ZM413.539 30.7253L414.933 32.1597L414.935 32.1584L413.539 30.7253ZM441.689 -0.702017L443.259 0.536442L445.813 -2.70202L441.689 -2.70202L441.689 -0.702017ZM439.303 -0.702017L439.303 -2.70202L438.343 -2.70202L437.743 -1.95417L439.303 -0.702017ZM351.947 53.8765L350.788 55.5068L350.791 55.5088L351.947 53.8765ZM318.28 -0.702028L320.138 -1.44019L319.637 -2.70203L318.28 -2.70203L318.28 -0.702028ZM316.341 -0.702028L316.341 -2.70203L313.399 -2.70203L314.481 0.0333457L316.341 -0.702028ZM349.673 57.0004C358.393 63.1695 369.449 62.8257 382.041 56.7989L380.314 53.1909C368.448 58.8702 359.072 58.7501 351.983 53.735L349.673 57.0004ZM382.043 56.7976C391.93 52.0462 402.994 43.7604 414.933 32.1597L412.146 29.2909C400.373 40.7295 389.663 48.6981 380.311 53.1923L382.043 56.7976ZM414.935 32.1584C426.312 21.0828 436.549 9.04561 443.259 0.536442L440.118 -1.94048C433.481 6.47568 423.361 18.3724 412.144 29.2922L414.935 32.1584ZM441.689 -2.70202L439.303 -2.70202L439.303 1.29798L441.689 1.29798L441.689 -2.70202ZM437.743 -1.95417C428.278 9.83367 412.78 27.7426 396.609 40.4928C388.516 46.8744 380.378 51.8627 372.842 54.2014C365.345 56.5277 358.661 56.1799 353.102 52.2442L350.791 55.5088C357.685 60.39 365.775 60.5827 374.027 58.0217C382.24 55.4732 390.826 50.1465 399.086 43.6338C415.623 30.5952 431.349 12.3981 440.862 0.550138L437.743 -1.95417ZM353.105 52.2462C345.396 46.7678 339.186 38.5283 333.868 28.9959C328.552 19.4694 324.205 8.80063 320.138 -1.44019L316.421 0.0361371C320.482 10.2623 324.915 21.1602 330.375 30.9449C335.831 40.7238 342.391 49.5401 350.788 55.5068L353.105 52.2462ZM318.28 -2.70203L316.341 -2.70203L316.341 1.29797L318.28 1.29797L318.28 -2.70203ZM314.481 0.0333457C318.596 10.4416 323.086 21.6115 328.661 31.6716C334.235 41.7273 340.973 50.8255 349.671 56.9987L351.986 53.7368C343.98 48.0547 337.595 39.538 332.16 29.7325C326.728 19.9315 322.325 8.99415 318.201 -1.4374L314.481 0.0333457Z" fill="#79E2F2" mask="url(#path-5-inside-1_2008_22941)"/>
<path d="M650.105 57.0082C665.726 61.0345 681.908 65.1726 696.448 70.0937C732.502 82.4335 774.259 72.0322 802.968 61.1463C808.635 59.0214 813.967 56.7845 818.963 54.5104L818.963 52.4973C813.78 54.8087 808.188 57.1946 802.297 59.4314C773.887 70.2055 732.576 80.4576 697.045 68.3042C682.504 63.3086 666.286 59.1705 650.589 55.1815C615.319 46.1969 581.987 37.6597 579.713 22.2255C578.743 15.7387 583.255 8.13351 593.321 -0.701964L590.637 -0.701965C581.092 8.09623 576.879 15.7759 577.886 22.5237C580.421 39.1881 612.709 47.4644 650.105 57.0082Z" fill="#B3F5FF"/>
<path d="M672.1 27.3894C684.232 29.66 698.993 29.5362 712.59 26.9766C737.756 22.2702 786.998 7.20162 819 -2.99553L819 -5.10105C787.036 5.05481 737.455 20.2061 712.252 24.995C698.843 27.4721 684.307 27.6785 672.363 25.4079C655.085 22.1051 649.037 15.1694 646.934 9.84372C645.018 5.05478 645.507 -0.60105 648.361 -7.00007L646.295 -7.00007C643.591 -0.39463 643.291 5.50896 645.319 10.6282C649.375 21.073 662.108 25.5316 672.1 27.3894Z" fill="#B3F5FF" fill-opacity="0.5"/>
<path d="M675.085 22.5236C685.484 24.605 698.137 24.4915 709.792 22.1452C731.362 17.831 773.57 4.01814 801 -5.32924L801 -7.2593C773.602 2.05024 731.105 15.9389 709.502 20.3288C698.008 22.5994 685.549 22.7886 675.311 20.7072C660.501 17.6797 655.318 11.3219 653.515 6.44007C651.873 2.05021 652.291 -3.1343 654.738 -9.00007L652.967 -9.00007C650.649 -2.94508 650.392 2.46654 652.13 7.15916C655.607 16.7336 666.522 20.8207 675.085 22.5236Z" fill="#B3F5FF"/>
<path d="M667.15 36.121C680.6 38.7701 696.964 38.6256 712.037 35.6394C739.935 30.1486 794.524 12.5686 830 0.671894L830 -1.78455C794.565 10.064 739.602 27.7404 711.662 33.3275C696.797 36.2174 680.683 36.4582 667.442 33.8092C648.288 29.956 641.584 21.8643 639.252 15.651C637.129 10.0639 637.67 3.46545 640.835 -4.00007L638.545 -4.00007C635.547 3.70627 635.213 10.5938 637.462 16.5662C641.959 28.7519 656.075 33.9536 667.15 36.121Z" fill="#79E2F2" fill-opacity="0.8"/>
<path d="M361.489 19.1313C363.055 20.6598 365.068 21.2563 367.379 21.0326C375.209 20.1751 385.909 8.91639 394 -0.962963L391.614 -0.962963C383.896 8.39447 374.053 18.423 367.156 19.2059C365.403 19.3923 363.949 18.9449 362.719 17.7892C358.506 13.8374 353.845 6.60505 349.595 -1.00019L347.47 -1.00019C351.944 7.01514 356.94 14.8813 361.489 19.1313Z" fill="#79E2F2" fill-opacity="0.5"/>
<path d="M359.255 24.1941L359.253 24.1926C352.746 18.2635 345.593 7.30283 339.173 -3.90006L342.002 -3.90006C348.115 6.75999 354.82 16.9043 360.89 22.4558C362.685 24.0997 364.808 24.735 367.356 24.4707L367.357 24.4706C369.859 24.1937 372.621 23.1003 375.526 21.4168C378.432 19.7327 381.488 17.4548 384.577 14.8024C390.746 9.50703 397.06 2.71257 402.61 -3.84779L405.785 -3.84779C399.993 3.03901 393.286 10.3835 386.628 16.169C379.911 22.0045 373.262 26.2379 367.658 26.8366C364.354 27.1483 361.485 26.3168 359.255 24.1941Z" stroke="#79E2F2" stroke-width="0.2"/>
<path d="M158.883 10.9365C189.646 14.9703 207.705 41.8625 230.469 76.0006C236.839 85.4876 243.462 95.3854 250.881 105.619C269.52 131.279 290.438 146.667 312.913 151.411C338.464 156.789 366.548 148.498 396.37 126.797C429.123 102.968 476.534 64.6836 517.177 29.0888C528.577 19.1163 543.451 5.81959 558 -7.96265L555.394 -7.96265C543.813 2.86892 530.676 14.821 516.018 27.6694C475.412 63.1895 428.074 101.474 395.393 125.228C339.839 165.604 291.705 158.619 252.329 104.387C244.946 94.2276 238.359 84.3298 231.953 74.8428C208.863 40.3685 190.623 13.2149 159.136 9.06897C136.77 6.15565 123.958 0.403728 120.882 -8.00008L119 -8.00008C121.932 1.48689 135.323 7.79906 158.883 10.9365Z" fill="#79E2F2" fill-opacity="0.7"/>
<path d="M338.378 82.8348C350.252 87.5505 362.473 86.9916 374.655 81.193C404.879 66.8363 432.289 49.8597 456.113 30.6825C470.763 18.8758 481.827 8.08205 490 -1.00005L487.494 -1.00005C468.874 19.3299 432.906 51.6413 373.845 79.7259C362.164 85.2451 350.522 85.8039 339.188 81.3328C316.365 72.2856 298.516 44.3755 287.568 22.4737C283.366 14.16 279.819 6.0211 277.005 -1.00007L275 -1.00007C277.891 6.16082 281.477 14.5443 285.794 23.1374C301.909 55.309 319.642 75.4294 338.378 82.8348Z" fill="#B3F5FF"/>
<path d="M304.231 8.18326C308.791 19.897 314.792 33.2245 322.033 44.8369C329.27 56.4431 337.765 66.3668 347.327 71.2337L347.327 71.2339C356.848 76.0562 366.633 75.4472 376.424 69.507L376.425 69.5066C425.552 39.5123 455.504 5.00953 471.043 -16.7501L472.519 -16.7501C465.75 -7.13444 456.631 4.25245 444.608 16.6938C424.788 37.1777 401.984 55.3119 376.839 70.6481L376.838 70.6482C366.764 76.8053 356.681 77.3919 346.88 72.3938L346.879 72.3935L304.464 8.09255M304.231 8.18326L304.464 8.09255M304.231 8.18326C304.231 8.18355 304.231 8.18384 304.231 8.18413L304.464 8.09255M304.231 8.18326C300.757 -0.641083 297.821 -9.28062 295.485 -16.7501M304.464 8.09255C300.965 -0.794418 298.012 -9.49468 295.669 -17.0001M295.485 -16.7501L295.669 -16.7501L295.669 -17.0001M295.485 -16.7501C295.467 -16.8086 295.449 -16.8671 295.431 -16.9256L295.669 -17.0001M295.485 -16.7501L295.669 -17.0001M294.262 -17.0001L294 -17.0001C294.026 -16.9169 294.053 -16.8336 294.079 -16.7501L294.341 -16.7501C294.315 -16.8336 294.288 -16.9169 294.262 -17.0001Z" stroke="#B3F5FF" stroke-width="0.5"/>
<path d="M508.24 58.218L508.235 58.213L508.229 58.2082C507.85 57.8911 507.739 57.6545 507.708 57.4947C507.675 57.3288 507.71 57.1533 507.807 56.9107L507.807 56.9107L507.809 56.9048C508.048 56.2829 508.647 55.4745 509.603 54.5073C510.55 53.5511 511.806 52.4789 513.303 51.3271C516.298 49.0242 520.223 46.429 524.481 43.8392C532.999 38.6592 542.805 33.5276 549.068 30.8308L549.072 30.8292C552.769 29.2039 556.098 29.4746 558.817 30.793C561.55 32.1184 563.696 34.5181 564.961 37.1856C567.493 42.5262 567.011 49.6865 560.317 53.8426C553.938 57.7815 542.396 60.2108 531.63 60.9661C526.259 61.343 521.113 61.3009 516.941 60.8308C514.854 60.5957 513.022 60.2547 511.532 59.8104C510.032 59.3633 508.922 58.8239 508.24 58.218ZM547.846 27.8187C542.857 29.9466 532.847 35.021 523.736 40.4855C519.179 43.2185 514.834 46.0563 511.449 48.6786C509.757 49.9895 508.296 51.2533 507.165 52.4292C506.044 53.5954 505.215 54.7095 504.83 55.7254C504.47 56.6323 504.401 57.5399 504.641 58.3963C504.879 59.249 505.412 60.0124 506.19 60.6554C507.117 61.4801 508.468 62.1499 510.11 62.6864C511.762 63.2267 513.743 63.643 515.954 63.9397C520.376 64.5332 525.76 64.6537 531.364 64.308C542.549 63.6181 554.729 61.0629 561.931 56.605C570.301 51.4754 570.862 42.156 567.778 35.7536C565.369 30.7149 560.476 26.506 554.144 26.5034C552.152 26.457 549.993 26.8834 547.846 27.8187Z" stroke="#79E2F2" stroke-opacity="0.4"/>
<path d="M547.575 35.7252C541.217 38.1278 521.975 47.2212 520.19 51.4062C519.772 52.3362 520.051 53.2145 520.971 53.8862C525.349 57.3479 547.213 56.5471 556.304 51.5612C561.491 48.7453 561.853 43.6303 559.929 40.0911C558.423 37.3011 555.383 35.0019 551.479 35.0019C550.252 34.976 548.914 35.2086 547.575 35.7252ZM558.702 40.6594C560.375 43.7853 560.068 48.022 555.606 50.4762C547.296 55.0229 525.767 56.0046 521.863 52.9304C521.305 52.5171 521.361 52.1813 521.501 51.8713C522.923 48.5904 540.046 39.9877 548.105 36.9135C553.013 35.0019 557.029 37.5335 558.702 40.6594Z" fill="#79E2F2"/>
<path d="M547.575 35.7252C541.217 38.1278 521.975 47.2212 520.19 51.4062C519.772 52.3362 520.051 53.2145 520.971 53.8862C525.349 57.3479 547.213 56.5471 556.304 51.5612C561.491 48.7453 561.853 43.6303 559.929 40.0911C558.423 37.3011 555.383 35.0019 551.479 35.0019C550.252 34.976 548.914 35.2086 547.575 35.7252ZM558.702 40.6594C560.375 43.7853 560.068 48.022 555.606 50.4762C547.296 55.0229 525.767 56.0046 521.863 52.9304C521.305 52.5171 521.361 52.1813 521.501 51.8713C522.923 48.5904 540.046 39.9877 548.105 36.9135C553.013 35.0019 557.029 37.5335 558.702 40.6594Z" fill="#79E2F2"/>
<path d="M547.575 35.7252C541.217 38.1278 521.975 47.2212 520.19 51.4062C519.772 52.3362 520.051 53.2145 520.971 53.8862C525.349 57.3479 547.213 56.5471 556.304 51.5612C561.491 48.7453 561.853 43.6303 559.929 40.0911C558.423 37.3011 555.383 35.0019 551.479 35.0019C550.252 34.976 548.914 35.2086 547.575 35.7252ZM558.702 40.6594C560.375 43.7853 560.068 48.022 555.606 50.4762C547.296 55.0229 525.767 56.0046 521.863 52.9304C521.305 52.5171 521.361 52.1813 521.501 51.8713C522.923 48.5904 540.046 39.9877 548.105 36.9135C553.013 35.0019 557.029 37.5335 558.702 40.6594Z" fill="#79E2F2"/>
<path d="M547.487 39.4489C543.455 40.9362 531.252 46.5655 530.121 49.1562C529.855 49.7319 530.032 50.2756 530.616 50.6914C533.392 52.8344 547.257 52.3387 553.022 49.2521C556.311 47.509 556.541 44.3425 555.321 42.1516C554.366 40.4244 552.438 39.0011 549.963 39.0011C549.184 38.9851 548.336 39.1291 547.487 39.4489ZM554.543 42.5034C555.604 44.4385 555.409 47.0612 552.58 48.5805C547.31 51.3951 533.657 52.0028 531.182 50.0997C530.828 49.8439 530.863 49.636 530.952 49.4441C531.854 47.4131 542.712 42.0876 547.823 40.1845C550.935 39.0011 553.482 40.5684 554.543 42.5034Z" fill="#B3F5FF"/>
<path d="M547.487 39.4489C543.455 40.9362 531.252 46.5655 530.121 49.1562C529.855 49.7319 530.032 50.2756 530.616 50.6914C533.392 52.8344 547.257 52.3387 553.022 49.2521C556.311 47.509 556.541 44.3425 555.321 42.1516C554.366 40.4244 552.438 39.0011 549.963 39.0011C549.184 38.9851 548.336 39.1291 547.487 39.4489ZM554.543 42.5034C555.604 44.4385 555.409 47.0612 552.58 48.5805C547.31 51.3951 533.657 52.0028 531.182 50.0997C530.828 49.8439 530.863 49.636 530.952 49.4441C531.854 47.4131 542.712 42.0876 547.823 40.1845C550.935 39.0011 553.482 40.5684 554.543 42.5034Z" fill="#79E2F2"/>
<path d="M547.487 39.4489C543.455 40.9362 531.252 46.5655 530.121 49.1562C529.855 49.7319 530.032 50.2756 530.616 50.6914C533.392 52.8344 547.257 52.3387 553.022 49.2521C556.311 47.509 556.541 44.3425 555.321 42.1516C554.366 40.4244 552.438 39.0011 549.963 39.0011C549.184 38.9851 548.336 39.1291 547.487 39.4489ZM554.543 42.5034C555.604 44.4385 555.409 47.0612 552.58 48.5805C547.31 51.3951 533.657 52.0028 531.182 50.0997C530.828 49.8439 530.863 49.636 530.952 49.4441C531.854 47.4131 542.712 42.0876 547.823 40.1845C550.935 39.0011 553.482 40.5684 554.543 42.5034Z" fill="#79E2F2"/>
<path d="M499.192 120.203L511.675 123.8L502.319 132.812L499.192 120.203Z" fill="#B3F5FF"/>
<path d="M384.675 125.942L392.532 136.287L379.645 137.919L384.675 125.942Z" fill="#79E2F2"/>
<line x1="572.661" y1="191.367" x2="507.661" y2="131.367" stroke="#7A869A"/>
<path d="M345 91.9999L379 129" stroke="#7A869A"/>
<g filter="url(#filter1_d_2008_22941)">
<path d="M292.069 73.8978V106.202C292.069 111.045 295.982 114.931 300.857 114.931H333.38C338.256 114.931 342.169 111.045 342.169 106.202V73.8978C342.169 69.0553 338.256 65.1686 333.38 65.1686H300.857C295.982 65.1686 292.069 69.1191 292.069 73.8978Z" fill="url(#paint0_linear_2008_22941)"/>
<path fill-rule="evenodd" clip-rule="evenodd" d="M324.045 85.1142C325.475 85.1142 326.746 84.0018 326.746 82.4127C326.746 80.9825 325.634 79.7112 324.045 79.7112C322.456 79.7112 321.343 80.8236 321.343 82.4127C321.502 83.8429 322.615 85.1142 324.045 85.1142ZM324.045 100.846C325.475 100.846 326.746 99.734 326.746 98.1449C326.746 96.5558 325.634 95.4434 324.045 95.4434C322.456 95.4434 321.343 96.5558 321.343 98.1449C321.343 99.734 322.615 100.846 324.045 100.846ZM329.289 82.4127C329.289 85.2731 326.905 87.6568 324.045 87.6568C321.184 87.6568 318.801 85.2731 318.801 82.4127C318.801 79.5523 321.184 77.1686 324.045 77.1686C326.905 77.1686 329.289 79.5523 329.289 82.4127ZM329.289 98.1449C329.289 101.005 326.905 103.389 324.045 103.389C321.184 103.389 318.801 101.005 318.801 98.1449C318.801 95.2845 321.184 92.9008 324.045 92.9008C326.905 92.9008 329.289 95.2845 329.289 98.1449Z" fill="white"/>
<path fill-rule="evenodd" clip-rule="evenodd" d="M314.033 81.7771C314.351 81.4592 314.669 81.1414 315.146 81.1414H317.053C317.847 81.1414 318.324 81.7771 318.324 82.4127C318.324 83.2073 317.688 83.684 317.053 83.684H315.94L314.987 85.1142C314.51 85.7498 313.716 85.9087 313.239 85.432C312.762 84.9553 312.444 84.1607 312.921 83.684L314.033 81.7771ZM311.809 87.3389C312.444 87.8157 312.603 88.6102 312.127 89.087L311.332 90.3582L312.127 91.6295C312.603 92.2652 312.285 93.0597 311.809 93.3776C311.173 93.8543 310.379 93.5365 310.061 93.0597L309.107 91.6295C308.63 91.3117 308.472 90.835 308.472 90.5172C308.472 90.0404 308.63 89.5637 309.107 89.4048L310.061 87.9746C310.379 87.18 311.173 87.0211 311.809 87.3389ZM303.069 90.3582C303.069 89.5637 303.704 89.087 304.34 89.087H307.041C307.836 89.087 308.313 89.7226 308.313 90.3582C308.313 90.3582 308.313 90.3583 308.313 90.5172C308.313 90.5172 308.313 90.5172 308.313 90.6761C308.313 91.4706 307.677 91.9474 307.041 91.9474H304.34C303.545 91.9474 303.069 91.3117 303.069 90.6761C303.069 90.5172 303.069 90.5172 303.069 90.3582ZM312.921 95.2845C313.557 94.8078 314.351 95.1256 314.669 95.6023L315.623 97.0325H316.735C317.53 97.0325 318.006 97.6682 318.006 98.3038C318.006 98.9394 317.371 99.5751 316.735 99.5751H314.828C314.351 99.5751 314.033 99.4162 313.716 98.9394L312.444 96.8736C312.285 96.5558 312.444 95.6023 312.921 95.2845Z" fill="white"/>
</g>
<g filter="url(#filter2_d_2008_22941)">
<path d="M577.069 174.898V207.202C577.069 212.045 580.982 215.931 585.857 215.931H618.38C623.256 215.931 627.169 212.045 627.169 207.202V174.898C627.169 170.055 623.256 166.169 618.38 166.169H585.857C580.982 166.169 577.069 170.119 577.069 174.898Z" fill="url(#paint1_linear_2008_22941)"/>
<path fill-rule="evenodd" clip-rule="evenodd" d="M611.429 196.066C610.149 196.066 609.029 196.529 608.069 197.3C607.909 197.454 607.749 197.609 607.589 197.763L597.349 192.209C597.349 192.054 597.349 191.9 597.349 191.592L607.909 185.729C607.909 185.729 607.909 185.729 608.069 185.883C608.869 186.654 610.149 187.117 611.429 187.117C612.709 187.117 613.829 186.654 614.789 185.883C615.749 185.112 616.069 183.877 616.069 182.643C616.069 181.409 615.589 180.329 614.789 179.403C613.989 178.632 612.709 178.169 611.429 178.169C610.149 178.169 609.029 178.632 608.069 179.403C607.269 180.174 606.789 181.409 606.789 182.643C606.789 182.797 606.789 182.797 606.789 182.952L596.389 188.814C596.229 188.66 596.229 188.66 596.069 188.506C595.269 187.734 593.989 187.272 592.709 187.272C591.429 187.272 590.309 187.734 589.349 188.506C588.549 189.277 588.069 190.512 588.069 191.746C588.069 192.98 588.549 194.06 589.349 194.986C590.149 195.757 591.429 196.22 592.709 196.22C593.829 196.22 595.109 195.757 595.909 194.986L606.629 201.003C606.629 202.083 607.109 203.163 607.909 203.934C608.709 204.706 609.989 205.169 611.269 205.169C612.549 205.169 613.669 204.706 614.629 203.934C615.429 203.163 615.909 201.929 615.909 200.694C615.909 199.46 615.429 198.38 614.629 197.454C613.829 196.529 612.549 196.066 611.429 196.066ZM610.309 181.563C610.629 181.254 610.949 181.1 611.429 181.1C611.909 181.1 612.229 181.254 612.549 181.563C612.869 181.872 613.029 182.18 613.029 182.643C613.029 183.106 612.869 183.414 612.549 183.723C612.229 184.032 611.909 184.186 611.429 184.186C610.949 184.186 610.629 184.032 610.309 183.723C609.989 183.414 609.829 183.106 609.829 182.643C609.829 182.334 609.989 181.872 610.309 181.563ZM592.869 193.134C592.389 193.134 592.069 192.98 591.749 192.672C591.429 192.363 591.269 192.054 591.269 191.592C591.269 191.129 591.429 190.82 591.749 190.512C592.069 190.203 592.389 190.049 592.869 190.049C593.349 190.049 593.669 190.203 593.989 190.512C594.309 190.82 594.469 191.129 594.469 191.592C594.469 192.054 594.309 192.363 593.989 192.672C593.669 192.98 593.189 193.134 592.869 193.134ZM612.389 201.62C612.069 201.929 611.749 202.083 611.269 202.083C610.789 202.083 610.469 201.929 610.149 201.62C609.829 201.312 609.669 201.003 609.669 200.54C609.669 200.077 609.829 199.769 610.149 199.46C610.469 199.152 610.789 198.997 611.269 198.997C611.749 198.997 612.069 199.152 612.389 199.46C612.709 199.769 612.869 200.077 612.869 200.54C612.869 201.003 612.709 201.312 612.389 201.62Z" fill="white"/>
</g>
</g>
</g>
<defs>
<filter id="filter0_d_2008_22941" x="-5" y="-17.0001" width="839" height="241" filterUnits="userSpaceOnUse" color-interpolation-filters="sRGB">
<feFlood flood-opacity="0" result="BackgroundImageFix"/>
<feColorMatrix in="SourceAlpha" type="matrix" values="0 0 0 0 0 0 0 0 0 0 0 0 0 0 0 0 0 0 127 0" result="hardAlpha"/>
<feOffset dy="4"/>
<feGaussianBlur stdDeviation="2"/>
<feColorMatrix type="matrix" values="0 0 0 0 0.756863 0 0 0 0 0.780392 0 0 0 0 0.815686 0 0 0 0.2 0"/>
<feBlend mode="normal" in2="BackgroundImageFix" result="effect1_dropShadow_2008_22941"/>
<feBlend mode="normal" in="SourceGraphic" in2="effect1_dropShadow_2008_22941" result="shape"/>
</filter>
<filter id="filter1_d_2008_22941" x="288.069" y="65.1686" width="58.0999" height="57.7626" filterUnits="userSpaceOnUse" color-interpolation-filters="sRGB">
<feFlood flood-opacity="0" result="BackgroundImageFix"/>
<feColorMatrix in="SourceAlpha" type="matrix" values="0 0 0 0 0 0 0 0 0 0 0 0 0 0 0 0 0 0 127 0" result="hardAlpha"/>
<feOffset dy="4"/>
<feGaussianBlur stdDeviation="2"/>
<feColorMatrix type="matrix" values="0 0 0 0 0.419608 0 0 0 0 0.466667 0 0 0 0 0.54902 0 0 0 0.15 0"/>
<feBlend mode="normal" in2="BackgroundImageFix" result="effect1_dropShadow_2008_22941"/>
<feBlend mode="normal" in="SourceGraphic" in2="effect1_dropShadow_2008_22941" result="shape"/>
</filter>
<filter id="filter2_d_2008_22941" x="573.069" y="166.169" width="58.0999" height="57.7626" filterUnits="userSpaceOnUse" color-interpolation-filters="sRGB">
<feFlood flood-opacity="0" result="BackgroundImageFix"/>
<feColorMatrix in="SourceAlpha" type="matrix" values="0 0 0 0 0 0 0 0 0 0 0 0 0 0 0 0 0 0 127 0" result="hardAlpha"/>
<feOffset dy="4"/>
<feGaussianBlur stdDeviation="2"/>
<feColorMatrix type="matrix" values="0 0 0 0 0.419608 0 0 0 0 0.466667 0 0 0 0 0.54902 0 0 0 0.15 0"/>
<feBlend mode="normal" in2="BackgroundImageFix" result="effect1_dropShadow_2008_22941"/>
<feBlend mode="normal" in="SourceGraphic" in2="effect1_dropShadow_2008_22941" result="shape"/>
</filter>
<linearGradient id="paint0_linear_2008_22941" x1="292.069" y1="65.1686" x2="357.069" y2="135.169" gradientUnits="userSpaceOnUse">
<stop stop-color="#79E2F2"/>
<stop offset="0.0001" stop-color="#79E2F2"/>
<stop offset="1" stop-color="#79F2C0"/>
</linearGradient>
<linearGradient id="paint1_linear_2008_22941" x1="577.069" y1="166.169" x2="642.069" y2="236.169" gradientUnits="userSpaceOnUse">
<stop stop-color="#79E2F2"/>
<stop offset="0.0001" stop-color="#79E2F2"/>
<stop offset="0.505208" stop-color="#79EAD9"/>
<stop offset="1" stop-color="#79F2C0"/>
</linearGradient>
</defs>
</svg>
