<svg width="295" height="588" viewBox="0 0 295 588" fill="none" xmlns="http://www.w3.org/2000/svg">
<mask id="mask0_2008_21050" style="mask-type:alpha" maskUnits="userSpaceOnUse" x="0" y="0" width="295" height="588">
<rect width="295" height="588" fill="#D9D9D9"/>
</mask>
<g mask="url(#mask0_2008_21050)">
<g filter="url(#filter0_d_2008_21050)">
<path d="M29.2101 -103.735C34.083 -82.5572 47.2043 -69.7022 65.3618 -51.8532C74.1654 -43.1953 84.1965 -33.3383 94.8016 -21.0624C129.021 18.942 115.93 58.161 94.2015 123.116C82.9637 156.593 69.0344 198.393 58.6806 250.158C43.6443 325.412 43.9045 375.866 59.3903 404.314C73.6171 430.457 100.287 439.21 143.361 432.094C180.697 425.885 209.802 383.986 229.977 307.747C248.955 235.901 255.032 150.425 257.019 106.005C260.365 28.6558 268.913 -39.0794 282.349 -95.5181C293.063 -140.579 306.911 -178.545 323.539 -208.254C328.981 -218.008 334.408 -226.332 339.607 -233.231L337.085 -233.29C332.36 -226.705 327.367 -219.086 322.362 -210.232C305.56 -180.267 291.581 -142.044 280.822 -96.6591C267.341 -39.9614 258.788 28.1637 255.397 105.771C253.453 150.193 247.422 235.28 228.492 306.737C208.624 382.073 179.953 423.397 143.301 429.493C100.87 436.558 74.7097 428.078 60.8604 402.659C45.7526 374.87 45.57 325.197 60.4682 250.915C70.82 199.345 84.7046 157.739 95.8564 124.325C106.918 91.3648 115.645 65.2405 117.334 41.8764C119.172 16.5005 112.621 -3.54646 95.9758 -23.0502C85.372 -35.456 75.2981 -45.314 66.4525 -54.038C48.5481 -71.556 35.5964 -84.2769 30.9714 -104.604C26.0583 -126.042 30.6664 -154.864 46.4352 -201.041C51.2363 -215.101 56.5384 -227.978 62.0437 -239.811L59.8642 -239.862C54.4904 -228.351 49.448 -215.793 44.8224 -202.184C28.8328 -155.297 24.1333 -125.893 29.2101 -103.735Z" fill="#79E2F2" fill-opacity="0.5"/>
<path d="M83.4542 -151.396C83.616 -129.447 90.1143 -110.695 102.699 -95.7479C114.106 -82.1662 124.53 -72.5549 133.643 -63.911C163.223 -36.2542 176.726 -23.6269 155.282 58.4968C148.991 82.4348 139.975 110.658 130.387 140.54C103.957 222.814 74.0087 316.045 87.6022 366.141C91.667 381.223 99.6116 391.713 111.184 397.27C126.783 404.795 141.035 402.319 153.513 389.9C171.629 371.726 186.204 332.996 198.198 271.458C207.541 223.639 215.277 161.867 222.604 77.4052C229.831 -5.58742 247.606 -91.2763 272.702 -163.747C282.09 -190.757 292.087 -214.742 302.037 -234.178L299.78 -234.231C290.13 -215.055 280.481 -191.731 271.224 -164.986C246.04 -92.2497 228.176 -6.22836 220.946 77.1656C213.619 161.561 205.885 223.132 196.543 270.817C184.683 331.756 170.241 369.954 152.555 387.804C140.549 399.832 126.81 402.186 111.634 394.939C100.443 389.524 93.0865 379.851 89.186 365.375C75.9224 316.357 105.694 223.724 131.949 141.981C141.579 112.1 150.639 83.8116 156.888 59.7388C167.477 19.1756 169.987 -5.85466 165.23 -24.0305C160.636 -41.5335 149.707 -51.8257 134.558 -65.8967C125.443 -74.4068 115.104 -84.016 103.782 -97.5288C91.6602 -111.93 85.41 -129.94 85.1975 -151.087C84.9875 -180.932 96.8981 -213.101 109.508 -238.563L107.336 -238.614C87.5519 -198.668 83.2958 -169.464 83.4542 -151.396Z" fill="#B3F5FF"/>
<path d="M127.141 -148.626C128.701 -133.289 136.476 -121.777 150.253 -114.422C191.329 -92.4273 188.003 -43.2819 185.831 -10.7777C184.623 6.90399 183.807 19.7767 190.479 21.496C198.948 23.7132 205.536 16.8358 211.156 -0.41671C216.157 -15.7956 220.197 -37.9034 224.745 -63.5804C234.335 -117.267 246.65 -185.995 276.99 -234.766L274.632 -234.822C244.804 -185.777 232.623 -117.567 223.079 -64.2706C213.989 -13.3723 207.443 23.3265 190.762 18.9633C185.929 17.743 186.375 7.46602 187.586 -10.476C188.654 -27.1192 190.064 -47.7912 185.93 -67.4214C181.019 -90.6508 169.56 -106.807 150.878 -116.816C137.783 -123.83 130.345 -134.683 128.86 -148.977C126.044 -175.933 144.194 -210.862 161.53 -237.476L159.129 -237.533C158.215 -236.187 157.342 -234.71 156.384 -233.235C134.765 -198.713 124.914 -170.23 127.141 -148.626Z" fill="#B3F5FF"/>
<path d="M186.451 61.5329L186.447 61.5403L186.444 61.548L186.443 61.5512L186.438 61.5617L186.421 61.5978L186.4 61.6422L186.362 61.723C186.311 61.8295 186.239 61.9806 186.146 62.1755L186.044 62.3899C185.866 62.7621 185.632 63.2529 185.344 63.8566C184.651 65.3123 183.649 67.4249 182.385 70.1171C179.857 75.5014 176.281 83.2037 172.038 92.6059C163.552 111.41 152.395 137.014 141.603 164.472C127.01 201.435 116.506 232.805 110.11 258.393C103.715 283.974 101.42 303.799 103.266 317.662L103.266 317.662C104.418 326.269 107.221 332.67 111.674 336.551C115.786 340.181 119.97 342.113 124.193 342.336C128.417 342.558 132.645 341.069 136.845 337.923C145.232 331.64 153.555 318.712 161.607 299.378L161.607 299.378C175.883 265.029 189.298 209.909 197.419 151.936C200.767 128.122 203.511 101.023 203.716 80.7142C203.791 73.3027 203.526 66.7725 202.831 61.6401C202.483 59.0739 202.027 56.851 201.448 55.0392C200.871 53.2313 200.166 51.8128 199.309 50.8732L199.305 50.8685C198.497 50.0265 197.59 49.6065 196.595 49.6537C195.611 49.7002 194.584 50.2014 193.522 51.1047C191.4 52.909 189.038 56.4003 186.451 61.5329ZM197.898 53.4681L197.9 53.4697C198.624 54.2452 199.658 56.2278 200.427 61.0742C201.194 65.9089 201.692 73.5562 201.379 85.6157C200.903 103.28 198.752 126.65 195.268 151.429L195.268 151.429C187.196 209.121 173.835 263.804 159.711 297.907C152.298 315.674 144.786 327.917 137.235 334.225L137.234 334.226C133.1 337.725 128.999 339.421 124.947 339.374C120.895 339.327 116.852 337.537 112.833 333.978C108.973 330.548 106.45 324.879 105.426 317.12L105.426 317.119C104.992 313.925 104.816 310.409 104.854 306.568C105.036 288.546 110.264 264.474 118.033 238.453C125.8 212.438 136.101 184.494 146.416 158.735C167.046 107.215 187.725 64.4522 188.286 63.3637L188.288 63.3595C189.807 60.2662 191.627 57.0691 193.393 55.0146C194.279 53.9836 195.129 53.2681 195.897 52.9794C196.277 52.8369 196.627 52.8019 196.95 52.8748C197.272 52.9475 197.59 53.1323 197.898 53.4681Z" stroke="#79E2F2" stroke-opacity="0.5" stroke-width="0.5"/>
<path d="M171.594 151.72C171.461 152.044 160.604 177.256 150.409 205.428C136.695 243.469 130.642 268.597 132.431 280.03C132.878 282.855 133.809 284.972 135.268 286.185C141.275 291.367 147.735 285.954 154.518 269.943C161.214 253.996 168.106 227.186 173.03 198.169C173.952 192.626 177.505 170.713 177.635 157.819C177.683 153.107 177.328 149.629 176.172 148.424C174.332 146.351 172.257 150.427 171.594 151.72ZM175.156 150.495C176.568 152.033 176.321 167.936 171.348 197.54C166.513 226.363 159.624 252.911 153.017 268.598C146.853 283.249 141.219 288.354 136.157 283.914C135.17 283.04 134.493 281.584 134.168 279.416C133.965 278.102 133.849 276.724 133.866 275.023C134.177 244.196 171.944 155.722 173.006 153.325C174.419 150.543 175.114 150.297 175.156 150.495Z" fill="#B3F5FF"/>
<path d="M285.257 258.847L285.257 258.847C298.951 286.272 313.917 310.796 323.747 326.118L324.3 326.979L324.3 325.956L324.3 323.629L324.3 323.541L324.252 323.467C314.429 308.192 299.871 284.261 286.524 257.506C273.219 230.786 263.776 206.651 258.441 185.671L258.152 185.745L258.441 185.671C251.813 159.61 251.557 138.496 257.637 122.87L257.358 122.761L257.637 122.87C271.794 86.4842 295.689 67.1308 316.823 50.062L316.825 50.0604C318.065 49.0415 319.295 48.0492 320.516 47.065L320.627 46.9759C321.81 46.0221 322.984 45.0753 324.149 44.12L324.258 44.03L324.258 43.888L324.258 41.9556L324.258 41.3136L323.766 41.7254C321.244 43.8344 318.659 45.9082 316.01 48.0194L316.009 48.0202C294.787 65.092 270.63 84.6383 256.285 121.579C249.952 137.873 250.175 159.738 256.984 186.427C262.374 207.639 271.897 231.995 285.257 258.847Z" stroke="#79E2F2" stroke-width="0.6"/>
<path d="M327.65 -30.982C325.019 2.2332 307.481 21.7325 285.217 46.3117C279.03 53.1892 272.575 60.3402 265.9 68.3509C249.166 88.4754 239.13 111.062 236.036 135.328C232.529 162.916 237.936 193.24 252.089 225.439C267.63 260.804 292.598 311.994 315.812 355.877C322.315 368.186 330.987 384.247 339.976 399.956L339.976 397.142C332.912 384.638 325.117 370.453 316.737 354.627C293.572 310.783 268.604 259.67 253.112 224.384C226.78 164.401 231.335 112.429 266.704 69.914C273.33 61.9424 279.785 54.8304 285.972 47.9139C308.455 22.9829 326.164 3.28825 328.868 -30.7085C330.768 -54.8578 334.519 -68.691 340 -72.0125L340 -74.0444C333.813 -70.8792 329.696 -56.4209 327.65 -30.982Z" fill="#79E2F2" fill-opacity="0.4"/>
<path d="M271.886 97.4345C270.434 67.1777 272.549 30.7643 277.851 -2.285C287.575 -63.5962 314.655 -182.407 332.664 -259.531L335.464 -259.177C317.386 -182.062 290.264 -62.4592 280.397 -1.05215C275.256 31.5618 273.036 67.3923 274.512 97.1965C276.641 140.297 285.248 156.535 292.142 162.532C298.378 167.99 306.088 167.825 315.142 161.905L314.866 166.997C305.557 172.542 297.53 172.212 290.834 166.354C277.381 154.516 273.073 122.418 271.886 97.4345Z" fill="#B3F5FF"/>
<path d="M165.25 530.899C177.256 570.882 187.904 590.713 197.202 589.456C203.892 588.674 209.298 577.535 213.342 555.231C217.842 530.658 220.162 507.107 220.367 486.859C220.672 456.554 216.303 433.785 207.526 426.336C196.254 416.817 182.446 435.002 172.641 452.074C160.276 473.512 157.446 504.562 165.25 530.899ZM205.916 431.127C218.65 442.022 220.524 497.056 209.97 553.945C206.392 573.175 201.947 583.666 196.908 584.219C189.522 585.118 179.396 565.298 168.397 528.693C165.627 519.373 164.34 509.284 164.442 499.227C164.6 483.538 168.316 467.933 175.296 455.623C188.016 433.389 198.514 425.052 205.916 431.127Z" fill="#B3F5FF" fill-opacity="0.4"/>
<path d="M173.314 519.088L173.314 519.089C177.696 533.68 181.834 544.612 185.732 551.785C187.681 555.37 189.577 558.032 191.426 559.743C193.275 561.453 195.104 562.237 196.902 561.995C199.477 561.693 201.735 559.41 203.706 555.259C205.685 551.092 207.413 544.967 208.89 536.822C212.176 518.88 213.871 501.681 214.02 486.891C214.132 475.824 213.39 466.123 211.815 458.503C210.244 450.897 207.832 445.31 204.561 442.534L204.561 442.533C202.446 440.747 200.195 440.253 197.906 440.731C195.632 441.206 193.339 442.634 191.103 444.651C186.632 448.684 182.309 455.144 178.729 461.376C169.669 477.084 167.602 499.813 173.314 519.088ZM196.622 557.677L196.619 557.677C195.395 557.826 193.998 557.121 192.439 555.458C190.886 553.802 189.219 551.246 187.462 547.818C183.948 540.966 180.1 530.691 176.089 517.341C174.076 510.568 173.14 503.231 173.213 495.915C173.329 484.502 176.032 473.159 181.101 464.219C185.738 456.114 189.954 450.571 193.667 447.606C195.523 446.125 197.235 445.301 198.795 445.108C200.345 444.917 201.768 445.344 203.067 446.41C205.323 448.341 207.135 452.271 208.448 457.793C209.757 463.302 210.557 470.346 210.827 478.447C211.367 494.648 209.786 515.047 205.938 535.787C204.634 542.796 203.174 548.196 201.588 551.89C200.795 553.737 199.975 555.145 199.136 556.112C198.297 557.079 197.457 557.585 196.622 557.677Z" stroke="#B3F5FF" stroke-width="0.5"/>
<path d="M181.994 509.585C186.552 524.765 190.594 532.294 194.124 531.817C196.664 531.52 198.716 527.291 200.252 518.823C201.96 509.494 202.841 500.553 202.919 492.866C203.035 481.36 201.376 472.716 198.044 469.888C193.764 466.274 188.522 473.178 184.8 479.659C180.105 487.798 179.031 499.586 181.994 509.585ZM197.432 471.707C202.267 475.843 202.978 496.737 198.972 518.335C197.613 525.635 195.925 529.618 194.012 529.828C191.209 530.17 187.364 522.645 183.188 508.748C182.137 505.21 181.648 501.379 181.687 497.561C181.747 491.605 183.157 485.68 185.807 481.007C190.637 472.566 194.622 469.4 197.432 471.707Z" fill="#B3F5FF"/>
<path d="M209.014 189.584L214.065 200.357L202.209 199.345L209.014 189.584Z" fill="#B3F5FF"/>
</g>
<g filter="url(#filter1_d_2008_21050)">
<path d="M196 226.729V259.033C196 263.876 199.913 267.763 204.788 267.763H237.312C242.187 267.763 246.1 263.876 246.1 259.033V226.729C246.1 221.887 242.187 218 237.312 218H204.788C199.913 218 196 221.95 196 226.729Z" fill="url(#paint0_linear_2008_21050)"/>
<rect width="29" height="29" transform="translate(207 228.505)" fill="white" fill-opacity="0.01"/>
<path fill-rule="evenodd" clip-rule="evenodd" d="M216.819 240.589H211.833C210.489 240.589 209.417 241.67 209.417 243.005V247.513C209.417 249.095 211.681 249.993 214.25 250.207V246.626C214.252 245.665 214.635 244.745 215.314 244.066C215.994 243.388 216.915 243.006 217.875 243.005H218.303C217.578 242.366 217.061 241.525 216.819 240.589ZM226.181 240.589H231.167C232.502 240.589 233.583 241.658 233.583 243.005V247.513C233.583 249.095 231.319 249.993 228.75 250.207V246.626C228.749 245.665 228.366 244.744 227.687 244.066C227.007 243.387 226.086 243.005 225.125 243.005H224.697C225.422 242.366 225.939 241.525 226.181 240.589ZM219.044 235.217C218.932 234.478 218.596 233.792 218.08 233.253C217.565 232.713 216.895 232.345 216.162 232.2C215.43 232.056 214.671 232.14 213.988 232.443C213.306 232.746 212.734 233.252 212.35 233.892C211.966 234.533 211.789 235.276 211.844 236.02C211.898 236.765 212.181 237.475 212.654 238.052C213.127 238.63 213.766 239.048 214.485 239.248C215.205 239.449 215.968 239.422 216.672 239.173C216.706 238.368 216.941 237.584 217.355 236.893C217.769 236.202 218.35 235.626 219.044 235.217ZM226.33 239.173C227.033 239.422 227.797 239.449 228.516 239.248C229.235 239.048 229.874 238.63 230.347 238.053C230.82 237.475 231.103 236.765 231.157 236.021C231.212 235.277 231.035 234.533 230.652 233.893C230.268 233.253 229.696 232.747 229.014 232.444C228.332 232.14 227.573 232.055 226.84 232.2C226.108 232.344 225.438 232.712 224.922 233.251C224.406 233.791 224.069 234.476 223.958 235.214C224.652 235.623 225.233 236.2 225.648 236.892C226.062 237.583 226.296 238.367 226.33 239.173Z" fill="white"/>
<path fill-rule="evenodd" clip-rule="evenodd" d="M215.458 246.63C215.458 245.295 216.53 244.214 217.875 244.214H225.125C226.46 244.214 227.542 245.283 227.542 246.63V251.138C227.542 254.795 215.458 254.795 215.458 251.138V246.63Z" fill="white"/>
<path d="M221.5 243.005C223.502 243.005 225.125 241.383 225.125 239.38C225.125 237.378 223.502 235.755 221.5 235.755C219.498 235.755 217.875 237.378 217.875 239.38C217.875 241.383 219.498 243.005 221.5 243.005Z" fill="white"/>
</g>
</g>
<defs>
<filter id="filter0_d_2008_21050" x="-4" y="-259.531" width="348" height="857.044" filterUnits="userSpaceOnUse" color-interpolation-filters="sRGB">
<feFlood flood-opacity="0" result="BackgroundImageFix"/>
<feColorMatrix in="SourceAlpha" type="matrix" values="0 0 0 0 0 0 0 0 0 0 0 0 0 0 0 0 0 0 127 0" result="hardAlpha"/>
<feOffset dy="4"/>
<feGaussianBlur stdDeviation="2"/>
<feColorMatrix type="matrix" values="0 0 0 0 0.756863 0 0 0 0 0.780392 0 0 0 0 0.815686 0 0 0 0.2 0"/>
<feBlend mode="normal" in2="BackgroundImageFix" result="effect1_dropShadow_2008_21050"/>
<feBlend mode="normal" in="SourceGraphic" in2="effect1_dropShadow_2008_21050" result="shape"/>
</filter>
<filter id="filter1_d_2008_21050" x="192" y="218" width="58.0999" height="57.7625" filterUnits="userSpaceOnUse" color-interpolation-filters="sRGB">
<feFlood flood-opacity="0" result="BackgroundImageFix"/>
<feColorMatrix in="SourceAlpha" type="matrix" values="0 0 0 0 0 0 0 0 0 0 0 0 0 0 0 0 0 0 127 0" result="hardAlpha"/>
<feOffset dy="4"/>
<feGaussianBlur stdDeviation="2"/>
<feColorMatrix type="matrix" values="0 0 0 0 0.419608 0 0 0 0 0.466667 0 0 0 0 0.54902 0 0 0 0.2 0"/>
<feBlend mode="normal" in2="BackgroundImageFix" result="effect1_dropShadow_2008_21050"/>
<feBlend mode="normal" in="SourceGraphic" in2="effect1_dropShadow_2008_21050" result="shape"/>
</filter>
<linearGradient id="paint0_linear_2008_21050" x1="196" y1="218" x2="261" y2="288" gradientUnits="userSpaceOnUse">
<stop stop-color="#79E2F2"/>
<stop offset="0.0001" stop-color="#79E2F2"/>
<stop offset="1" stop-color="#79F2C0"/>
</linearGradient>
</defs>
</svg>
